<svg xmlns="http://www.w3.org/2000/svg" xmlns:xlink="http://www.w3.org/1999/xlink" width="1012.751" height="590.608" viewBox="0 0 1012.751 590.608"><defs><style>.a{fill:#efc003;stroke:rgba(0,0,0,0);stroke-miterlimit:10;}.b{fill:#7c409c;}.c{fill:#583d76;}.d{fill:#ffc637;}.e{fill:#ff4a1e;}.f{fill:#ffc22a;}.g{fill:url(#a);}.h{fill:#072c6b;}.i{fill:#623ea5;}.j{fill:#4ac6f0;}.k{fill:#ff9f23;}.l{fill:#41b8e1;}</style><linearGradient id="a" y1="0.5" x2="1" y2="0.5" gradientUnits="objectBoundingBox"><stop offset="0" stop-color="#fed747"/><stop offset="1" stop-color="#f94e43"/></linearGradient></defs><g transform="translate(88.063 -1214.238)"><path class="a" d="M4113.659,155.223c-69.474-287.935,311.557-401.441,421.479-214.292,80.6,137.234,175.306,157.67,208.154,134.361,77.123-54.731,182.24-63.949,272.4,70.919,101.616,152-20.682,292.405-20.682,292.405l-914.405.3C4011.338,299.627,4147.277,294.561,4113.659,155.223Z" transform="translate(-4131.859 1365.434)"/><g transform="translate(-88.063 1597.26)"><path class="b" d="M1641.286,717.568c.086.49.2.979.317,1.44.432,1.785.893,3.542,1.354,5.242.029.143.086.287.115.432.058.173.087.345.144.518.518,1.93,1.065,3.773,1.613,5.588.748,2.448,1.526,4.782,2.3,7.056.231.663.461,1.326.692,1.959.346.951.691,1.9,1.008,2.823v.029c.316.749.576,1.44.864,2.16.432,1.152.893,2.247,1.325,3.341.663,1.613,1.325,3.168,1.959,4.608.144.345.288.663.432.979.288.662.576,1.3.835,1.9h40.9V717.568Z" transform="translate(-1636.848 -590.161)"/><rect class="b" width="75.829" height="38.069" transform="translate(195.24 127.401)"/><ellipse class="c" cx="22.473" cy="22.473" rx="22.473" ry="22.473" transform="translate(217.08 183.902) rotate(-100.162)"/><path class="d" d="M1186.389,774.24a11.8,11.8,0,1,0,11.789-11.791A11.724,11.724,0,0,0,1186.389,774.24Z" transform="translate(-962.943 -616.422)"/><path class="e" d="M930.115,481.647c.288-2.074.6-4.148.979-6.25.029-.2.087-.433.115-.634.4-2.188.864-4.348,1.383-6.538L1243.8,410.5c.461,0,.95,0,1.411.029.087,0,.2.028.288.028.2,0,.375.029.547.029h.029a.8.8,0,0,0,.259.029c.115.029.23.029.317.057a20.307,20.307,0,0,1,2.592.461l.346.086a.1.1,0,0,0,.086.029c.173.058.346.086.49.144l.346.087.519.173.519.173a2.682,2.682,0,0,0,.288.115c.173.058.375.145.576.231a3.251,3.251,0,0,1,.461.2c.259.087.49.2.749.317.144.086.288.144.461.23.087.058.2.087.288.144.2.115.374.2.547.288.173.115.345.2.518.317a4.267,4.267,0,0,1,.489.288c.029.029.058.029.086.057.173.086.317.2.461.288.144.115.288.2.432.317a3.719,3.719,0,0,1,.432.288,2.458,2.458,0,0,0,.288.2c.375.288.749.6,1.094.922a1.581,1.581,0,0,1,.23.173c.116.114.231.2.317.287.115.115.231.2.346.317l.634.633a3.5,3.5,0,0,1,.316.346,4.585,4.585,0,0,1,.375.374,1.814,1.814,0,0,0,.23.259c.144.2.288.375.432.548.086.087.144.173.23.26a2.551,2.551,0,0,0,.2.287c.144.2.288.375.432.576a2.542,2.542,0,0,1,.173.288,1.039,1.039,0,0,1,.2.288c.115.144.23.317.346.49,0,.029,0,.029.029.029.029.086.086.144.115.23.086.115.144.231.23.346a1.351,1.351,0,0,1,.145.288.028.028,0,0,1,.029.028,1.134,1.134,0,0,0,.144.259c.087.144.173.317.259.461.086.2.2.4.288.606a3.943,3.943,0,0,1,.23.518c.058.087.086.173.144.259a.855.855,0,0,0,.115.288c.087.2.144.375.231.577.058.172.144.345.2.547.029.086.086.2.115.317.029.086.057.173.086.259.028.058.028.115.057.173.029.087.057.2.086.288.057.144.086.289.144.432q.044.173.086.346c.029.115.057.2.087.317.317,1.123.6,2.275.922,3.485l.173.6q.518,1.9,1.037,3.888c.086.26.144.548.23.836.029.144.057.259.087.375.115.4.23.807.317,1.21.115.4.23.835.346,1.238a.739.739,0,0,0,.057.2,4.626,4.626,0,0,0,.144.6,3.6,3.6,0,0,1,.115.461c.115.374.2.72.288,1.094.144.49.259.98.4,1.469.087.375.2.778.288,1.181.317,1.181.634,2.391.951,3.6.144.6.288,1.18.461,1.785.144.6.317,1.21.461,1.815s.317,1.209.461,1.814c.144.547.259,1.094.4,1.642.4,1.584.807,3.168,1.181,4.723.144.6.288,1.181.432,1.757.057.2.087.4.144.576.144.6.288,1.18.432,1.756.029.115.029.2.058.317q.172.691.346,1.382c.058.2.086.4.144.576.115.519.231,1.008.346,1.5.058.317.144.6.2.893.144.518.259,1.009.374,1.527a.173.173,0,0,0,.029.115c.057.287.115.576.173.835a.264.264,0,0,1,.028.145l.173.69c.057.259.115.548.173.807.144.548.259,1.066.374,1.613.029.116.058.26.086.4.144.634.288,1.3.432,1.93a6.084,6.084,0,0,0,.144.691c0,.058.029.115.029.173.057.2.086.431.144.634.029.087.029.173.058.259.057.317.115.633.2.95v.029c.029.2.086.374.115.576.115.6.23,1.18.346,1.757.6,3,1.066,5.616,1.325,7.719a290.681,290.681,0,0,1,2.1,33.785c.029,4.9,0,9.707-.087,14.286-.028,2.074-.086,4.091-.144,6.049-.172,5.587-.4,10.743-.634,15.236-.144,2.621-.317,4.983-.432,7.086a10.893,10.893,0,0,1-10.859,10.167h-79.495c.029-.087.029-.173.058-.26a27.322,27.322,0,0,0,.979-7.4,28.01,28.01,0,0,0-27.564-28.025,27.738,27.738,0,0,0-13.336,3.2,28.057,28.057,0,0,0-15.092,24.424,28.987,28.987,0,0,0,.98,7.806.843.843,0,0,1,.057.26h-158.5a28.38,28.38,0,0,0-43.55-30.963c-.029-.144-.086-.288-.115-.432-.461-1.7-.922-3.457-1.354-5.242-.115-.461-.231-.95-.317-1.44q-.174-.777-.346-1.555l-.058-.2c-.086-.374-.173-.749-.259-1.152-.2-.98-.4-1.959-.6-2.967-.691-3.543-1.3-7.229-1.786-10.974-.4-2.909-.72-5.9-.95-8.929-.086-1.412-.172-2.822-.259-4.262-.058-1.44-.115-2.88-.144-4.35A144.789,144.789,0,0,1,930.115,481.647Z" transform="translate(-928.902 -410.492)"/><path class="f" d="M1015.228,736.108h13.888a2.54,2.54,0,0,0,2.533-2.533h0a2.54,2.54,0,0,0-2.533-2.533h-13.888a2.541,2.541,0,0,0-2.533,2.533h0A2.541,2.541,0,0,0,1015.228,736.108Z" transform="translate(-712.561 -598.045)"/><path class="g" d="M930.113,581.1s349.061-1.046,349.21-.431c.6,2.47,1.054,4.628,1.33,6.356,1.775,11.148,2.216,23.951,2.076,35.59-.038,3.046-.114,6.013-.218,8.848H1054.684v.013H932.072c-.691-3.543-1.3-7.229-1.786-10.974-.4-2.909-.72-5.9-.951-8.929-.086-1.412-.173-2.822-.259-4.262-.058-1.44-.115-2.88-.144-4.35A144.788,144.788,0,0,1,930.113,581.1Z" transform="translate(-928.901 -509.946)"/><path class="f" d="M5.318,0h0a5.318,5.318,0,0,1,5.318,5.318V15.964a5.318,5.318,0,0,1-5.318,5.318h0A5.318,5.318,0,0,1,0,15.965V5.318A5.318,5.318,0,0,1,5.318,0Z" transform="translate(345.74 126.956)"/><path class="e" d="M897.593,481.629c.288-2.074.6-4.147.979-6.25.029-.2.087-.433.115-.634.4-2.188.864-4.348,1.383-6.538.317-1.382.691-2.765,1.065-4.148.231-.777.432-1.526.663-2.3.029-.115.086-.259.115-.375.287-.922.576-1.872.864-2.793.317-.951.634-1.9.98-2.851.173-.518.346-1.037.547-1.556l.346-.951a131.46,131.46,0,0,1,6.941-15.351c.4-.72.807-1.469,1.21-2.19l.432-.777c.173-.317.346-.606.519-.893q1.814-3.154,3.888-6.308c1.008-1.584,2.1-3.139,3.226-4.724.518-.749,1.065-1.469,1.613-2.218.346-.432.691-.892,1.037-1.353.921-1.181,1.843-2.391,2.822-3.572,1.066-1.267,2.131-2.563,3.255-3.83.461-.519.921-1.037,1.382-1.527h187.791l.018-.013h92.5c.468,0,.936.013,1.4.042l.307.022c.176.013.351.027.528.044a.352.352,0,0,1,.047,0c.085.009.167.015.252.027h.009c.1.011.208.025.309.038a22.456,22.456,0,0,1,2.577.472c.12.029.24.06.36.091.031.007.061.015.092.025.163.042.325.089.488.136.111.032.223.065.331.1.174.053.35.109.524.167s.347.118.519.18c.093.031.187.065.278.1.192.071.383.145.572.222.163.065.323.132.483.2q.371.16.735.334c.154.071.307.147.459.222.1.051.2.1.3.156.181.094.359.189.537.29s.354.2.528.3l0,0q.237.14.474.287c.036.022.071.044.1.067.151.094.3.192.452.292s.29.194.432.294.283.2.423.3l.278.207q.574.434,1.122.9c.074.063.147.127.221.194.109.1.218.194.325.292s.215.2.32.3c.22.209.439.423.65.641.109.114.218.23.328.345s.233.254.347.383c.078.087.154.173.229.263q.235.264.448.534c.074.089.147.181.218.272s.144.185.214.276c.142.187.283.376.419.568.067.093.134.187.2.282s.132.19.2.287a41.273,41.273,0,0,1,6.92.808c9.154,1.907,14.937,6.959,16.789,14.634l1.114-.107a2.9,2.9,0,0,1,3.119,2.333l4.9,25.3a2.9,2.9,0,0,1-2.568,3.434l-7.059.674a2.9,2.9,0,0,1-3.159-2.608l-2.437-25.531a2.9,2.9,0,0,1,2.429-3.133c-1.6-6.917-5.592-12.107-13.934-13.859a26.049,26.049,0,0,0-5.243-.536l0,.008c.052.087.1.176.147.265.087.156.171.314.254.472.1.2.2.392.3.59.082.169.162.341.24.512q.064.14.125.28c.042.1.083.189.123.285.08.189.158.381.234.573s.136.356.2.536c.038.109.078.218.114.327.031.087.06.174.089.263.018.054.035.1.054.158.031.1.062.2.093.3.045.143.087.283.127.428.036.12.069.243.1.365.024.1.053.2.08.3q.457,1.69.937,3.485c.054.2.107.4.16.6q.512,1.894,1.038,3.882.113.428.229.862c.02.076.043.152.063.229.056.212.112.425.17.639.062.236.124.472.184.708q.161.612.325,1.23c.016.062.033.127.051.191.065.243.13.486.192.728.031.118.062.234.091.352.1.361.19.721.285,1.085a.035.035,0,0,0,0,.015c.127.485.256.973.383,1.463H1135.818v38.451Z" transform="translate(-896.38 -410.474)"/><path class="h" d="M937.19,505.939c.288-2.074.6-4.147.979-6.25.029-.2.087-.433.115-.634.4-2.188.864-4.348,1.383-6.538.316-1.382.691-2.765,1.065-4.148.231-.777.432-1.526.663-2.3.029-.115.086-.259.115-.375.288-.922.576-1.872.864-2.793.317-.951.634-1.9.98-2.851.173-.518.346-1.037.547-1.556l.346-.951a131.436,131.436,0,0,1,6.941-15.351c.4-.72.807-1.47,1.21-2.19l.432-.777c.173-.317.346-.606.519-.893q1.814-3.154,3.888-6.308h315.848c.317,1.123.6,2.275.921,3.485l.173.6q.518,1.9,1.037,3.888c.086.26.144.548.23.836.029.144.058.259.087.375.115.4.23.807.317,1.21.115.4.23.835.346,1.238a.734.734,0,0,0,.057.2,4.6,4.6,0,0,0,.144.6,3.625,3.625,0,0,1,.115.461c.115.374.2.72.288,1.094.144.49.259.98.4,1.469.087.375.2.778.288,1.181.317,1.181.634,2.391.951,3.6.144.6.288,1.18.461,1.785.144.6.317,1.21.461,1.815s.317,1.209.461,1.814c.144.547.259,1.094.4,1.642.4,1.584.806,3.168,1.181,4.723.144.6.288,1.181.432,1.757.057.2.087.4.144.576.144.6.288,1.18.432,1.756.029.115.029.2.058.317l.345,1.382c.058.2.086.4.144.576.115.519.231,1.008.346,1.5.058.317.144.6.2.893.144.518.259,1.009.374,1.527a.172.172,0,0,0,.029.115c.058.288.115.576.173.835a.264.264,0,0,1,.029.145c.057.23.115.461.172.69.057.259.115.548.173.807.144.548.259,1.066.374,1.613.029.116.057.26.086.4.144.634.288,1.3.432,1.93a6.007,6.007,0,0,0,.144.691c0,.058.029.115.029.173.057.2.086.432.144.634.029.087.029.172.058.259.057.317.115.633.2.95v.029c.029.2.086.374.115.576.115.6.23,1.18.346,1.757l-8.468.029h-3.2l-17.454.029-21.573.029h-3.86l-126.99.23a1,1,0,0,1,.115-.316Z" transform="translate(-935.978 -434.784)"/><path class="i" d="M951.153,476.474a4.293,4.293,0,0,1,4.285-4.559h19.615c12.625,0,21.321,10,22.861,22.861l4.553,55.858a3.283,3.283,0,0,1-3.273,3.55H958.987a3.208,3.208,0,0,1-3.2-3.01Z" transform="translate(-657.854 -446.424)"/><path class="j" d="M959.9,485.785l3.354,49.134,1.173,17.192a4,4,0,0,0,4,4.006h31.33c5.5,0,3.866-8.161,3.423-13.312l-3.463-40.383a21.877,21.877,0,0,0-.12-2.309c-1.067-10.324-9.219-18.352-19.117-18.352H968.735C966.353,481.761,959.9,481.761,959.9,485.785Z" transform="translate(-662.761 -452.186)"/><path class="k" d="M1204.693,774.24a11.725,11.725,0,0,0,2.311,7.008c13.09-3.61,13.956-13.521,13.622-18.051a11.8,11.8,0,0,0-15.933,11.043Z" transform="translate(-981.247 -616.422)"/><path class="c" d="M1673.5,742c.748,2.448,1.526,4.781,2.3,7.056.231.663.461,1.326.692,1.959.345.951.691,1.9,1.008,2.823v.029c.317.749.576,1.44.864,2.16.432,1.152.893,2.247,1.325,3.341.662,1.613,1.325,3.168,1.959,4.609.144.345.288.663.432.979.288.663.576,1.3.835,1.9.576,1.268,1.152,2.477,1.7,3.6s1.066,2.189,1.555,3.168c1.843,3.629,3.4,6.623,4.09,7.92A22.467,22.467,0,1,0,1673.5,742Z" transform="translate(-1665.518 -601.373)"/><path class="d" d="M1699.255,768.867v.029c.316.749.576,1.44.864,2.16.432,1.152.893,2.247,1.325,3.341.663,1.613,1.325,3.168,1.959,4.608.144.345.288.663.432.979.288.663.576,1.3.835,1.9.576,1.267,1.152,2.477,1.7,3.6a10.867,10.867,0,0,0,3.37.518,11.817,11.817,0,0,0,11.78-11.781,11.817,11.817,0,0,0-7.632-11.059,12.314,12.314,0,0,0-4.147-.749A11.729,11.729,0,0,0,1699.255,768.867Z" transform="translate(-1687.27 -616.402)"/><path class="k" d="M1717.532,768.867v.029c.317.749.576,1.44.864,2.16.432,1.152.893,2.247,1.325,3.341.663,1.613,1.325,3.168,1.959,4.608.144.345.288.663.432.979,9.678-4.29,10.34-12.731,10.052-16.82a12.316,12.316,0,0,0-4.148-.749A11.729,11.729,0,0,0,1717.532,768.867Z" transform="translate(-1705.547 -616.402)"/><path class="l" d="M959.9,560.8l1.173,17.192a4,4,0,0,0,4,4.006H996.4c5.5,0,3.866-8.161,3.423-13.312L996.364,528.3a21.91,21.91,0,0,0-.12-2.309C990.784,538.72,979.847,556.161,959.9,560.8Z" transform="translate(-659.407 -478.068)"/><path class="l" d="M17.2,0H50.173a17.2,17.2,0,0,1,17.2,17.2v5.4a17.2,17.2,0,0,1-17.2,17.2H17.2A17.2,17.2,0,0,1,0,22.606V17.2A17.2,17.2,0,0,1,17.2,0Z" transform="translate(184.187 24.449)"/><path class="l" d="M11.926,0h8.53A11.927,11.927,0,0,1,32.382,11.927V27.884A11.927,11.927,0,0,1,20.456,39.81H11.927A11.927,11.927,0,0,1,0,27.884V11.926A11.926,11.926,0,0,1,11.926,0Z" transform="translate(259.014 24.449)"/><path class="d" d="M17.2,0h32.97a17.2,17.2,0,0,1,17.2,17.2v5.4a17.2,17.2,0,0,1-17.2,17.2H17.2A17.2,17.2,0,0,1,0,22.606V17.2A17.2,17.2,0,0,1,17.2,0Z" transform="translate(108.567 24.449)"/><path class="d" d="M17.2,0h32.97a17.2,17.2,0,0,1,17.2,17.2v5.4a17.2,17.2,0,0,1-17.2,17.2H17.2A17.2,17.2,0,0,1,0,22.606V17.2A17.2,17.2,0,0,1,17.2,0Z" transform="translate(33.971 24.449)"/><path class="d" d="M1718.9,502.673c-.519,2.19-.98,4.35-1.383,6.538h19.874a4.5,4.5,0,0,0,4.493-4.493V473.87a4.5,4.5,0,0,0-4.493-4.492h-5.329l-.432.777c-.4.72-.806,1.47-1.21,2.19a131.393,131.393,0,0,0-6.941,15.351l-.346.951c-.2.519-.375,1.038-.547,1.556-.346.95-.663,1.9-.98,2.851-.288.921-.576,1.872-.864,2.793-.029.116-.087.26-.115.375-.231.777-.432,1.526-.662,2.3C1719.588,499.908,1719.213,501.29,1718.9,502.673Z" transform="translate(-1715.207 -444.94)"/></g></g></svg>