<svg xmlns="http://www.w3.org/2000/svg" width="22.021" height="15.535" viewBox="0 0 22.021 15.535"><defs><style>.a{fill:rgba(255,255,255,0.6);}</style></defs><g transform="translate(0 0)"><g transform="translate(0 0)"><path class="a" d="M1.665,23.653H20.357a1.665,1.665,0,0,0,1.665-1.665V9.783a1.665,1.665,0,0,0-1.665-1.665H1.665A1.665,1.665,0,0,0,0,9.783V21.988A1.665,1.665,0,0,0,1.665,23.653Zm10.628-1.168H9.728V20.9h2.564ZM18.4,9.324h2.564v1.584H18.4ZM18.326,20.9H20.89v1.584H18.326ZM14.1,9.324h2.564v1.584H14.1ZM14.027,20.9h2.564v1.584H14.027ZM9.8,9.324h2.564v1.584H9.8Zm-.719,3.827,3.851,1.925c.894.447.894,1.172,0,1.618L9.085,18.621a1.029,1.029,0,0,1-1.619-1V14.152A1.029,1.029,0,0,1,9.085,13.151ZM5.506,9.324H8.07v1.584H5.506ZM5.43,20.9H7.994v1.584H5.43ZM1.207,9.324H3.771v1.584H1.207ZM1.131,20.9H3.7v1.584H1.131Z" transform="translate(0 -8.118)"/></g></g></svg>