<svg xmlns="http://www.w3.org/2000/svg" width="22.92" height="16.044" viewBox="0 0 22.92 16.044"><defs><style>.a{fill:rgba(255,255,255,0.6);}</style></defs><path class="a" d="M22.737,6.651a16.651,16.651,0,0,0-22.555,0,.569.569,0,0,0-.013.823L1.4,8.69a.582.582,0,0,0,.8.014,13.74,13.74,0,0,1,18.524,0,.582.582,0,0,0,.8-.014L22.75,7.474A.57.57,0,0,0,22.737,6.651ZM11.46,13.71A2.292,2.292,0,1,0,13.752,16,2.292,2.292,0,0,0,11.46,13.71Zm7.258-2.994a10.994,10.994,0,0,0-14.516,0,.566.566,0,0,0-.02.829l1.233,1.217a.585.585,0,0,0,.79.029,8.066,8.066,0,0,1,10.51,0,.584.584,0,0,0,.79-.029l1.233-1.217A.566.566,0,0,0,18.718,10.716Z" transform="translate(0 -2.25)"/></svg>