<svg xmlns="http://www.w3.org/2000/svg" width="19.274" height="17.271" viewBox="0 0 19.274 17.271"><defs><style>.a{fill:rgba(255,255,255,0.6);}.b{fill:#9cabc4;}.c{fill:#072c6b;}</style></defs><g transform="translate(0 0)"><path class="a" d="M10.312,33.7a3.425,3.425,0,0,0-.455.795,13.014,13.014,0,0,0-.608,1.355c-.3.836-.619,1.7-.863,2.553a27.76,27.76,0,0,0-.659,2.962,5.186,5.186,0,0,0,.43,2.787c.136.342.551.966.34,1.35-.066.12-.227.171-.3.3-.119.2-.031.4-.019.619.014.233-.09.323-.2.509a1.06,1.06,0,0,0-.113.658c.066.645.737.524,1.1.9a2.442,2.442,0,0,0,.47.487.911.911,0,0,0,.66.058,1.649,1.649,0,0,1,1.039-.005,5.55,5.55,0,0,0,1.14.486,7.754,7.754,0,0,0,1.966.111,4.972,4.972,0,0,1,1.016.02,4.8,4.8,0,0,0,1.3.1,15.7,15.7,0,0,1,2.6-.37,4.915,4.915,0,0,0,2.517-.4,3.85,3.85,0,0,1,1.135-.443,3.286,3.286,0,0,0,1.024-.2A2.226,2.226,0,0,0,24.979,46.7a2.839,2.839,0,0,1,.406-.918,1.261,1.261,0,0,0,.3-.835c-.012-.284-.131-.554-.012-.835.132-.312.425-.53.567-.842.256-.563-.234-.982-.321-1.532a4.665,4.665,0,0,1-.067-.872A1.624,1.624,0,0,0,25.8,40c-.2-.352-.852-.29-.915-.7-.066-.429.3-.818.371-1.225.069-.39-.131-.741-.126-1.126.006-.456.314-.834.354-1.284a1.262,1.262,0,0,0-.314-.854c-.16-.243-.214-.533-.35-.783a1.59,1.59,0,0,0-.745-.636c-.464-.2-.939.051-1.415.029s-.86-.4-1.36-.356c-.647.063-1.149.421-1.821.235a2.705,2.705,0,0,0-1.17-.069c-.347.06-.673.325-1.026.317-.4-.009-.746-.5-1.19-.441-.268.035-.422.335-.691.394-.226.05-.43-.125-.629-.21a.82.82,0,0,0-.937.157.962.962,0,0,1-.736.288C12.314,33.693,11.252,32.955,10.312,33.7Z" transform="translate(-7.386 -32.82)"/><g transform="translate(3.744 0.276)"><path class="b" d="M258.756,45a.828.828,0,0,1-.237-.449c-.065-.282-.169-.551-.241-.835a4.471,4.471,0,0,1,.149-2.317c.218-.643.625-1.205.8-1.849a9.692,9.692,0,0,1,.971-1.8c.572-1.094,1.144-2.177,1.724-3.265.128-.241.225-.5.514-.548.446-.074,1.162.156.858.68a52.736,52.736,0,0,0-2.457,4.969,11.647,11.647,0,0,0-.834,3.212,5.254,5.254,0,0,0-.039,1.4,5,5,0,0,1,.108.765c-.009.247-.058.216-.262.212a3.019,3.019,0,0,1-.913-.09A.459.459,0,0,1,258.756,45Z" transform="translate(-252.211 -33.926)"/><path class="b" d="M101.442,397.357a3.032,3.032,0,0,0-.523,1.4,1.85,1.85,0,0,0,.052.788c.1.361.081.4-.287.343a5.475,5.475,0,0,1-.949-.169c-.273-.1-.239-.3-.265-.569a3.378,3.378,0,0,1,.156-1.354c.076-.244.092-.4.363-.471a3.482,3.482,0,0,1,.7-.092C100.958,397.22,101.18,397.362,101.442,397.357Z" transform="translate(-99.456 -383.556)"/></g><path class="c" d="M18.946,37.4a1.209,1.209,0,0,0,.328-.7,1.554,1.554,0,0,0-.23-.763c-.17-.293-.492-.444-.475-.823.023-.506.267-1,.017-1.5a1.042,1.042,0,0,0-.858-.572,2.446,2.446,0,0,0,.169-.3,1.988,1.988,0,0,0,.152-1.689c-.067-.144-.142-.211-.112-.362a1.937,1.937,0,0,1,.2-.369,2.234,2.234,0,0,0,.266-.971,1.42,1.42,0,0,0-.228-.836c-.065-.088-.186-.139-.243-.225-.072-.109-.056-.288-.107-.416a1.827,1.827,0,0,0-1.349-1.061,2.067,2.067,0,0,0-.925.152c-.312.09-.744-.22-1.058-.3a2.254,2.254,0,0,0-.99-.042,4.423,4.423,0,0,1-1.149.235c-.712-.062-1.41-.378-2.115-.034-.27.132-.438.25-.74.106-.123-.059-.22-.161-.349-.21a1.168,1.168,0,0,0-.967.137,1.1,1.1,0,0,1-.191.117c-.157.029-.334-.106-.47-.167a1.247,1.247,0,0,0-.438-.115,1.251,1.251,0,0,0-.86.324c-.1.08-.227.255-.342.3-.174.074-.5-.115-.642-.177a1.91,1.91,0,0,0-.955-.2l-.046.007a2.237,2.237,0,0,0-1.066.075,1.509,1.509,0,0,0-.8.752c-.227.43-.465.847-.682,1.283a12.684,12.684,0,0,0-1.1,2.948C.357,33.055.168,34.125.044,35.186a4.981,4.981,0,0,0,.022,1.471,13.969,13.969,0,0,0,.5,1.558,2.578,2.578,0,0,0,.4.875.936.936,0,0,0-.294.181.812.812,0,0,0-.211.5,2.9,2.9,0,0,1-.112.768,1.783,1.783,0,0,0-.191.823c.055.413.324.59.666.755.46.222.676.771,1.171.924a1.514,1.514,0,0,0,.672,0,1.8,1.8,0,0,1,1.009.159,4.782,4.782,0,0,0,1.739.469,11.662,11.662,0,0,1,1.521-.09,7.568,7.568,0,0,0,1.7.287,14.6,14.6,0,0,0,1.7-.278,13.707,13.707,0,0,1,1.964,0,4.858,4.858,0,0,0,1.646-.329,7.262,7.262,0,0,0,.732-.364,2.957,2.957,0,0,1,1.121-.336,2.738,2.738,0,0,0,1.4-.4,1.765,1.765,0,0,0,.671-1.1c.032-.293-.083-.591.115-.842a6.877,6.877,0,0,0,.449-.531c.325-.506.152-.843.051-1.381a.443.443,0,0,1,.106-.478C18.722,37.682,18.836,37.549,18.946,37.4Zm-3.738-9.863c.265.085.412-.011.66-.1A1.027,1.027,0,0,1,17,27.71a1.273,1.273,0,0,1,.289.351,2.683,2.683,0,0,1,.063.353c.085.277.374.364.459.64a1.421,1.421,0,0,1-.192,1.049c-.107.209-.31.444-.308.693,0,.215.176.374.247.566a1.255,1.255,0,0,1-.073.906c-.228.555-.677,1.021-.655,1.645.005.145.014.151-.048.256-.038.064-.1.1-.133.173-.094.224.057.454-.012.7-.145.512-.763.627-.683,1.233A1.148,1.148,0,0,1,14.732,37.5a5.989,5.989,0,0,0-1.793.27,4.5,4.5,0,0,1-1.163.016,3.622,3.622,0,0,1-.2-1,5.923,5.923,0,0,1,.159-1.668,16.087,16.087,0,0,1,1-3.056c.375-.867.761-1.733,1.169-2.585.2-.413.393-.845.613-1.244.138-.251.31-.511.444-.775C15.044,27.483,15.125,27.515,15.208,27.541Zm-1.528-.375a1.787,1.787,0,0,1,.6.027,3.221,3.221,0,0,1,.571.208,6.4,6.4,0,0,0-.657.964c-.238.475-.493.94-.718,1.422-.464.994-.954,1.979-1.329,3.012a11.756,11.756,0,0,0-.869,3.364,4.319,4.319,0,0,0,.165,1.448c.013.044.025.091.039.139a10.287,10.287,0,0,0-1.106-.088h-.116a4.243,4.243,0,0,1-.29-2.716,15.866,15.866,0,0,1,1.154-2.924c.468-.919.925-1.85,1.461-2.731.26-.428.494-.873.733-1.313A3.387,3.387,0,0,0,13.679,27.166ZM3.007,42.386a3.94,3.94,0,0,1-.779.048c-.262-.066-.387-.326-.574-.505a1.874,1.874,0,0,0-.511-.345c-.254-.12-.429-.163-.341-.5a7.708,7.708,0,0,0,.243-.767c.038-.249-.065-.521.152-.7.076-.061.148-.11.215-.164.12.063.246.112.372.165a3.048,3.048,0,0,1,.747.556,2.824,2.824,0,0,0,1.381.611,2.636,2.636,0,0,0-.263,1.036,2.409,2.409,0,0,0,.034.7A2.3,2.3,0,0,0,3.007,42.386Zm1.048.284a2.17,2.17,0,0,1-.149-.777,2.986,2.986,0,0,1,.237-1.081A3.731,3.731,0,0,0,4.9,40.79a2.752,2.752,0,0,1,.639-.006,3.078,3.078,0,0,0-.517,1.58A1.69,1.69,0,0,0,5.1,43,5.135,5.135,0,0,1,4.055,42.671ZM17.8,37.951c-.078.4.287.777.2,1.168-.095.443-.636.639-.751,1.085s.058.823-.257,1.222a2.051,2.051,0,0,1-1.424.522,3.935,3.935,0,0,0-1.322.485,4.191,4.191,0,0,1-1.575.51,7.527,7.527,0,0,1-1.383-.029,7.442,7.442,0,0,0-1.635.159,5.755,5.755,0,0,1-1.423.148c-.5-.055-.975-.262-1.483-.3-.41-.033-.811.112-1.22.119a.114.114,0,0,0-.025-.017c-.346-.164-.182-1.058-.126-1.322a4.8,4.8,0,0,1,.347-.89c.287.046.569.124.879.2a3.249,3.249,0,0,0,1.438.047,17.132,17.132,0,0,1,1.7-.4c.59-.046,1.172.032,1.76.045a7.2,7.2,0,0,0,1.789-.256,14.65,14.65,0,0,1,1.865-.2c.1-.011.149-.177.027-.2a6.648,6.648,0,0,0-1.166-.168,8.788,8.788,0,0,0-1.411.175c-.984.152-1.949-.054-2.933.042-.911.089-1.766.621-2.7.438-.421-.083-.819-.254-1.246-.307a13.36,13.36,0,0,0-1.435.058,2.252,2.252,0,0,1-1.214-.4,7.946,7.946,0,0,0-1.062-.813,1.38,1.38,0,0,1-.861-1.013c-.145-.475-.366-.925-.475-1.412a8.491,8.491,0,0,1,.222-3.1,17.339,17.339,0,0,1,.651-2.746,15.229,15.229,0,0,1,.877-1.978,3.753,3.753,0,0,1,.549-.869,1.585,1.585,0,0,1,1.4-.557c.242.035.518.117.785.162.375.194.726.408,1.1.088.248-.213.493-.483.85-.426.3.047.527.319.838.306.255-.01.444-.222.678-.3.368-.118.568.2.884.308a.868.868,0,0,0,.7-.092,2.089,2.089,0,0,1,1.062-.235c.357.023.691.161,1.046.2a2.316,2.316,0,0,0,.9-.143l.114-.029a21.709,21.709,0,0,1-1.363,2.507c-.545.977-1.072,2-1.519,3.027a7.731,7.731,0,0,0-.851,2.821,4.375,4.375,0,0,0,.238,1.455,4.921,4.921,0,0,0,.229.625A12.5,12.5,0,0,1,7.768,37.6c-.408-.068-.814-.166-1.226-.21a4.118,4.118,0,0,0-.986.082c-.767.108-1.5.347-2.25.51a.1.1,0,0,0,.026.193c.756-.044,1.5-.146,2.262-.147a5.527,5.527,0,0,1,1.135.037c.422.083.844.171,1.27.225a23.219,23.219,0,0,0,2.536-.021,12.793,12.793,0,0,0,2.407.091,6.942,6.942,0,0,0,1.082-.247c.373-.124.7.03,1.072-.028A1.888,1.888,0,0,0,16.415,37a1.189,1.189,0,0,0,.13-.716c-.033-.2-.022-.183.114-.334.112-.124.235-.244.336-.376a1.221,1.221,0,0,0,.237-.726,1.011,1.011,0,0,0,0-.286.773.773,0,0,0,.07-.085c.172-.223.063-.475.092-.729a1.133,1.133,0,0,1,.154-.414.85.85,0,0,1,.628.979c-.047.414-.285.858-.115,1.267.152.367.759.742.56,1.207C18.439,37.227,17.9,37.452,17.8,37.951Z" transform="translate(0 -26.595)"/></g></svg>