<svg xmlns="http://www.w3.org/2000/svg" width="14.96" height="15.747" viewBox="0 0 14.96 15.747"><defs><style>.a{fill:rgba(255,255,255,0.6);}</style></defs><g transform="translate(0)"><g transform="translate(0)"><path class="a" d="M27.5,2.625h-.525V.787a.787.787,0,1,0-1.575,0V2.625h-1.05V.787a.787.787,0,0,0-1.575,0V2.625h-.525a.263.263,0,0,0-.262.262v1.05a.263.263,0,0,0,.262.262h.262V6.3a1.051,1.051,0,0,0,1.05,1.05h.525v.262a.786.786,0,0,0,.525.739v5.56a1.05,1.05,0,1,1-2.1,0V8.136a2.1,2.1,0,0,0-1.837-2.082v-4A1.007,1.007,0,0,0,19.668,1.05H18.574V.262A.263.263,0,0,0,18.312,0H15.162A.263.263,0,0,0,14.9.262V1.05H13.805A1.007,1.007,0,0,0,12.8,2.055V14.742a1.007,1.007,0,0,0,1.005,1.005h5.863a1.007,1.007,0,0,0,1.005-1.005V6.585a1.576,1.576,0,0,1,1.312,1.551V13.91a1.575,1.575,0,0,0,3.149,0V8.35a.786.786,0,0,0,.525-.739V7.349h.525a1.051,1.051,0,0,0,1.05-1.05V4.2H27.5a.263.263,0,0,0,.262-.262V2.887A.263.263,0,0,0,27.5,2.625ZM19.039,8.041,15.365,12.5a.263.263,0,0,1-.456-.235l.962-3.607H14.637a.262.262,0,0,1-.2-.429L18.109,3.77A.263.263,0,0,1,18.565,4L17.6,7.611h1.233a.262.262,0,0,1,.2.429Zm6.1-.429a.262.262,0,1,1-.525,0V7.349h.525v.262Zm2.1-3.937H22.511V3.149h4.724Z" transform="translate(-12.8)"/></g><g transform="translate(2.393 5.035)"><path class="a" d="M91.148,169.915l2.554-3.1H92.683a.262.262,0,0,1-.254-.33l.739-2.771-2.554,3.1h1.019a.263.263,0,0,1,.254.33Z" transform="translate(-90.615 -163.713)"/></g></g></svg>