<svg xmlns="http://www.w3.org/2000/svg" width="21.72" height="16.29" viewBox="0 0 21.72 16.29"><defs><style>.a{fill:rgba(255,255,255,0.6);}</style></defs><g transform="translate(0 0)"><g transform="translate(0 0)"><path class="a" d="M21.492,71.3,9.22,64.288A2.128,2.128,0,0,0,8.145,64a2.237,2.237,0,0,0-1.791.93l-2.377,3.4a1.973,1.973,0,0,0,.63,2.84l2.588,1.493-.468.623a1.92,1.92,0,0,0,.022,2.355l-.689,1.034H2.715V75.313a.452.452,0,0,0-.453-.452H.453A.452.452,0,0,0,0,75.313v4.525a.452.452,0,0,0,.453.453h1.81a.452.452,0,0,0,.453-.453v-.451H6.061A2.71,2.71,0,0,0,8.32,78.177l.742-1.113a2.052,2.052,0,0,0,.434.059,2.072,2.072,0,0,0,1.768-1l.5-.829,3.851,2.222a.452.452,0,0,0,.631-.19l.335-.671c.055,0,.108.016.164.016A3.171,3.171,0,0,0,19.91,73.5a2.918,2.918,0,0,0-.07-.591l1.63-.815a.452.452,0,0,0,.022-.8Zm-6.559,3.56a.453.453,0,1,1,.453-.453A.453.453,0,0,1,14.932,74.86Z" transform="translate(0 -64)"/></g></g></svg>