<svg xmlns="http://www.w3.org/2000/svg" width="14.694" height="11.478" viewBox="0 0 14.694 11.478">
  <g id="arrow" transform="translate(-4 0)">
    <path id="Path_126" data-name="Path 126" d="M18.222,21.179a.746.746,0,0,1-.3.36l-3.291,2.518a.429.429,0,0,1-.715-.333V22.411h-8.1a.8.8,0,0,1-.211-.035.439.439,0,0,1-.3-.439q0-.878,0-1.755a.439.439,0,0,1,.439-.439h8.17V18.533a.5.5,0,0,1,.347-.553h.18a1.957,1.957,0,0,1,.228.136l3.278,2.51a.684.684,0,0,1,.276.342Z" transform="translate(0.468 -17.98)" fill="#0e204b"/>
    <path id="Path_127" data-name="Path 127" d="M1.26,33.058a.663.663,0,0,1,.268-.342q1.659-1.264,3.308-2.536a.412.412,0,0,1,.474-.061.439.439,0,0,1,.246.412v1.316h8.1a1.207,1.207,0,0,1,.18,0,.439.439,0,0,1,.329.4v1.8a.439.439,0,0,1-.439.439H5.555v1.229a.439.439,0,0,1-.351.527H5.042a1.992,1.992,0,0,1-.233-.132L1.532,33.584a.645.645,0,0,1-.272-.347Z" transform="translate(2.74 -24.766)" fill="#0e204b"/>
  </g>
</svg>
