<svg xmlns="http://www.w3.org/2000/svg" width="70.975" height="63.601" viewBox="0 0 70.975 63.601"><defs><style>.a{fill:#efc003;}.b{fill:#fff;}</style></defs><path class="a" d="M17.387,35.392a12.614,12.614,0,0,0-1.676,2.926,47.924,47.924,0,0,0-2.238,4.988c-1.1,3.079-2.281,6.263-3.178,9.4A102.228,102.228,0,0,0,7.868,63.615c-.6,3.509.286,7,1.583,10.262.5,1.258,2.029,3.559,1.254,4.97-.243.442-.838.63-1.1,1.09-.436.754-.115,1.491-.069,2.279.05.857-.33,1.189-.736,1.873a3.9,3.9,0,0,0-.417,2.422c.243,2.375,2.712,1.928,4.058,3.328a8.994,8.994,0,0,0,1.732,1.793,3.354,3.354,0,0,0,2.431.212c1.463-.212,2.445-.633,3.828-.019a20.438,20.438,0,0,0,4.2,1.791,28.554,28.554,0,0,0,7.238.408A18.307,18.307,0,0,1,35.6,94.1a17.668,17.668,0,0,0,4.771.378c3.152-.364,6.393-1.542,9.574-1.364a18.1,18.1,0,0,0,9.267-1.477A14.176,14.176,0,0,1,63.4,90a12.1,12.1,0,0,0,3.771-.731c2.568-1.181,3.495-3.408,4.228-6.006a10.453,10.453,0,0,1,1.494-3.379,4.643,4.643,0,0,0,1.123-3.075c-.043-1.045-.482-2.039-.045-3.075.485-1.15,1.567-1.952,2.088-3.1.942-2.075-.862-3.618-1.182-5.641a17.178,17.178,0,0,1-.246-3.212c.028-1.012.317-2.237-.222-3.165-.752-1.295-3.136-1.069-3.369-2.579-.243-1.58,1.1-3.012,1.365-4.51.253-1.437-.483-2.729-.465-4.148.021-1.678,1.157-3.07,1.3-4.728a4.646,4.646,0,0,0-1.158-3.146c-.588-.9-.789-1.962-1.288-2.882a5.856,5.856,0,0,0-2.745-2.341c-1.708-.745-3.457.189-5.209.107-1.768-.083-3.166-1.489-5.008-1.311-2.384.231-4.232,1.55-6.706.866a9.962,9.962,0,0,0-4.31-.254c-1.278.222-2.478,1.2-3.78,1.166-1.455-.033-2.748-1.839-4.381-1.625-.986.129-1.552,1.232-2.544,1.452-.834.185-1.583-.461-2.317-.774a3.019,3.019,0,0,0-3.449.579,3.542,3.542,0,0,1-2.712,1.06C24.758,35.381,20.847,32.664,17.387,35.392Z" transform="translate(-6.611 -32.167)"/><g transform="translate(13.787 1.016)"><path class="a" d="M260.285,74.721a3.05,3.05,0,0,1-.872-1.654c-.24-1.039-.621-2.028-.888-3.073a16.463,16.463,0,0,1,.549-8.532c.8-2.368,2.3-4.438,2.955-6.808.67-2.431,2.424-4.436,3.576-6.638,2.106-4.028,4.214-8.015,6.349-12.023.472-.886.828-1.841,1.892-2.017,1.642-.272,4.28.574,3.16,2.505a194.212,194.212,0,0,0-9.046,18.3,42.889,42.889,0,0,0-3.07,11.828,19.352,19.352,0,0,0-.142,5.158,18.408,18.408,0,0,1,.4,2.815c-.034.911-.212.8-.964.781a11.118,11.118,0,0,1-3.36-.333A1.689,1.689,0,0,1,260.285,74.721Z" transform="translate(-236.182 -33.926)"/><path class="a" d="M106.768,397.691a11.165,11.165,0,0,0-1.926,5.158,6.814,6.814,0,0,0,.193,2.9c.385,1.329.3,1.478-1.056,1.262a20.161,20.161,0,0,1-3.493-.624c-1.005-.352-.88-1.093-.977-2.094a12.439,12.439,0,0,1,.576-4.987c.281-.9.341-1.466,1.335-1.733a12.817,12.817,0,0,1,2.582-.34C104.986,397.186,105.8,397.709,106.768,397.691Z" transform="translate(-99.456 -346.87)"/></g><path class="b" d="M69.767,66.4a4.451,4.451,0,0,0,1.208-2.562,5.722,5.722,0,0,0-.847-2.808C69.5,59.951,68.316,59.4,68.378,58c.083-1.863.983-3.7.061-5.526a3.839,3.839,0,0,0-3.16-2.105,9.01,9.01,0,0,0,.621-1.111c.885-2,1.539-4.111.561-6.221-.246-.531-.522-.778-.413-1.332a7.134,7.134,0,0,1,.738-1.358,8.228,8.228,0,0,0,.978-3.574,5.23,5.23,0,0,0-.84-3.079c-.241-.325-.685-.512-.894-.827-.266-.4-.206-1.062-.394-1.533a6.73,6.73,0,0,0-4.968-3.907,7.611,7.611,0,0,0-3.406.558c-1.148.33-2.741-.81-3.9-1.1a8.3,8.3,0,0,0-3.646-.154c-1.393.261-2.8.989-4.233.866-2.622-.227-5.191-1.392-7.789-.125-.993.484-1.613.919-2.724.389-.451-.216-.81-.591-1.287-.775a4.3,4.3,0,0,0-3.563.506,4.068,4.068,0,0,1-.7.43c-.578.108-1.23-.392-1.731-.616a4.593,4.593,0,0,0-1.615-.423,4.606,4.606,0,0,0-3.167,1.192c-.376.293-.837.94-1.261,1.119-.64.271-1.829-.424-2.363-.651a7.034,7.034,0,0,0-3.515-.751c-.056.006-.112.017-.168.024a8.238,8.238,0,0,0-3.926.274,5.555,5.555,0,0,0-2.94,2.771c-.835,1.585-1.713,3.118-2.51,4.724A46.708,46.708,0,0,0,2.16,46.539c-.844,3.844-1.543,7.784-2,11.694a18.341,18.341,0,0,0,.081,5.419A51.437,51.437,0,0,0,2.1,69.389a9.492,9.492,0,0,0,1.481,3.223A3.448,3.448,0,0,0,2.5,73.28a2.99,2.99,0,0,0-.779,1.846,10.661,10.661,0,0,1-.413,2.829,6.565,6.565,0,0,0-.7,3.03c.2,1.521,1.194,2.172,2.451,2.78,1.693.819,2.49,2.839,4.313,3.4a5.577,5.577,0,0,0,2.476-.016,6.616,6.616,0,0,1,3.714.585,17.61,17.61,0,0,0,6.4,1.726c1.894.08,3.708-.657,5.6-.332,2.113.363,4.079,1.172,6.266,1.056A53.757,53.757,0,0,0,38.1,89.162c2.444-.428,4.778.066,7.231-.016A17.888,17.888,0,0,0,51.4,87.934a26.74,26.74,0,0,0,2.7-1.341,10.889,10.889,0,0,1,4.126-1.238c1.782-.217,3.686-.349,5.158-1.486a6.5,6.5,0,0,0,2.472-4.043c.117-1.08-.307-2.176.424-3.1a25.323,25.323,0,0,0,1.653-1.956c1.2-1.863.561-3.1.186-5.085a1.63,1.63,0,0,1,.39-1.759C68.943,67.424,69.364,66.934,69.767,66.4ZM56,30.08c.976.312,1.517-.04,2.43-.359a3.782,3.782,0,0,1,4.152.98,4.687,4.687,0,0,1,1.065,1.292,9.879,9.879,0,0,1,.232,1.3c.313,1.018,1.378,1.342,1.689,2.356a5.233,5.233,0,0,1-.708,3.864c-.393.769-1.143,1.635-1.134,2.551.008.792.649,1.378.909,2.085a4.62,4.62,0,0,1-.268,3.337c-.839,2.045-2.492,3.759-2.411,6.058.019.534.053.556-.177.944-.14.236-.369.351-.489.636-.347.825.209,1.673-.043,2.56-.535,1.886-2.81,2.31-2.516,4.539a4.226,4.226,0,0,1-4.481,4.514c-2.31-.3-4.328.618-6.6.993a16.559,16.559,0,0,1-4.284.058,13.339,13.339,0,0,1-.73-3.69,21.811,21.811,0,0,1,.586-6.142A59.241,59.241,0,0,1,46.906,46.7c1.383-3.192,2.8-6.383,4.3-9.52.727-1.519,1.447-3.112,2.259-4.583.51-.924,1.143-1.881,1.636-2.855C55.4,29.866,55.7,29.982,56,30.08ZM50.373,28.7a6.581,6.581,0,0,1,2.2.1,11.862,11.862,0,0,1,2.1.765,23.576,23.576,0,0,0-2.42,3.551c-.876,1.751-1.816,3.462-2.644,5.238C47.91,42.013,46.1,45.64,44.725,49.444c-1.439,3.973-2.994,8.118-3.2,12.389a15.905,15.905,0,0,0,.608,5.331c.048.163.093.336.143.511a37.884,37.884,0,0,0-4.074-.324h-.428a15.624,15.624,0,0,1-1.069-10,58.425,58.425,0,0,1,4.25-10.768c1.723-3.384,3.407-6.813,5.381-10.057.959-1.576,1.819-3.213,2.7-4.834A12.473,12.473,0,0,0,50.373,28.7Zm-39.3,56.049c-.935-.035-1.972.4-2.87.177-.963-.245-1.426-1.2-2.113-1.86a6.9,6.9,0,0,0-1.882-1.272c-.936-.44-1.579-.6-1.255-1.846a28.384,28.384,0,0,0,.895-2.824c.141-.918-.239-1.918.561-2.565.279-.225.544-.4.793-.605.441.232.906.413,1.371.606A11.224,11.224,0,0,1,9.325,76.6a10.4,10.4,0,0,0,5.084,2.251,9.707,9.707,0,0,0-.969,3.814,8.872,8.872,0,0,0,.126,2.589A8.463,8.463,0,0,0,11.073,84.747Zm3.86,1.046a7.989,7.989,0,0,1-.55-2.863,11,11,0,0,1,.872-3.98,13.739,13.739,0,0,0,2.778-.083,10.133,10.133,0,0,1,2.354-.023,11.334,11.334,0,0,0-1.906,5.819,6.222,6.222,0,0,0,.288,2.342A18.908,18.908,0,0,1,14.934,85.793ZM65.56,68.413c-.288,1.489,1.058,2.86.75,4.3-.348,1.632-2.342,2.354-2.765,4s.213,3.031-.947,4.5c-1.25,1.583-3.4,1.639-5.244,1.921a14.49,14.49,0,0,0-4.87,1.787,15.432,15.432,0,0,1-5.8,1.877,27.718,27.718,0,0,1-5.094-.107,27.4,27.4,0,0,0-6.021.587,21.2,21.2,0,0,1-5.241.544c-1.854-.2-3.59-.964-5.459-1.114-1.509-.121-2.988.413-4.493.44a.418.418,0,0,0-.093-.062c-1.273-.605-.669-3.9-.465-4.87a17.663,17.663,0,0,1,1.277-3.276c1.058.169,2.1.457,3.237.748a11.965,11.965,0,0,0,5.3.173c2.1-.383,4.112-1.308,6.256-1.475,2.172-.17,4.317.118,6.48.165a26.512,26.512,0,0,0,6.589-.943,53.948,53.948,0,0,1,6.867-.745c.381-.041.549-.651.1-.733a24.481,24.481,0,0,0-4.294-.62,32.364,32.364,0,0,0-5.2.644c-3.624.558-7.176-.2-10.8.155-3.355.327-6.5,2.286-9.941,1.611-1.552-.3-3.015-.937-4.59-1.13-1.8-.221-3.5.244-5.285.213a8.3,8.3,0,0,1-4.469-1.484c-1.434-.942-2.3-2.266-3.911-2.993a5.083,5.083,0,0,1-3.171-3.73c-.535-1.748-1.349-3.407-1.748-5.2-.827-3.714.232-7.745.818-11.428a63.85,63.85,0,0,1,2.4-10.112,56.081,56.081,0,0,1,3.229-7.285,13.82,13.82,0,0,1,2.02-3.2,5.837,5.837,0,0,1,5.139-2.05c.892.13,1.907.429,2.89.6,1.382.715,2.674,1.5,4.047.325.914-.784,1.816-1.778,3.131-1.569,1.089.173,1.939,1.174,3.085,1.127.938-.038,1.637-.816,2.5-1.091,1.356-.433,2.093.72,3.255,1.134a3.2,3.2,0,0,0,2.572-.339,7.694,7.694,0,0,1,3.912-.864c1.314.084,2.544.592,3.851.728a8.529,8.529,0,0,0,3.3-.528c.141-.039.281-.074.421-.109-1.286,3.252-3.321,6.184-5.02,9.231-2.008,3.6-3.948,7.37-5.594,11.149-1.406,3.227-3.075,6.807-3.134,10.389a16.112,16.112,0,0,0,.876,5.358,18.123,18.123,0,0,0,.843,2.3,46.033,46.033,0,0,1-8.443-.229c-1.5-.249-3-.611-4.516-.774a15.166,15.166,0,0,0-3.631.3c-2.823.4-5.52,1.278-8.287,1.877a.363.363,0,0,0,.1.709c2.783-.162,5.524-.539,8.328-.542a20.352,20.352,0,0,1,4.18.138c1.553.305,3.107.629,4.678.828,3.123.4,6.207-.133,9.34-.077,3.038.054,5.812.84,8.865.336a25.565,25.565,0,0,0,3.985-.91c1.373-.456,2.568.11,3.948-.1a6.953,6.953,0,0,0,4.859-4.012,4.38,4.38,0,0,0,.478-2.636c-.122-.741-.082-.675.419-1.232.411-.457.864-.9,1.239-1.385a4.5,4.5,0,0,0,.873-2.673,3.724,3.724,0,0,0,.017-1.052,2.849,2.849,0,0,0,.259-.314c.633-.823.231-1.749.34-2.685a4.173,4.173,0,0,1,.569-1.523,3.13,3.13,0,0,1,2.312,3.6c-.172,1.524-1.048,3.161-.424,4.665.561,1.351,2.8,2.732,2.064,4.444C67.9,65.747,65.915,66.575,65.56,68.413Z" transform="translate(0 -26.595)"/></svg>