<svg xmlns="http://www.w3.org/2000/svg" width="24.005" height="24.005" viewBox="0 0 24.005 24.005">
  <path id="booking-history" d="M24.568,12.542A12,12,0,0,1,5.032,21.91a1.161,1.161,0,0,1-.089-1.723l.545-.545a1.164,1.164,0,0,1,1.543-.1A8.906,8.906,0,1,0,6.464,6.077L8.92,8.533a.774.774,0,0,1-.548,1.322H1.337A.774.774,0,0,1,.563,9.08V2.045A.774.774,0,0,1,1.884,1.5L4.274,3.887a12,12,0,0,1,20.294,8.656Zm-8.756,3.813.475-.611a1.162,1.162,0,0,0-.2-1.63l-1.97-1.532V7.532A1.162,1.162,0,0,0,12.952,6.37h-.774a1.162,1.162,0,0,0-1.162,1.162V14.1l3.166,2.462a1.162,1.162,0,0,0,1.63-.2Z" transform="translate(-0.563 -0.563)" fill="#707070"/>
</svg>
