<svg xmlns="http://www.w3.org/2000/svg" width="81.522" height="38.051" viewBox="0 0 81.522 38.051"><defs><style>.a{fill:#efc003;}</style></defs><path class="a" d="M80.911,4.006l-4.2-9.266a9.288,9.288,0,0,0-8.424-5.408H8.057A8.066,8.066,0,0,0,0-2.61V17.525a4.416,4.416,0,0,0,4.416,4.416h6.59a6.794,6.794,0,0,0,13.315,0H57.2a6.793,6.793,0,0,0,13.315,0h7.229a3.783,3.783,0,0,0,3.628-2.717,3.911,3.911,0,0,0,.149-1.059V6.819a6.794,6.794,0,0,0-.611-2.813ZM6.793,5.636A1.359,1.359,0,0,1,5.435,4.278V-6.592A1.359,1.359,0,0,1,6.793-7.951H16.3a1.359,1.359,0,0,1,1.359,1.359V4.278A1.359,1.359,0,0,1,16.3,5.636Zm10.87,19.022a4.076,4.076,0,1,1,4.076-4.076A4.076,4.076,0,0,1,17.663,24.658ZM32.609,4.278A1.359,1.359,0,0,1,31.25,5.636H21.739a1.359,1.359,0,0,1-1.359-1.359V-6.592a1.359,1.359,0,0,1,1.359-1.359H31.25a1.359,1.359,0,0,1,1.359,1.359Zm14.946,0A1.359,1.359,0,0,1,46.2,5.636H36.685a1.359,1.359,0,0,1-1.359-1.359V-6.592a1.359,1.359,0,0,1,1.359-1.359H46.2a1.359,1.359,0,0,1,1.359,1.359Zm4.076,1.359a1.359,1.359,0,0,1-1.359-1.359V-6.592a1.359,1.359,0,0,1,1.359-1.359h9.511A1.359,1.359,0,0,1,62.5-6.592V4.278a1.359,1.359,0,0,1-1.359,1.359ZM63.859,24.658a4.076,4.076,0,1,1,4.076-4.076A4.076,4.076,0,0,1,63.859,24.658ZM66.468,5.636a1.372,1.372,0,0,1-1.25-1.359V-6.6a1.347,1.347,0,0,1,1.347-1.347h1.723A6.575,6.575,0,0,1,74.24-4.132l4.2,9.266a3.965,3.965,0,0,1,.353,1.535Zm0,0" transform="translate(0 10.668)"/></svg>