<svg xmlns="http://www.w3.org/2000/svg" width="141.421" height="141.421" viewBox="0 0 141.421 141.421"><defs><style>.a{fill:#efc003;}.b{fill:#072c6b;}</style></defs><g transform="translate(-650 -2018.336)"><rect class="a" width="100" height="100" transform="translate(720.711 2018.336) rotate(45)"/><g transform="translate(696.961 2064.962)"><g transform="translate(0 14.022)"><path class="b" d="M5.008,157.346v-6.01a1,1,0,0,0,0-2A5.014,5.014,0,0,0,0,154.341v2a3.008,3.008,0,0,0,3,3h2a1,1,0,1,0,0-2Z" transform="translate(0 -149.333)"/></g><g transform="translate(42.067 14.022)"><path class="b" d="M449,149.333a1,1,0,1,0,0,2v6.01a1,1,0,1,0,0,2h2a3.008,3.008,0,0,0,3-3v-2A5.014,5.014,0,0,0,449,149.333Z" transform="translate(-448 -149.333)"/></g><g transform="translate(8.013 42.067)"><path class="b" d="M94.346,448a1,1,0,0,0-1,1h-6.01a1,1,0,1,0-2,0v2a3.008,3.008,0,0,0,3,3h4.007a3.008,3.008,0,0,0,3-3v-2A1,1,0,0,0,94.346,448Z" transform="translate(-85.332 -448)"/></g><g transform="translate(30.048 42.067)"><path class="b" d="M329.014,448a1,1,0,0,0-1,1H322a1,1,0,1,0-2,0v2a3.008,3.008,0,0,0,3,3h4.006a3.008,3.008,0,0,0,3-3v-2A1,1,0,0,0,329.014,448Z" transform="translate(-320 -448)"/></g><g transform="translate(4.006)"><path class="b" d="M77.723,0H47.675a5.014,5.014,0,0,0-5.008,5.008V39.062a5.014,5.014,0,0,0,5.008,5.008H77.723a5.014,5.014,0,0,0,5.008-5.008V5.008A5.014,5.014,0,0,0,77.723,0ZM51.681,4.006H73.717a3,3,0,0,1,0,6.01H51.681a3,3,0,0,1,0-6.01Zm0,34.054a3,3,0,1,1,3-3A3.008,3.008,0,0,1,51.681,38.061Zm22.035,0a3,3,0,1,1,3-3A3.008,3.008,0,0,1,73.716,38.061ZM78.724,25.04a3.008,3.008,0,0,1-3,3H49.678a3.008,3.008,0,0,1-3-3V15.024a3.008,3.008,0,0,1,3-3H75.72a3.008,3.008,0,0,1,3,3V25.04Z" transform="translate(-42.667)"/></g></g></g></svg>