<svg id="Layer_1" data-name="Layer 1" xmlns="http://www.w3.org/2000/svg" viewBox="0 0 50.04 50.06"><defs><style>.cls-1{fill:#efc003;}</style></defs><path class="cls-1" d="M12.74,20.54A30.3,30.3,0,0,0,31.08,38.87c.37-1,.67-1.92,1.06-2.82s.37-.74,1.21-.61l15.1,2.38c.66.11,1.32.23,2,.31.3,0,.39.17.45.45a10,10,0,0,1-7.74,11.76,19.09,19.09,0,0,1-5.39.07,38.18,38.18,0,0,1-13.66-3.66A39.67,39.67,0,0,1,2.76,22.09,37.86,37.86,0,0,1,1.05,10.6,10,10,0,0,1,11.66.53c1.68.08,1.71.08,2,1.71.87,5.45,1.72,10.9,2.6,16.35a.55.55,0,0,1-.36.7Z" transform="translate(-1.05 -0.51)"/></svg>