<svg xmlns="http://www.w3.org/2000/svg" width="68.024" height="51.018" viewBox="0 0 68.024 51.018"><defs><style>.a{fill:#efc003;}</style></defs><g transform="translate(0 0)"><path class="a" d="M67.31,86.862,28.876,64.9a6.666,6.666,0,0,0-3.367-.9A7.005,7.005,0,0,0,19.9,66.912L12.454,77.547a6.18,6.18,0,0,0,1.973,8.9l8.106,4.677-1.464,1.952a6.013,6.013,0,0,0,.07,7.376l-2.157,3.237H8.5V99.43a1.416,1.416,0,0,0-1.417-1.417H1.417A1.416,1.416,0,0,0,0,99.43V113.6a1.416,1.416,0,0,0,1.417,1.417H7.086A1.416,1.416,0,0,0,8.5,113.6v-1.413H18.982a8.486,8.486,0,0,0,7.075-3.786l2.323-3.485a6.424,6.424,0,0,0,1.36.185,6.49,6.49,0,0,0,5.539-3.136l1.557-2.6L48.9,106.33a1.417,1.417,0,0,0,1.976-.594l1.049-2.1c.172.013.338.05.513.05a9.932,9.932,0,0,0,9.92-9.92,9.14,9.14,0,0,0-.221-1.852L67.24,89.36a1.417,1.417,0,0,0,.069-2.5ZM46.766,98.012A1.417,1.417,0,1,1,48.183,96.6,1.417,1.417,0,0,1,46.766,98.012Z" transform="translate(0 -64)"/></g></svg>