<svg xmlns="http://www.w3.org/2000/svg" width="51.84" height="54.569" viewBox="0 0 51.84 54.569"><defs><style>.a{fill:#efc003;}</style></defs><g transform="translate(0)"><path class="a" d="M63.731,9.095H61.912V2.728a2.728,2.728,0,1,0-5.457,0V9.095H52.817V2.728a2.728,2.728,0,1,0-5.457,0V9.095H45.541a.91.91,0,0,0-.909.909v3.638a.91.91,0,0,0,.909.909h.909v7.277a3.641,3.641,0,0,0,3.637,3.637h1.82v.909a2.724,2.724,0,0,0,1.819,2.561V48.2a3.638,3.638,0,1,1-7.276,0V28.194a7.283,7.283,0,0,0-6.366-7.213V7.122A3.489,3.489,0,0,0,36.6,3.638H32.809V.91A.91.91,0,0,0,31.9,0H20.985a.91.91,0,0,0-.909.909V3.638H16.284A3.489,3.489,0,0,0,12.8,7.122V51.084a3.488,3.488,0,0,0,3.484,3.484H36.6a3.489,3.489,0,0,0,3.484-3.484V22.819a5.461,5.461,0,0,1,4.547,5.375V48.2a5.457,5.457,0,1,0,10.914,0V28.936a2.723,2.723,0,0,0,1.819-2.561v-.909h1.82a3.641,3.641,0,0,0,3.637-3.637V14.552h.909a.91.91,0,0,0,.909-.909V10A.91.91,0,0,0,63.731,9.095ZM34.42,27.863,21.687,43.324a.91.91,0,0,1-1.581-.813l3.333-12.5H19.167a.909.909,0,0,1-.7-1.487L31.2,13.065a.91.91,0,0,1,1.581.813l-3.333,12.5h4.273a.909.909,0,0,1,.7,1.487Zm21.125-1.488a.909.909,0,1,1-1.819,0v-.909h1.819v.909Zm7.276-13.642H46.451V10.914H62.821Z" transform="translate(-12.8)"/></g><g transform="translate(8.293 17.448)"><path class="a" d="M92.463,185.2l8.849-10.745h-3.53a.909.909,0,0,1-.878-1.144l2.56-9.6-8.849,10.745h3.53a.91.91,0,0,1,.879,1.144Z" transform="translate(-90.615 -163.713)"/></g></svg>