<svg xmlns="http://www.w3.org/2000/svg" width="825.999" height="168" viewBox="0 0 825.999 168">
  <g id="earned" transform="translate(-727 -325)">
    <g id="Group_74" data-name="Group 74" transform="translate(727.13 324.953)">
      <g id="Ellipse_8" data-name="Ellipse 8" transform="translate(-0.13 0.047)" fill="none" stroke="#fff4c8" stroke-width="7">
        <circle cx="84" cy="84" r="84" stroke="none"/>
        <circle cx="84" cy="84" r="80.5" fill="none"/>
      </g>
      <g id="website" transform="translate(32.819 39.222)">
        <path id="Path_39" data-name="Path 39" d="M104.485,92.62c0,.319-.319.957-.319,1.276A7.583,7.583,0,0,1,97.151,99H85.989A1.506,1.506,0,0,1,84.395,97.4c0-.957.638-1.594,1.913-1.594H96.832a4.519,4.519,0,0,0,4.783-4.783V86.242c-32.209.319-64.1.319-95.988.319a38.434,38.434,0,0,0,0,6.059,4.414,4.414,0,0,0,4.146,3.508H79.93c.957.319,1.276.638,1.276,1.594A1.168,1.168,0,0,1,79.93,99H63.666c.638,3.827.957,7.654,1.594,11.48h4.783c1.276,0,1.913.638,1.913,1.276,0,.957-.638,1.594-1.913,1.594H35.922c-1.276,0-1.913-.638-1.913-1.594s.638-1.594,1.913-1.594h4.783c.638-3.827.957-7.654,1.594-11.48H11.048C5.627,98.679,3.713,97.4,1.8,92.3V29.159C3.076,24.694,5.627,23.1,10.091,23.1H56.969c1.594,0,2.232.638,2.232,1.594s-.638,1.594-2.232,1.594H9.772c-3.189,0-5.1,1.913-5.1,5.1V83.053H12V37.769c0-3.508,1.913-5.1,5.1-5.1H88.221c3.508,0,5.1,1.913,5.1,5.421V83.372h7.335V32.029c0-3.508-1.594-5.421-5.421-5.421H63.666c-1.276,0-1.913-.638-1.913-1.594a1.506,1.506,0,0,1,1.594-1.594H95.875a7.467,7.467,0,0,1,7.016,5.421c0,.319.319.638.319.957C104.485,50.844,104.485,71.572,104.485,92.62ZM15.513,83.372h7.335V76.994c0-1.276.638-1.594,1.594-1.594H49.635c1.276,0,1.594.638,1.594,1.594v6.378h4.146V77.313c0-1.594.319-2.232,2.232-2.232H82.162a1.691,1.691,0,0,1,1.913,1.913v6.059H91.41v-35.4H15.832C15.513,59.773,15.513,71.254,15.513,83.372Zm75.9-38.587V38.407c0-2.232-.319-2.551-2.551-2.551H17.107a1.372,1.372,0,0,0-1.276,1.276v7.335C41.024,44.785,65.9,44.785,91.41,44.785ZM61.115,99H45.808c-.638,3.827-.957,7.654-1.594,11.48H62.391C62.072,106.651,61.434,102.825,61.115,99ZM26.036,83.372H48.359v-5.1H26.036Zm54.85-5.1H58.564v5.1H80.887Z" transform="translate(-1.8 -23.1)" fill="#fff"/>
        <path id="Path_40" data-name="Path 40" d="M66.439,35.17H11.589V48.245h8.929c1.276,0,1.913.638,1.913,1.594s-.638,1.594-1.913,1.594h-10.2A1.691,1.691,0,0,1,8.4,49.52V34.213A1.691,1.691,0,0,1,10.313,32.3H67.4c1.594,0,1.913.638,1.913,1.913V49.52A1.691,1.691,0,0,1,67.4,51.434H26.9c-1.276,0-1.913-.638-1.913-1.594s.638-1.594,1.913-1.594H66.121C66.439,44.1,66.439,39.635,66.439,35.17Z" transform="translate(12.647 -2.961)" fill="#ffcc01"/>
        <path id="Path_41" data-name="Path 41" d="M14.032,32.265A2.18,2.18,0,0,1,11.8,30.032,2.275,2.275,0,0,1,14.351,27.8a2.18,2.18,0,0,1,2.232,2.232A2.465,2.465,0,0,1,14.032,32.265Z" transform="translate(20.09 -12.812)" fill="#ffcc01"/>
        <path id="Path_42" data-name="Path 42" d="M13.965,30.066a2.232,2.232,0,1,1-2.232-2.232C13.008,27.515,13.965,28.791,13.965,30.066Z" transform="translate(15.055 -12.846)" fill="#ffcc01"/>
        <path id="Path_43" data-name="Path 43" d="M11.665,30.032a2.18,2.18,0,0,1-2.232,2.232,2.232,2.232,0,0,1,0-4.465A2.18,2.18,0,0,1,11.665,30.032Z" transform="translate(10.02 -12.812)" fill="#ffcc01"/>
      </g>
    </g>
    <g id="Group_73" data-name="Group 73" transform="translate(1055.751 324.953)">
      <g id="Ellipse_9" data-name="Ellipse 9" transform="translate(0.249 0.047)" fill="none" stroke="#fff4c8" stroke-width="7">
        <circle cx="84" cy="84" r="84" stroke="none"/>
        <circle cx="84" cy="84" r="80.5" fill="none"/>
      </g>
      <g id="invite_friend" data-name="invite friend" transform="translate(33.619 39.401)">
        <path id="Path_44" data-name="Path 44" d="M45.445,67.96c-.832,1.109-1.941,1.387-2.774.555a2.119,2.119,0,0,1-.555-1.387,13.647,13.647,0,0,0-9.985-13.036,1.714,1.714,0,0,1-1.387-2.219c.277-1.109,1.109-1.387,2.5-1.109a17.412,17.412,0,0,1,12.2,13.868,1.019,1.019,0,0,0,.277.832A7.679,7.679,0,0,0,45.445,67.96Z" transform="translate(54.402 21.179)" fill="#ffcc01"/>
        <path id="Path_45" data-name="Path 45" d="M11.371,65.918V55.378a10.878,10.878,0,0,1,1.109-4.992c2.219-4.438,5.824-6.934,10.539-6.934H44.376A11.542,11.542,0,0,1,56.025,55.1V68.414A22.235,22.235,0,0,1,31.341,90.6c-1.387,0-2.5-.555-3.883-.555-.277,1.109-.555,1.941-.832,3.051a9.231,9.231,0,0,1-1.664,2.774c1.109.832,2.5,1.664,3.606,2.5.832.555,1.941,1.387,2.774,1.941a3.374,3.374,0,0,0,4.438,0l11.649-8.321a5.257,5.257,0,0,1,8.6,2.5c.277,1.109.832,2.219,1.109,3.051.555,1.387,0,2.219-1.387,2.5a44.333,44.333,0,0,1-5.824,1.387c-1.387.277-2.774-.832-1.941-2.219a2.769,2.769,0,0,1,1.387-1.109c1.109-.555,2.5-.555,3.883-1.109l.277-.277c-.277-.555-.555-1.387-.832-1.941-.555-1.387-1.664-1.664-3.051-.832-3.051,2.219-6.379,4.438-9.43,6.934a15.244,15.244,0,0,0-2.5,1.941,6.671,6.671,0,0,1-8.321,0c-3.883-2.774-7.766-5.547-11.649-8.6-1.664-1.109-2.5-.832-3.328,1.109a4.3,4.3,0,0,1-.555,2.219c1.109.277,2.5.555,3.606.832a1.019,1.019,0,0,1,.832.277,1.581,1.581,0,0,1-.832,3.051c-1.664-.277-3.328-.832-4.992-1.109a4.72,4.72,0,0,0-1.941.277A13.613,13.613,0,0,0,3.051,112.79v.277a1.6,1.6,0,0,1-1.664,1.664C.832,115.009,0,114.177,0,113.068a18.877,18.877,0,0,1,2.219-8.6A17.381,17.381,0,0,1,9.43,97.536c.277-.277.832-.555.832-1.109a11.591,11.591,0,0,0,1.109-2.774c1.387-3.051,4.715-4.16,7.489-2.219a21.168,21.168,0,0,1,3.051,2.219,6.5,6.5,0,0,0,1.941-4.715q0-.416-.832-.832A22.243,22.243,0,0,1,12.758,77.012a15.9,15.9,0,0,1-1.664-6.934c0-.555-.277-.832-.832-1.109a6.58,6.58,0,0,1-4.438-6.379c0-3.883-.277-8.043,0-11.926a22.892,22.892,0,0,1,4.16-11.926A30.654,30.654,0,0,1,25.794,26.811c2.219-.832,4.438-1.109,6.934-1.941a1.715,1.715,0,0,1,1.941.555A32.72,32.72,0,0,0,47.7,33.19a18.925,18.925,0,0,1,11.649,9.985,16.182,16.182,0,0,1,1.664,7.211v12.2c0,1.109-.555,1.941-1.664,1.941s-1.664-.832-1.664-1.941V50.941a18.306,18.306,0,0,0-1.664-7.489A14.263,14.263,0,0,0,48.259,36.8c-1.941-.832-3.883-1.387-5.824-2.219a30.545,30.545,0,0,1-8.6-5.547,2.038,2.038,0,0,0-1.664-.555A30.716,30.716,0,0,0,15.809,37.35a24.772,24.772,0,0,0-6.1,13.036,13.365,13.365,0,0,0,0,3.328v8.875A2.978,2.978,0,0,0,11.371,65.918ZM14.7,62.312v3.606a30.448,30.448,0,0,0,.555,7.211A18.82,18.82,0,0,0,35.778,87.551,19.338,19.338,0,0,0,52.7,68.969V55.656a8.3,8.3,0,0,0-8.6-8.6H23.02c-4.992,0-8.321,3.606-8.321,8.6C14.7,57.6,14.7,60.093,14.7,62.312Z" transform="translate(0 -24.761)" fill="#fff"/>
        <path id="Path_46" data-name="Path 46" d="M37.2,30.282a99.132,99.132,0,0,0,9.707-2.774,6.527,6.527,0,0,1,2.219-.555c1.387-.277,2.219.277,2.219,1.664v3.328a1.281,1.281,0,0,0,.832,1.387c2.5,1.109,5.27,1.941,7.766,3.051,1.941.832,2.219,1.664,1.109,3.328a28.477,28.477,0,0,0-3.883,13.313V61.9a6.922,6.922,0,0,1-4.715,6.934c-.277,0-.555.555-.555.832A22.713,22.713,0,0,1,39.976,87.971a1.525,1.525,0,0,0-.832,1.387,6.853,6.853,0,0,0,3.883,5.547c1.387.832,1.664,1.387.832,2.774a15.172,15.172,0,0,1-7.211,7.211,1.452,1.452,0,0,1-2.219-.555c-.555-.832-.277-1.664.832-2.219a14.406,14.406,0,0,0,5.27-4.715,9.812,9.812,0,0,1-4.438-7.489,37.9,37.9,0,0,1-5.27.555,19.3,19.3,0,0,1-8.875-1.387c-1.387-.555-1.664-1.387-1.387-2.219.277-1.109,1.387-1.387,2.5-.832,8.6,3.051,17.751.277,22.743-7.489a17.477,17.477,0,0,0,3.051-9.707V54.689a8.239,8.239,0,0,0-7.766-8.321,77.805,77.805,0,0,0-8.043,0H31.933a1.415,1.415,0,0,1-1.109-1.387,1.521,1.521,0,0,1,1.109-1.664h.555c3.606,0,7.489-.277,11.094.277,5.27.832,8.875,5.547,9.153,11.094V65.506a4.561,4.561,0,0,0,2.219-3.328V56.631c0-6.934.277-11.371,3.606-17.751-.277,0-.555-.277-.832-.277-2.219-.832-4.715-1.941-6.934-2.774-1.664-.555-1.664-.832-1.664-2.5V30.56c-1.387.277-2.774.832-4.16,1.109-2.219.555-4.715,1.387-6.934,1.941-1.387.277-1.941,0-2.5-1.387-.555-1.109-.832-2.5-1.387-3.606-2.219.832-4.16,1.941-6.379,2.774-.555.277-.832.277-1.387.555a1.644,1.644,0,0,1-2.5-.832A1.746,1.746,0,0,1,25,28.9c2.5-1.109,5.27-2.219,7.766-3.328,2.774-1.387,3.328-.832,4.16,1.941C36.371,28.341,36.926,29.173,37.2,30.282Z" transform="translate(36.295 -24.626)" fill="#ffcc01"/>
        <path id="Path_47" data-name="Path 47" d="M28.645,63.006v1.109a1.79,1.79,0,0,1-1.664,1.664,1.758,1.758,0,0,1-1.664-1.387c-.277-1.387-.277-2.774-.555-3.883a41.9,41.9,0,0,0-2.5-4.992,2.07,2.07,0,0,1,0-2.5c.832-.832,1.941-.555,2.774.277A17.338,17.338,0,0,1,28.645,63.006Z" transform="translate(38.751 24.469)" fill="#fff"/>
        <path id="Path_48" data-name="Path 48" d="M27.417,48.337A6.684,6.684,0,0,1,22.425,46.4a1.782,1.782,0,0,1-.277-2.5,1.555,1.555,0,0,1,2.5,0c2.219,1.664,3.883,1.664,6.379,0a1.755,1.755,0,0,1,2.5.277,1.445,1.445,0,0,1-.277,2.219A12.114,12.114,0,0,1,27.417,48.337Z" transform="translate(38.593 8.075)" fill="#ffcc01"/>
        <path id="Path_49" data-name="Path 49" d="M15.894,48.337a7.321,7.321,0,0,1-5.27-1.941,1.782,1.782,0,0,1-.277-2.5,1.555,1.555,0,0,1,2.5,0c2.219,1.664,4.16,1.664,6.1,0a2.07,2.07,0,0,1,2.5,0,1.782,1.782,0,0,1-.277,2.5A8.756,8.756,0,0,1,15.894,48.337Z" transform="translate(17.665 8.075)" fill="#fff"/>
      </g>
    </g>
    <g id="Group_72" data-name="Group 72" transform="translate(1384.776 324.953)">
      <g id="Ellipse_10" data-name="Ellipse 10" transform="translate(0.224 0.047)" fill="none" stroke="#fff4c8" stroke-width="7">
        <circle cx="84" cy="84" r="84" stroke="none"/>
        <circle cx="84" cy="84" r="80.5" fill="none"/>
      </g>
      <g id="reward" transform="translate(36.66 39.401)">
        <path id="Path_50" data-name="Path 50" d="M16.333,63.367v1.988a2.841,2.841,0,0,1-3.123,3.123H3.84A2.683,2.683,0,0,1,1,65.639V35.54A2.547,2.547,0,0,1,3.84,32.7h9.654a2.683,2.683,0,0,1,2.84,2.84v1.988H30.815a23.569,23.569,0,0,1,15.9,5.963,3.044,3.044,0,0,0,1.7.568c3.407,0,6.531.284,9.938,0,4.543-.284,7.951,2.84,7.667,7.383a5.264,5.264,0,0,1,1.988-.568l12.778-4.259a13.237,13.237,0,0,1,14.2,3.407c1.42,1.42,1.136,3.123-.568,4.259C83.063,59.96,71.7,65.923,60.346,71.6c-7.1,3.691-14.482,3.691-21.864.852-7.1-2.556-13.914-5.4-21.013-8.235C17.185,63.651,16.9,63.367,16.333,63.367Zm76.951-12.21c-.284-.284-.568-.568-.852-.568A10.909,10.909,0,0,0,81.927,48.6c-5.679,1.988-11.074,3.691-16.753,5.679a2.153,2.153,0,0,0-1.136.568,6.843,6.843,0,0,1-5.111,1.988H36.21c-1.136,0-1.42-.568-1.42-1.42A1.341,1.341,0,0,1,36.21,54H58.643a3.747,3.747,0,0,0,3.975-3.123,3.86,3.86,0,0,0-3.975-4.827H47.284a3.224,3.224,0,0,1-2.272-.852c-3.975-3.407-8.235-5.4-13.346-5.4-5.111-.284-10.222,0-15.333,0h-.568V59.392c0,.568.284.852.852,1.136,7.667,2.84,15.05,5.963,22.716,8.8a24.27,24.27,0,0,0,19.877-.852l11.926-5.963C78.519,58.824,85.9,55.132,93.285,51.157ZM13.494,65.639V34.972H3.84V65.639Z" transform="translate(-1 15.761)" fill="#fff"/>
        <path id="Path_51" data-name="Path 51" d="M64.46,42.072C64.46,55.7,53.1,67.06,39.472,67.344A25.27,25.27,0,0,1,14.2,42.356,25.759,25.759,0,0,1,39.472,16.8,25.27,25.27,0,0,1,64.46,42.072ZM39.188,63.652a21.581,21.581,0,1,0-21.3-21.58A21.153,21.153,0,0,0,39.188,63.652Z" transform="translate(23.282 -13.487)" fill="#ffcc01"/>
        <text id="_" data-name="₹" transform="translate(52.692 40)" fill="#ffcc01" font-size="37" font-family="SegoeUI, Segoe UI"><tspan x="0" y="0">₹</tspan></text>
      </g>
    </g>
    <path id="Icon_awesome-long-arrow-alt-right" data-name="Icon awesome-long-arrow-alt-right" d="M212.073,15.187H180.844a.844.844,0,0,0-.844.844v3.937a.844.844,0,0,0,.844.844h31.229v3.239a1.688,1.688,0,0,0,2.881,1.193L221,19.193a1.687,1.687,0,0,0,0-2.386l-6.051-6.051a1.688,1.688,0,0,0-2.881,1.193Z" transform="translate(778.75 391)" fill="#fff"/>
    <path id="Icon_awesome-long-arrow-alt-right-2" data-name="Icon awesome-long-arrow-alt-right" d="M212.073,15.187H180.844a.844.844,0,0,0-.844.844v3.937a.844.844,0,0,0,.844.844h31.229v3.239a1.688,1.688,0,0,0,2.881,1.193L221,19.193a1.687,1.687,0,0,0,0-2.386l-6.051-6.051a1.688,1.688,0,0,0-2.881,1.193Z" transform="translate(1099.75 391)" fill="#fff"/>
  </g>
</svg>
