<svg xmlns="http://www.w3.org/2000/svg" width="28.819" height="32.138" viewBox="0 0 28.819 32.138">
  <g id="editprofile" transform="translate(0.906 -4.701)">
    <path id="Path_66" data-name="Path 66" d="M18.524,20.223a13.854,13.854,0,0,1,3.67,1.952c-.156.234-.39.547-.547.781a15.675,15.675,0,0,0-5.309-2.42c.312-.234.547-.39.781-.547a7.692,7.692,0,0,0,2.655-3.045A7.354,7.354,0,0,0,14.464,6.638a7.483,7.483,0,0,0-8.51,6.48A7.125,7.125,0,0,0,9,19.911c.312.234.7.468,1.093.7-.625.234-1.171.39-1.64.547a13.164,13.164,0,0,0-6.168,4.528,6.239,6.239,0,0,0-1.249,3.826c.078,1.64,0,3.279,0,4.919,0,.312.078.39.39.39H16.573v1.015H.489c-.312,0-.39-.078-.39-.39,0-1.874.078-3.748,0-5.621a7.713,7.713,0,0,1,2.108-5.543,15.449,15.449,0,0,1,5.387-3.826c.078-.078.234-.078.312-.156l.078-.078A7.726,7.726,0,0,1,5.1,12.338a7.722,7.722,0,0,1,3.2-5A8.227,8.227,0,0,1,18.524,20.223Z" fill="#707070" stroke="#707070" stroke-width="2"/>
    <path id="Path_67" data-name="Path 67" d="M22.9,39.764c.156-1.093.234-2.108.39-3.123,0-.156.078-.234.234-.312L29.3,30.551a.522.522,0,0,1,.781,0l2.655,2.655a.522.522,0,0,1,0,.781L26.96,39.764a2.6,2.6,0,0,1-.468.234c-1.015.156-1.952.234-2.967.312A.557.557,0,0,1,22.9,39.764Zm1.64-3.123,2.03,2.03L30,35.235l-2.03-2.03C26.8,34.376,25.633,35.469,24.54,36.641Zm7.1-3.123-2.03-2.03-.937.937c.625.625,1.327,1.327,2.03,1.952A9.357,9.357,0,0,0,31.645,33.518ZM25.32,39.061c-.39-.39-.859-.781-1.249-1.249-.078.468-.078.937-.156,1.405C24.462,39.139,24.93,39.139,25.32,39.061Z" transform="translate(-5 -5.408)" fill="#707070"/>
  </g>
</svg>
