<svg xmlns="http://www.w3.org/2000/svg" width="63.025" height="44.462" viewBox="0 0 63.025 44.462"><defs><style>.a{fill:#efc003;}</style></defs><g transform="translate(0 0)"><path class="a" d="M4.764,52.58h53.5a4.764,4.764,0,0,0,4.764-4.764V12.882a4.764,4.764,0,0,0-4.764-4.764H4.764A4.765,4.765,0,0,0,0,12.882V47.815A4.765,4.765,0,0,0,4.764,52.58ZM35.18,49.235H27.843V44.7H35.18ZM52.666,11.571H60V16.1H52.666ZM52.449,44.7h7.339v4.533H52.449ZM40.362,11.571H47.7V16.1H40.362ZM40.146,44.7h7.339v4.533H40.146ZM28.06,11.571H35.4V16.1H28.06ZM26,22.522l11.02,5.511c2.558,1.279,2.558,3.353,0,4.631L26,38.176c-2.558,1.278-4.633,0-4.633-2.865V25.386C21.368,22.526,23.443,21.244,26,22.522ZM15.757,11.571H23.1V16.1H15.757ZM15.541,44.7h7.338v4.533H15.541ZM3.454,11.571h7.339V16.1H3.454ZM3.238,44.7h7.339v4.533H3.238Z" transform="translate(0 -8.118)"/></g></svg>