<svg xmlns="http://www.w3.org/2000/svg" width="85.564" height="97.999" viewBox="0 0 85.564 97.999"><defs><style>.a{fill:#072c6b;}.b{fill:#fff;}.c{fill:#eee7e0;}</style></defs><g transform="translate(-32.482 0)"><path class="a" d="M108.188,244.559l-9.3-3.388A2.686,2.686,0,0,0,97.91,241h-59.6a2.843,2.843,0,0,0-2.871,2.871v40.386a8.6,8.6,0,0,0,8.613,8.613H101.47a8.6,8.6,0,0,0,8.613-8.613v-37A2.849,2.849,0,0,0,108.188,244.559Z" transform="translate(-2.388 -194.87)"/><path class="a" d="M267.759,247.258v37a8.6,8.6,0,0,1-8.613,8.613H230.435V241h25.151a2.684,2.684,0,0,1,.976.172l9.3,3.388A2.849,2.849,0,0,1,267.759,247.258Z" transform="translate(-160.064 -194.87)"/><path class="a" d="M208.058,18.717a11.623,11.623,0,0,0-7.867-8.326,11.44,11.44,0,0,0-11.14,2.412L182.39,18.66l-1.32-8.785A11.632,11.632,0,0,0,174.007.859a10.9,10.9,0,0,0-2.239-.632,11.419,11.419,0,0,0-9.073,2.01,11.593,11.593,0,0,0,2.871,20.327l6.2,2.239,7.637,2.814h.057L192.727,32.5a12.32,12.32,0,0,0,4.019.689,11.7,11.7,0,0,0,11.312-14.47Z" transform="translate(-101.396 0)"/><path class="a" d="M263.165,31.161a11.611,11.611,0,0,1-7.752,2.986,12.322,12.322,0,0,1-4.019-.689L238.13,28.577h-.057l-7.637-2.814V1.187a10.915,10.915,0,0,1,2.239.632,11.632,11.632,0,0,1,7.063,9.015l1.321,8.785,6.661-5.857a11.44,11.44,0,0,1,11.14-2.412,11.635,11.635,0,0,1,4.307,19.811Z" transform="translate(-160.064 -0.96)"/><path class="a" d="M117.514,85.575l-3.9,10.8a2.908,2.908,0,0,1-2.7,1.837,2.685,2.685,0,0,1-.976-.172L80.248,87.24l-2.7-8.9-7.178,1.608-6.316,1.436-29.687-10.8a2.922,2.922,0,0,1-1.723-3.675l3.962-10.795A8.56,8.56,0,0,1,47.633,50.95l22.739,8.269,1.551.574s6.2,11.255,6.374,11.255c.115,0,2.584-1.378,5-2.7s4.823-2.7,4.823-2.7l24.232,8.843a8.7,8.7,0,0,1,4.881,4.479A8.5,8.5,0,0,1,117.514,85.575Z" transform="translate(0 -40.767)"/><path class="a" d="M277.578,122.755l-3.9,10.8a2.908,2.908,0,0,1-2.7,1.837,2.685,2.685,0,0,1-.976-.172l-29.687-10.8-2.7-8.9-7.178,1.608V96.4l1.551.574s6.2,11.255,6.374,11.255c.115,0,2.584-1.378,5-2.7s4.823-2.7,4.823-2.7l24.232,8.843a8.7,8.7,0,0,1,4.881,4.479A8.5,8.5,0,0,1,277.578,122.755Z" transform="translate(-160.064 -77.948)"/><g transform="translate(61.758 19.025)"><path class="b" d="M185.435,241V292.87h17.226V241Z" transform="translate(-185.435 -213.896)"/><path class="b" d="M205.3,99.4l-1.551,4.249-6.316,17.341,6.316,2.3,7.178,2.584,2.7.976,7.867-21.59Z" transform="translate(-195.138 -99.398)"/></g><g transform="translate(70.371 19.025)"><rect class="c" width="8.613" height="51.871" transform="translate(0.001 27.103)"/><path class="c" d="M248.178,105.255l-7.867,21.59-2.7-.976-7.178-2.584V103.647l1.55-4.249Z" transform="translate(-230.435 -99.398)"/></g></g></svg>