<svg xmlns="http://www.w3.org/2000/svg" xmlns:xlink="http://www.w3.org/1999/xlink" width="28" height="24.5" viewBox="0 0 28 24.5">
  <defs>
    <linearGradient id="linear-gradient" x1="0.5" x2="0.5" y2="1" gradientUnits="objectBoundingBox">
      <stop offset="0" stop-color="#feb683"/>
      <stop offset="1" stop-color="#ff8993"/>
    </linearGradient>
  </defs>
  <path id="gift" d="M1.75,25A1.748,1.748,0,0,0,3.5,26.75h8.75V18H1.75Zm14,1.75H24.5A1.748,1.748,0,0,0,26.25,25V18H15.75Zm10.5-17.5h-2.3A4.768,4.768,0,0,0,24.5,7.063,4.82,4.82,0,0,0,19.688,2.25c-2.275,0-3.746,1.165-5.633,3.735C12.168,3.415,10.7,2.25,8.422,2.25A4.82,4.82,0,0,0,3.609,7.063,4.7,4.7,0,0,0,4.162,9.25H1.75A1.748,1.748,0,0,0,0,11v4.375a.878.878,0,0,0,.875.875h26.25A.878.878,0,0,0,28,15.375V11A1.748,1.748,0,0,0,26.25,9.25Zm-17.834,0a2.188,2.188,0,0,1,0-4.375c1.088,0,1.892.18,4.709,4.375Zm11.271,0H14.979c2.811-4.184,3.593-4.375,4.709-4.375a2.188,2.188,0,0,1,0,4.375Z" transform="translate(0 -2.25)" fill="url(#linear-gradient)"/>
</svg>
