<?xml version="1.0" encoding="utf-8"?>
<!-- Generator: Adobe Illustrator 24.3.0, SVG Export Plug-In . SVG Version: 6.00 Build 0)  -->
<svg version="1.1" id="Layer_1" xmlns="http://www.w3.org/2000/svg" xmlns:xlink="http://www.w3.org/1999/xlink" x="0px" y="0px"
	 viewBox="0 0 160 160" style="enable-background:new 0 0 160 160;" xml:space="preserve">
<style type="text/css">
	.st0{fill:#EFC003;}
	.st1{fill:#072C6B;}
</style>
<g transform="translate(-1082 -622)">
	<circle class="st0" cx="1162" cy="702" r="80"/>
	<path class="st1" d="M1130.5,697.5c5,0,9-4,9-9s-4-9-9-9c-5,0-9,4-9,9l0,0C1121.6,693.5,1125.6,697.5,1130.5,697.5z M1193.5,697.5
		c5,0,9-4,9-9s-4-9-9-9c-5,0-9,4-9,9l0,0C1184.5,693.5,1188.5,697.5,1193.5,697.5z M1198,702h-9c-2.4,0-4.7,0.9-6.3,2.6
		c5.8,3.1,9.7,8.9,10.5,15.4h9.3c2.5,0,4.5-2,4.5-4.5c0,0,0,0,0,0V711C1206.9,706,1202.9,702,1198,702L1198,702z M1162,702
		c8.7,0,15.7-7,15.7-15.7s-7-15.7-15.7-15.7c-8.7,0-15.7,7-15.7,15.7C1146.3,695,1153.3,702,1162,702C1162,702,1162,702,1162,702z
		 M1172.8,706.5h-1.2c-6.1,3-13.2,3-19.2,0h-1.2c-8.9,0-16.2,7.2-16.2,16.2v4c0,3.7,3,6.7,6.7,6.7h40.4c3.7,0,6.7-3,6.7-6.7v-4
		C1189,713.7,1181.7,706.5,1172.8,706.5z M1141.4,704.6c-1.7-1.7-4-2.6-6.3-2.6h-9c-5,0-9,4-9,9v4.5c0,2.5,2,4.5,4.5,4.5
		c0,0,0,0,0,0h9.3C1131.7,713.5,1135.6,707.8,1141.4,704.6z"/>
</g>
</svg>
