<svg xmlns="http://www.w3.org/2000/svg" width="16" height="16" viewBox="0 0 16 16"><defs><style>.a{fill:#8b8686;stroke:#707070;}.b{fill:#fff;}.c{stroke:none;}.d{fill:none;}</style></defs><g transform="translate(-360.992 -533.992)"><g class="a" transform="translate(360.992 533.992)"><circle class="c" cx="8" cy="8" r="8"/><circle class="d" cx="8" cy="8" r="7.5"/></g><path class="b" d="M2.848,0A2.98,2.98,0,0,0,.68.761,2.516,2.516,0,0,0,0,2.237l1.153.15a1.4,1.4,0,0,1,.357-.8,1.712,1.712,0,0,1,1.337-.438,2.034,2.034,0,0,1,1.407.392.964.964,0,0,1,.323.761c0,.957-.392,1.222-.969,1.729A3.286,3.286,0,0,0,2.271,6.63v.288H3.424V6.63A1.918,1.918,0,0,1,4.358,4.9,3.306,3.306,0,0,0,5.73,2.306,2.215,2.215,0,0,0,5.05.68,3.187,3.187,0,0,0,2.848,0ZM2.271,8.071V9.224H3.424V8.071Z" transform="translate(366.139 537.427)"/></g></svg>