<?xml version="1.0" encoding="utf-8"?>
<!-- Generator: Adobe Illustrator 24.3.0, SVG Export Plug-In . SVG Version: 6.00 Build 0)  -->
<svg version="1.1" id="Layer_1" xmlns="http://www.w3.org/2000/svg" xmlns:xlink="http://www.w3.org/1999/xlink" x="0px" y="0px"
	 viewBox="0 0 160 160" style="enable-background:new 0 0 160 160;" xml:space="preserve">
<style type="text/css">
	.st0{fill:#EFC003;}
	.st1{fill:#072C6B;}
	.st2{fill:#02348A;}
	.st3{fill:#0841A2;}
	.st4{fill:#084CBF;}
</style>
<g transform="translate(-247 -622)">
	<circle class="st0" cx="327" cy="702" r="80"/>
	<g transform="translate(282 657)">
		<path class="st1" d="M58.2,89.2h-47c-1.5,0-2.8-1.3-2.7-2.8c0-1.5,1.2-2.7,2.7-2.7h47c0.5,0,0.9-0.4,0.9-0.9
			c0-0.3-0.1-0.5-0.3-0.7L34.1,59.6c-2.7-2.4-2.9-6.5-0.5-9.2c1.2-1.4,3-2.1,4.8-2.1h32.2c1.5,0,2.8,1.3,2.7,2.8
			c0,1.5-1.2,2.7-2.7,2.7H38.5c-0.5,0-0.9,0.4-0.9,0.9c0,0.3,0.1,0.5,0.3,0.7l24.7,22.4c2.7,2.4,2.9,6.5,0.5,9.2
			C61.8,88.4,60,89.2,58.2,89.2L58.2,89.2z"/>
		<path class="st1" d="M52.5,68.8h-8.3L58.8,82c0.4,0.3,0.4,0.9,0.1,1.3c-0.2,0.2-0.4,0.3-0.7,0.3h-47c-1.5,0-2.8,1.3-2.7,2.8
			c0,1.5,1.2,2.7,2.7,2.7h47c3.6,0,6.5-2.9,6.5-6.5c0-1.8-0.8-3.6-2.1-4.8L52.5,68.8z"/>
		<path class="st1" d="M11.2,85.5c-0.7,0-1.4-0.3-1.9-0.7C8.9,84.4,0,76.2,0,67.6c0-6.5,5-11.8,11.2-11.8s11.1,5.3,11.1,11.9
			c0,8.6-8.9,16.8-9.3,17.2C12.5,85.2,11.8,85.5,11.2,85.5z"/>
		<path class="st2" d="M11.2,55.8C5,55.8,0,61.1,0,67.6c0,8.6,8.9,16.8,9.3,17.2c0.5,0.5,1.2,0.7,1.9,0.7L11.2,55.8z"/>
		<path class="st1" d="M70.6,48.3c-0.7,0-1.3-0.2-1.8-0.7C68.1,47.1,52,33.1,52,18.8C51.9,8.6,60.1,0.1,70.4,0s18.7,8.1,18.8,18.3
			c0,0.2,0,0.3,0,0.5c0,14.3-16.1,28.2-16.8,28.8C71.9,48.1,71.3,48.3,70.6,48.3z"/>
		<path class="st3" d="M70.6,26c-4.1,0-7.4-3.3-7.4-7.4s3.3-7.4,7.4-7.4c4.1,0,7.4,3.3,7.4,7.4C78.1,22.7,74.7,26,70.6,26z"/>
		<path class="st2" d="M70.6,0C60.3,0.1,52,8.5,52,18.8c0,14.3,16.1,28.2,16.8,28.8c0.5,0.4,1.1,0.7,1.8,0.7V26
			c-4.1,0-7.4-3.3-7.4-7.4s3.3-7.4,7.4-7.4V0z"/>
		<path class="st4" d="M70.6,11.2c-4.1,0-7.4,3.3-7.4,7.4s3.3,7.4,7.4,7.4V11.2z"/>
	</g>
</g>
</svg>
