<?xml version="1.0" encoding="utf-8"?>
<!-- Generator: Adobe Illustrator 24.3.0, SVG Export Plug-In . SVG Version: 6.00 Build 0)  -->
<svg version="1.1" id="Layer_1" xmlns="http://www.w3.org/2000/svg" xmlns:xlink="http://www.w3.org/1999/xlink" x="0px" y="0px"
	 viewBox="0 0 160 160" style="enable-background:new 0 0 160 160;" xml:space="preserve">
<style type="text/css">
	.st0{fill:#EFC003;}
	.st1{fill:#072C6B;}
</style>
<g transform="translate(-525 -622)">
	<circle class="st0" cx="605" cy="702" r="80"/>
	<g transform="translate(568 664)">
		<g transform="translate(0 21.875)">
			<path class="st1" d="M7.8,12.5V3.1c0.9,0,1.5-0.7,1.5-1.6C9.3,0.7,8.6,0,7.8,0C3.5,0,0,3.5,0,7.8v3.1c0,2.6,2.1,4.7,4.7,4.7h3.1
				c0.9,0,1.6-0.7,1.6-1.6S8.7,12.5,7.8,12.5L7.8,12.5z"/>
		</g>
		<g transform="translate(65.625 21.875)">
			<path class="st1" d="M1.6,0C0.7,0,0,0.7,0,1.6c0,0.8,0.7,1.5,1.5,1.5v9.4c-0.9,0-1.6,0.7-1.6,1.6s0.7,1.6,1.6,1.6h3.1
				c2.6,0,4.7-2.1,4.7-4.7V7.8C9.4,3.5,5.9,0,1.6,0z"/>
		</g>
		<g transform="translate(12.5 65.625)">
			<path class="st1" d="M14.1,0c-0.9,0-1.6,0.7-1.6,1.6H3.1C3.1,0.7,2.5,0,1.6,0C0.7-0.1,0,0.6,0,1.5c0,0,0,0.1,0,0.1v3.1
				c0,2.6,2.1,4.7,4.7,4.7h6.2c2.6,0,4.7-2.1,4.7-4.7V1.6C15.6,0.7,14.9,0,14.1,0z"/>
		</g>
		<g transform="translate(46.875 65.625)">
			<path class="st1" d="M14.1,0c-0.9,0-1.6,0.7-1.6,1.6H3.1C3.1,0.7,2.5,0,1.6,0C0.7-0.1,0,0.6,0,1.5c0,0,0,0.1,0,0.1v3.1
				c0,2.6,2.1,4.7,4.7,4.7h6.2c2.6,0,4.7-2.1,4.7-4.7V1.6C15.6,0.7,14.9,0,14.1,0z"/>
		</g>
		<g transform="translate(6.25)">
			<path class="st1" d="M54.7,0H7.8C3.5,0,0,3.5,0,7.8v53.1c0,4.3,3.5,7.8,7.8,7.8h46.9c4.3,0,7.8-3.5,7.8-7.8V7.8
				C62.5,3.5,59,0,54.7,0z M14.1,6.2h34.4c2.6,0,4.7,2,4.8,4.6c0,2.6-2,4.7-4.6,4.8c0,0-0.1,0-0.1,0H14.1c-2.6,0-4.7-2.2-4.6-4.8
				C9.5,8.3,11.5,6.3,14.1,6.2z M14.1,59.4c-2.6,0-4.7-2.1-4.7-4.7s2.1-4.7,4.7-4.7s4.7,2.1,4.7,4.7l0,0
				C18.7,57.3,16.7,59.4,14.1,59.4z M48.4,59.4c-2.6,0-4.7-2.1-4.7-4.7s2.1-4.7,4.7-4.7c2.6,0,4.7,2.1,4.7,4.7
				C53.1,57.3,51,59.4,48.4,59.4L48.4,59.4z M56.3,39.1c0,2.6-2.1,4.7-4.7,4.7H10.9c-2.6,0-4.7-2.1-4.7-4.7V23.4
				c0-2.6,2.1-4.7,4.7-4.7h40.6c2.6,0,4.7,2.1,4.7,4.7L56.3,39.1L56.3,39.1z"/>
		</g>
	</g>
</g>
</svg>
