<svg xmlns="http://www.w3.org/2000/svg" width="37.702" height="40.831" viewBox="0 0 37.702 40.831"><defs><style>.a{fill:#f06321;}.b{fill:#ae282e;}.c{fill:#fff;}</style></defs><g transform="translate(-122.238 -47.477)"><g transform="translate(122.238 47.477)"><path class="a" d="M128.3,53.957c9.324-9.255,20.634-11.657,25.161-5.349s.548,19.058-8.775,28.313c-9.324,9.324-20.634,11.722-25.229,5.345-4.454-6.373-.476-19.058,8.844-28.31" transform="translate(-117.629 -45.088)"/><path class="b" d="M131.7,49.009a34.079,34.079,0,0,0-3.084,2.608c-8.159,8.087-11.588,19.192-7.542,24.746,4.18,5.551,14.189,3.5,22.553-4.663a31.56,31.56,0,0,0,8.775-14.189c.343-3.5-.137-6.582-1.713-8.912-3.564-4.934-11.242-4.526-18.99.411" transform="translate(-114.864 -45.078)"/><path class="c" d="M141.232,48.139v.206a6.331,6.331,0,0,1-1.987,3.838c-1.85,1.782-4.317,2.467-5.349,1.443-1.165-1.1-.476-3.5,1.374-5.417,1.919-1.85,4.386-2.467,5.414-1.371a1.755,1.755,0,0,1,.548,1.3M134.105,79.6c-4.389,3.289-8.912,4.938-13.3,4.252,1.85.069,3.361-1.991,4.595-4.732a47.288,47.288,0,0,0,2.536-7.884c.891-3.906.959-6.647.48-7.264-.754-.963-2.4-.754-4.321.343-.959.548-2.193.206-.75-1.576,1.508-1.782,7.333-6.034,9.389-6.719,2.333-.617,4.938.274,4.047,2.81-.62,1.85-8.707,22.964-2.673,20.772" transform="translate(-112.602 -43.179)"/></g></g></svg>