<svg xmlns="http://www.w3.org/2000/svg" width="532.938" height="406.753" viewBox="0 0 532.938 406.753">
  <g id="help_and_support" data-name="help and support" transform="translate(-48.82 -98.344)">
    <g id="OBJECTS" transform="translate(48.82 98.344)">
      <g id="Group_134" data-name="Group 134" transform="translate(425.421 183.592)">
        <g id="Group_128" data-name="Group 128">
          <path id="Path_132" data-name="Path 132" d="M450.982,277.134H391.562a6.6,6.6,0,0,1-6.662-6.662v-29.71a6.6,6.6,0,0,1,6.662-6.662h59.421a6.6,6.6,0,0,1,6.662,6.662v29.71A6.681,6.681,0,0,1,450.982,277.134Z" transform="translate(-384.9 -234.1)" fill="#60a8ff"/>
          <path id="Path_133" data-name="Path 133" d="M414.559,284.549l9.326-22.25H405.1Z" transform="translate(-378.188 -224.729)" fill="#60a8ff"/>
        </g>
        <g id="Group_133" data-name="Group 133" transform="translate(13.369 5.078)">
          <g id="Group_131" data-name="Group 131" transform="translate(22.736 1.984)">
            <g id="Group_129" data-name="Group 129">
              <path id="Path_134" data-name="Path 134" d="M412,246.461h17.053v2.531l8.26-4.8-8.26-4.8v2.4H412Z" transform="translate(-412 -239.4)" fill="#223a7a"/>
            </g>
            <g id="Group_130" data-name="Group 130" transform="translate(0 14.389)">
              <path id="Path_135" data-name="Path 135" d="M437.314,252.731H420.26V250.2L412,255l8.26,4.8v-2.531h17.053Z" transform="translate(-412 -250.2)" fill="#fff"/>
            </g>
          </g>
          <g id="Group_132" data-name="Group 132">
            <path id="Path_136" data-name="Path 136" d="M407.146,260.783l-.8.266a27.753,27.753,0,0,1-3.864-6,20.659,20.659,0,0,1-1.332-6.928l.533-.266-3.6-8.66a8.514,8.514,0,0,0-1.732,2c-2,3.464-1.865,8.66.266,13.856,2,5.2,4.263,9.726,8.26,12.657a7.786,7.786,0,0,0,6,1.732Z" transform="translate(-394.935 -237.483)" fill="#223a7a"/>
            <path id="Path_137" data-name="Path 137" d="M406.366,254.633l-1.066.4,3.73,8.793a2.678,2.678,0,0,0,1.066-.533,2.122,2.122,0,0,0,.933-2.665l-1.865-4.8A2.275,2.275,0,0,0,406.366,254.633Z" transform="translate(-391.49 -232.398)" fill="#223a7a"/>
            <path id="Path_138" data-name="Path 138" d="M399.866,238.03a12.976,12.976,0,0,0-1.466.666l3.73,8.793,1.2-.533a2.221,2.221,0,0,0,1.2-2.8l-2-4.93A2.191,2.191,0,0,0,399.866,238.03Z" transform="translate(-393.783 -237.911)" fill="#223a7a"/>
          </g>
        </g>
      </g>
      <g id="Group_135" data-name="Group 135" transform="translate(111.378 229.253)">
        <path id="Path_139" data-name="Path 139" d="M149.2,406.836V307.579s-1.066-26.779,12.923-34.507,73.277-3.6,73.277-3.6V406.7H149.2Z" transform="translate(-149.186 -268.372)" fill="#1c83ff"/>
      </g>
      <g id="Group_172" data-name="Group 172" transform="translate(121.65 55.338)">
        <g id="Group_136" data-name="Group 136" transform="translate(81.409 82.156)">
          <path id="Path_140" data-name="Path 140" d="M231.19,199.5s-3.6,30.11-4.93,32.508l-1.332,2.531L218,239.2s13.19,18.786,29.444,21.717c16.254,3.064,14.922-6.662,14.922-6.662l-2.531-5.2,3.331-28.645S233.588,206.961,231.19,199.5Z" transform="translate(-218 -199.5)" fill="#ff9d8c"/>
        </g>
        <path id="Path_141" data-name="Path 141" d="M211.5,232.363l10.792-4.663s6.928,11.325,22.916,17.853,16.254,2.8,17.054,0a10.5,10.5,0,0,0-.266-5.729l1.2-9.593,6.4,2.132,22.25,179.462-57.023,2.8Z" transform="translate(-138.751 -107.973)" fill="#fff"/>
        <g id="Group_137" data-name="Group 137" transform="translate(125.375 122.258)">
          <path id="Path_142" data-name="Path 142" d="M251,229.6s3.864,8.926,7.461,29.844,6.928,56.223,7.727,80.471,1.332,79.672,1.332,79.672h71.945c.8,0,5.729-27.312,5.729-27.312s-31.442-26.913-33.041-31.309c-1.066-2.931-.533-57.422-5.2-82.47s-10.792-30.11-23.449-36.372C270.452,235.729,251,229.6,251,229.6Z" transform="translate(-251 -229.6)" fill="#ffcc01"/>
        </g>
        <g id="Group_138" data-name="Group 138" transform="translate(160.948 165.425)">
          <path id="Path_143" data-name="Path 143" d="M279.7,377.378a.629.629,0,0,1-.666-.666c0-2-.4-29.977-.666-57.023-.4-27.046-.666-55.024-.666-57.023a.666.666,0,1,1,1.332,0c0,2,.4,29.977.666,57.023.4,27.046.666,55.024.666,57.023A.714.714,0,0,1,279.7,377.378Z" transform="translate(-277.7 -262)" fill="#eca10c"/>
        </g>
        <g id="Group_139" data-name="Group 139" transform="translate(19.057 274.002)">
          <path id="Path_144" data-name="Path 144" d="M171.733,343.5l-.533,38.37H255s3.6-32.508,2.265-35.573C255.8,343.235,171.733,343.5,171.733,343.5Z" transform="translate(-171.2 -343.496)" fill="#223a7a"/>
        </g>
        <g id="Group_140" data-name="Group 140" transform="translate(96.864 85.354)">
          <path id="Path_145" data-name="Path 145" d="M245.588,230.411a43.655,43.655,0,0,0,11.724,6.262l2-17.054s-22.116-10.126-29.71-17.72C231.2,210.56,235.062,221.885,245.588,230.411Z" transform="translate(-229.6 -201.9)" fill="#8e9bbb"/>
        </g>
        <g id="Group_141" data-name="Group 141" transform="translate(89.79 20.007)">
          <path id="Path_146" data-name="Path 146" d="M286.921,159.044a60.882,60.882,0,0,1,6.928,22.116c1.066,12.124,0,43.3-9.859,56.49s-30.643,9.326-39.969,1.332c-8.66-7.328-17.053-15.455-19.318-31.442s4.663-46.364,24.248-52.626C268.536,148.519,286.921,159.044,286.921,159.044Z" transform="translate(-224.291 -152.853)" fill="#ff9d8c"/>
        </g>
        <g id="Group_149" data-name="Group 149" transform="translate(104.588 271.876)">
          <g id="Group_142" data-name="Group 142">
            <path id="Path_147" data-name="Path 147" d="M308.145,365.082h-3.6c-1.466,0-3.2-.133-4.93-.133h-1.2c-1.732,0-3.2.133-4.663.133H292.29a6.34,6.34,0,0,1-1.865-.666c-1.066-.533-16.254-3.864-28.645-3.864-12.257,0-23.315.933-25.181-.666-1.865-1.466-2.931-17.054,7.594-17.986l12.923,4.93s29.444-3.464,40.369,4.53C308.411,359.087,308.145,365.082,308.145,365.082Z" transform="translate(-235.398 -341.9)" fill="#ffec9e"/>
          </g>
          <g id="Group_144" data-name="Group 144" transform="translate(41.571 14.389)">
            <g id="Group_143" data-name="Group 143">
              <path id="Path_148" data-name="Path 148" d="M283.52,361.36h-1.066a6.409,6.409,0,0,0-1.2-1.466c-3.331-3.331-11.325-5.6-14.256-6.262-.267-.133-.4-.266-.4-.533s.267-.4.666-.4c4.263,1.066,13.323,3.6,15.854,7.994C283.121,360.561,283.387,361.094,283.52,361.36Z" transform="translate(-266.6 -352.7)" fill="#eca10c"/>
            </g>
          </g>
          <g id="Group_146" data-name="Group 146" transform="translate(45.382 10.873)">
            <g id="Group_145" data-name="Group 145">
              <path id="Path_149" data-name="Path 149" d="M288.3,362.1h-1.2c-3.6-6.662-9.593-8.527-16.92-10.925l-.4-.133a.507.507,0,0,1,.4-.933l.4.133C278.306,352.778,284.568,354.776,288.3,362.1Z" transform="translate(-269.461 -350.061)" fill="#eca10c"/>
            </g>
          </g>
          <g id="Group_148" data-name="Group 148" transform="translate(49.698 7.861)">
            <g id="Group_147" data-name="Group 147">
              <path id="Path_150" data-name="Path 150" d="M293.351,362.988h-1.066c-2.265-4.663-9.459-12.39-19.185-14.256-.266,0-.4-.266-.4-.533s.266-.4.533-.4C283.092,349.665,291.086,357.792,293.351,362.988Z" transform="translate(-272.7 -347.8)" fill="#eca10c"/>
            </g>
          </g>
        </g>
        <g id="Group_150" data-name="Group 150" transform="translate(76.99)">
          <path id="Path_151" data-name="Path 151" d="M234.424,198.941s6.129-2.931,10.392-11.058a31.615,31.615,0,0,0,3.73-15.455s7.727-1.2,19.318,2.265,25.314,8.127,36.9,1.466,11.591-17.187,5.862-21.583c-6.4-4.93-18.919-1.865-18.919-1.865s4.8-4.663,2.265-7.461c-2.665-2.8-12.124.8-12.124.8s-11.591-9.193-33.441-8.127-32.375,16.387-33.574,33.441,4.93,34.24,4.93,34.24Z" transform="translate(-214.683 -137.835)" fill="#223a7a"/>
        </g>
        <g id="Group_152" data-name="Group 152" transform="translate(135.668 64.851)">
          <g id="Group_151" data-name="Group 151">
            <path id="Path_152" data-name="Path 152" d="M264.287,186.9c-1.2,3.064-1.2,6.662-1.466,9.859-.266,2.531-.666,5.462,1.6,7.194,1.066.8,6.4,3.064,3.6,4.8a6.473,6.473,0,0,1-3.864.4c-.8,0-1.6-.133-2.4-.133s-1.732-.266-2.531-.266a.505.505,0,0,0-.266.933,9.494,9.494,0,0,0,5.063,1.2,7.434,7.434,0,0,0,4.13-.8,2.766,2.766,0,0,0,1.865-2.132,3.661,3.661,0,0,0-1.6-2.931c-1.066-.8-2.265-1.2-3.331-1.865-1.466-1.066-1.332-2.8-1.2-4.4.266-3.864,1.2-7.727,1.466-11.724a.545.545,0,0,0-1.066-.133Z" transform="translate(-258.726 -186.511)" fill="#8e9bbb"/>
          </g>
        </g>
        <g id="Group_153" data-name="Group 153" transform="translate(146.467 69.605)">
          <path id="Path_153" data-name="Path 153" d="M272.918,194.9c-.4,2.265-2.132,4-3.73,3.73-1.732-.266-2.665-2.4-2.265-4.8.4-2.265,2.132-4,3.73-3.73S273.318,192.5,272.918,194.9Z" transform="translate(-266.831 -190.08)" fill="#223a7a"/>
        </g>
        <g id="Group_154" data-name="Group 154" transform="translate(124.759 67.474)">
          <path id="Path_154" data-name="Path 154" d="M257.149,193.57c-.4,2.531-2.132,4.263-4,4s-2.931-2.531-2.531-5.063,2.132-4.263,4-4S257.549,191.038,257.149,193.57Z" transform="translate(-250.537 -188.48)" fill="#223a7a"/>
        </g>
        <g id="Group_156" data-name="Group 156" transform="translate(146.559 61.639)">
          <g id="Group_155" data-name="Group 155">
            <path id="Path_155" data-name="Path 155" d="M267.966,187.3a37.447,37.447,0,0,0,3.864.133c.266,0,.666.133.933.133h0a1.007,1.007,0,0,1,.533.133c.267.133.533.133.8.266.266,0,.533.133.8.133h.666a1.306,1.306,0,0,0,.933-1.732.692.692,0,0,0-.267-.533c0-.133-.133-.133-.133-.266l.133.133c0-.133-.133-.133-.133-.266-.133-.133-.133-.266-.266-.266-.133-.133-.266-.133-.266-.266a4.73,4.73,0,0,0-1.2-.533,14.679,14.679,0,0,0-2.4-.266c-.8,0-1.6.133-2.4.133a3.75,3.75,0,0,0-2,.8,1.64,1.64,0,0,0-.666,1.332,1.886,1.886,0,0,0,1.066.933Z" transform="translate(-266.9 -184.1)" fill="#223a7a"/>
          </g>
        </g>
        <g id="Group_158" data-name="Group 158" transform="translate(121.112 59.721)">
          <g id="Group_157" data-name="Group 157">
            <path id="Path_156" data-name="Path 156" d="M259.524,184.045c-.133-.133-.4-.133-.533-.266s-.533-.266-.266-.133c-.133,0-.266-.133-.4-.133a7.511,7.511,0,0,0-1.6-.533,12.328,12.328,0,0,0-3.864-.266,10.049,10.049,0,0,0-3.864,1.2c-.133.133-.4.266-.533.4s-.133.266-.266.4a.131.131,0,0,1,.133-.133,1.212,1.212,0,0,0-.533,1.066,1.121,1.121,0,0,0,.533.933,1.555,1.555,0,0,0,1.332,0H249a2.867,2.867,0,0,0,1.066,0s.4-.133.133,0h.666a1.2,1.2,0,0,0,.666-.133,18.763,18.763,0,0,1,2.665-.133h3.864c.133,0,.266.133.4.133a1.207,1.207,0,0,0,1.466-.8,1.047,1.047,0,0,0-.4-1.6Z" transform="translate(-247.8 -182.661)" fill="#223a7a"/>
          </g>
        </g>
        <g id="Group_159" data-name="Group 159" transform="translate(128.662 93.342)">
          <path id="Path_157" data-name="Path 157" d="M264.3,214.03a12.3,12.3,0,0,1,6.262-5.6c-2.265-.266-13.19-1.2-15.988.266-3.064,1.732.533,8.793,6.928,9.193a8.2,8.2,0,0,0,1.865-.133A7.39,7.39,0,0,1,264.3,214.03Z" transform="translate(-253.467 -207.896)" fill="#223a7a"/>
        </g>
        <g id="Group_160" data-name="Group 160" transform="translate(89.003 83.488)">
          <path id="Path_158" data-name="Path 158" d="M223.7,201.7s1.066,4.263,7.461,9.193,15.588,8.527,15.588,8.527l.8-3.2s-9.459-4.13-13.856-8.66-4.93-7.061-4.93-7.061Z" transform="translate(-223.7 -200.5)" fill="#dee1eb"/>
        </g>
        <g id="Group_161" data-name="Group 161" transform="translate(109.512 96.799)">
          <path id="Path_159" data-name="Path 159" d="M243.5,210.5a7.8,7.8,0,0,1,8.26,6.4c.4,2.665-2.132,5.6-7.861,2.931C236.837,216.765,238.3,210.77,243.5,210.5Z" transform="translate(-239.094 -210.49)" fill="#223a7a"/>
        </g>
        <g id="Group_162" data-name="Group 162" transform="translate(81.409 0.816)">
          <path id="Path_160" data-name="Path 160" d="M229.591,190.744s2.265-15.854,12.79-26.646c20.251-20.517,37.438-19.318,37.438-19.318s-.133-2.931-6.662-5.063c-6.129-2.132-8.793-.933-8.793-.933s-16.654,1.332-30.776,16.92S218,191.143,218,191.143Z" transform="translate(-218 -138.448)" fill="#dee1eb"/>
        </g>
        <g id="Group_165" data-name="Group 165" transform="translate(70.325 50.8)">
          <g id="Group_163" data-name="Group 163">
            <path id="Path_161" data-name="Path 161" d="M230.89,176.278c-13.323-2.265-20.651,8.127-21.184,18.652s7.061,18.386,17.187,17.586C249.809,210.785,247.144,179.076,230.89,176.278Z" transform="translate(-209.68 -175.965)" fill="#fff"/>
          </g>
          <g id="Group_164" data-name="Group 164" transform="translate(5.162 5.997)">
            <path id="Path_162" data-name="Path 162" d="M222.941,200.9a8.948,8.948,0,0,1-8.127-4.8,10.025,10.025,0,0,1,.4-10.392c.133-.266.4-.266.666-.133a.464.464,0,0,1,.133.666,9.016,9.016,0,0,0-.4,9.326,8.42,8.42,0,0,0,7.594,4.4A8.769,8.769,0,0,0,230.4,196.1a10.953,10.953,0,0,0,1.066-9.726c-1.2-3.2-4.4-5.329-7.461-4.93-.266,0-.533-.133-.533-.4s.133-.533.4-.533a8.412,8.412,0,0,1,8.527,5.462,12.06,12.06,0,0,1-1.2,10.658,10.035,10.035,0,0,1-7.994,4.4C223.208,200.9,223.074,200.9,222.941,200.9Z" transform="translate(-213.554 -180.466)" fill="#818fb3"/>
          </g>
        </g>
        <g id="Group_166" data-name="Group 166" transform="translate(0 120.526)">
          <path id="Path_163" data-name="Path 163" d="M232.177,228.3s-40.236,9.859-54.358,25.847-20.651,94.86-20.917,109.382c-.266,14.655,9.859,20.651,15.988,24.781s32.775,11.591,54.358,12.657,41.834,0,41.834,0-.133-4.663,3.2-11.591c3.064-6.4,6.928-7.727,6.928-7.727l-18.519-6.662s-3.2-57.955-8.26-86.067C246.832,256.945,232.177,228.3,232.177,228.3Z" transform="translate(-156.896 -228.3)" fill="#ffcc01"/>
        </g>
        <g id="Group_167" data-name="Group 167" transform="translate(130.491 123.778)">
          <path id="Path_164" data-name="Path 164" d="M266.378,365.116h-.266a.688.688,0,0,1-.4-.933c3.73-8.527,7.727-25.181,9.859-36.9l.133-.933c.666-3.464,1.466-7.727-.133-10.658-.8-1.466-2.8-4.8-4.53-7.994-1.865-3.331-3.73-6.4-4.13-7.328-.933-1.865,2.132-6.662,6.528-13.19a43.547,43.547,0,0,0,2.8-4.4c1.6-2.665.533-5.2-.666-8.127l-.533-.933c-1.066-2.665-2.4-5.462-3.6-7.994-.533-1.066-.933-2.132-1.466-3.2l-2-4.4c-3.864-8.66-7.861-17.72-13.057-26.38a.686.686,0,0,1,1.2-.666c5.2,8.793,9.193,17.72,13.19,26.513l2,4.4c.533,1.066.933,2.132,1.466,3.2,1.2,2.665,2.531,5.329,3.6,8.127l.4.933c1.2,2.931,2.531,6,.666,9.326-.666,1.066-1.732,2.665-2.931,4.4-2.265,3.464-7.061,10.658-6.4,11.858.533.933,2.265,4,4.13,7.194s3.73,6.4,4.53,7.994c1.865,3.331,1.066,7.994.266,11.591l-.133.933c-.8,4.263-5.063,26.113-9.992,37.171C266.777,364.983,266.644,365.116,266.378,365.116Z" transform="translate(-254.84 -230.74)" fill="#eca10c"/>
        </g>
        <g id="Group_168" data-name="Group 168" transform="translate(68.53 121.592)">
          <path id="Path_165" data-name="Path 165" d="M242.529,367.926a.8.8,0,0,1-.533-.133c-3.2-3.2-18.253-29.311-19.318-34.24-.666-2.665.933-9.459,2.4-16.121,1.2-5.063,2.4-10.392,2-11.858-.533-2.132-4.4-5.329-8.127-8.394-4.53-3.73-9.193-7.461-10.126-10.925-1.066-3.864-.133-28.378.4-44.5.266-5.862.4-10.392.4-11.991a.629.629,0,0,1,.666-.666h0a.629.629,0,0,1,.666.666c0,1.6-.133,6.262-.4,12.124-.533,15.055-1.466,40.369-.533,44.1.8,3.064,5.462,6.795,9.593,10.259,4.13,3.331,7.994,6.528,8.527,9.06.4,1.732-.666,6.662-2,12.39-1.332,6.129-2.931,13.19-2.4,15.588,1.066,4.8,15.988,30.51,19.052,33.574a.644.644,0,0,1,0,.933C242.8,367.926,242.662,367.926,242.529,367.926Z" transform="translate(-208.333 -229.1)" fill="#eca10c"/>
        </g>
        <g id="Group_169" data-name="Group 169" transform="translate(47.835 169.822)">
          <path id="Path_166" data-name="Path 166" d="M193.466,344.572h0a.746.746,0,0,1-.666-.8c.533-3.464,8.127-72.477,8.527-77.807a.666.666,0,1,1,1.332,0c-.4,5.329-7.994,74.343-8.527,77.807C194.132,344.306,193.866,344.572,193.466,344.572Z" transform="translate(-192.8 -265.3)" fill="#eca10c"/>
        </g>
        <g id="Group_170" data-name="Group 170" transform="translate(33.793 242.247)">
          <path id="Path_167" data-name="Path 167" d="M251.859,345.16h-.266c-1.732-.666-9.193-3.2-18.652-6.4-19.185-6.4-45.3-15.322-50.361-17.853a.686.686,0,0,1,.666-1.2c4.93,2.531,32.109,11.724,50.095,17.853,9.459,3.2,17.054,5.729,18.786,6.4a.688.688,0,0,1,.4.933A1.018,1.018,0,0,1,251.859,345.16Z" transform="translate(-182.261 -319.661)" fill="#eca10c"/>
        </g>
        <g id="Group_171" data-name="Group 171" transform="translate(19.54 282.218)">
          <path id="Path_168" data-name="Path 168" d="M246.222,362.769c-16.787,0-49.429-3.064-74.209-11.858a.632.632,0,1,1,.4-1.2c31.309,11.058,75.142,12.923,83.269,11.191.4-.133.666.133.8.533s-.133.666-.533.8A72.094,72.094,0,0,1,246.222,362.769Z" transform="translate(-171.563 -349.663)" fill="#8593b6"/>
        </g>
      </g>
      <g id="Group_181" data-name="Group 181" transform="translate(0 136.77)">
        <g id="Group_180" data-name="Group 180">
          <g id="Group_173" data-name="Group 173">
            <path id="Path_169" data-name="Path 169" d="M84.843,247.244c5.2,4.663,11.858,7.594,16.387,12.923a77.908,77.908,0,0,1,5.063,6.528c1.2,1.6,4.53,4.263,5.063,6.262.266.933.133-.266,0-1.2v-.133c-.4-4-.8-8.127-.933-12.257s.133-8.127-.133-12.257c-.4-5.729-2.132-11.325-6.795-14.922-2.265-1.732-5.2-2.8-7.328-4.8-2-1.865-1.2-4,0-6,1.066-2,2.4-3.864,2.931-6a10.267,10.267,0,0,0-1.732-7.328c-2.665-4.53-8.793-9.726-14.522-9.06-4.8.533-5.329,6.129-5.2,9.992,0,3.73.4,7.461.533,11.191,0,3.864-.666,7.594-.666,11.458C76.982,238.184,80.046,243.114,84.843,247.244Z" transform="translate(-61.644 -198.956)" fill="#6baeff"/>
            <path id="Path_170" data-name="Path 170" d="M137.282,300.01a58.152,58.152,0,0,1,5.2-9.859c2.8-4.4,6-8.527,7.861-13.456s1.6-10.259,1.865-15.455c.133-3.864,1.332-7.594.933-11.458-.133-1.865-1.2-4.8-3.6-4.53-1.865.266-2.931,2.531-3.73,4a82.448,82.448,0,0,0-3.064,7.994,31.185,31.185,0,0,1-1.2,3.2c-.266.533-1.066,2-1.865,1.865-1.332-.4-.133-5.862.133-6.795,1.066-4.93,2.531-9.459,2.8-14.522.266-7.328-.266-16.121-7.461-20.118-1.865-1.066-4.263-1.732-6-.133s-2.265,4.263-2.531,6.4c-.8,6.795.8,13.19,2.931,19.585,1.732,5.329,3.864,10.658,4.13,16.387.133,5.462-2.665,10.259-4,15.322a48.271,48.271,0,0,0-1.732,15.188c0,3.331.133,6.528.4,9.859.266,3.064.533,6.129.8,9.06.133.666.133,1.2.266,1.865-1.2-2.8-1.6-6-2.531-8.793-1.732-5.063-3.73-9.859-5.329-14.922-1.332-4.13-2.665-8.393-4.4-12.39-1.732-3.73-3.73-7.727-6.928-10.525a9.917,9.917,0,0,0-6.795-2.665,19.305,19.305,0,0,0-4.663.933,5.056,5.056,0,0,1-4.93-.933c-5.2-4-6.662-11.058-10.525-15.988-2.8-3.73-9.593-10.126-14.522-6-2.665,2.132-3.331,6.4-3.2,9.593.133,4,1.865,7.727,4,11.058,2.265,3.6,5.063,6.795,7.194,10.392a11.5,11.5,0,0,1,1.2,6.661c-.133,2.265-.4,4.53.4,6.795,2.4,6.661,9.726,5.729,15.455,5.862a42,42,0,0,1,12.124,2,13.574,13.574,0,0,1,8.793,8.66c1.2,3.2,1.732,6.661,3.864,9.459a11.513,11.513,0,0,0,3.864,2.8c2.265.933,9.06,1.466,9.06.8.133-2.132,1.2-4.263,1.732-6.262C134.484,307.2,135.817,303.607,137.282,300.01Z" transform="translate(-65.588 -192.035)" fill="#6baeff"/>
            <path id="Path_171" data-name="Path 171" d="M152.548,282.046c-.533-3.864-.533-7.994-2.265-11.591a.464.464,0,0,0-.666-.133c-1.332.666-1.332,2.8-1.466,4.13-.133,2.132,0,4.263-.266,6.4a44.684,44.684,0,0,1-2.665,11.058c-1.466,4-4.263,6.262-8.26,7.461-2.531.8-5.063,1.466-7.194,3.2a15.888,15.888,0,0,0-4.263,5.862c-2.665,6-4,12.657-5.2,19.185-.8,4.263-1.466,8.66-2.531,12.923s-2.132,8.527-2.8,12.923c-.133.266-.266.4-.266.666-.266.666.8,1.066,1.066.4,4.13-6.4,9.193-12.124,16.121-15.588,3.064-1.6,7.194-1.865,9.859-4.4,2-1.865,2.265-4.8,2-7.328-.4-3.331-2-6.129-3.73-9.06-.933-1.6-2-3.331-1.6-5.2a6.9,6.9,0,0,1,3.331-4.13c2.8-1.732,6.262-2.531,8.527-5.2a14.449,14.449,0,0,0,3.6-8.527A71.142,71.142,0,0,0,152.548,282.046Z" transform="translate(-49.278 -175.27)" fill="#6baeff"/>
            <path id="Path_172" data-name="Path 172" d="M106.615,299.308a56.554,56.554,0,0,0-13.057-12.124c-2.665-1.732-8.926-5.2-10.126,0-.8,3.064,2.265,6,4.13,7.994,2.931,2.8,6.4,5.329,8.793,8.66-3.064.933-6.262,1.2-8.926,3.331-3.2,2.531-4.53,7.328-1.466,10.392a20.7,20.7,0,0,0,5.462,3.331c2.531,1.2,4.93,2.265,7.461,3.331,5.462,2.265,11.058,4.663,15.721,8.394,4.8,3.864,9.193,10.259,9.593,16.521,0,.533-.133,0,.133-.266.133.133.8-.133.8-.533a65.327,65.327,0,0,0-5.6-26.513A104.979,104.979,0,0,0,106.615,299.308Z" transform="translate(-59.701 -170.55)" fill="#6baeff"/>
          </g>
          <g id="Group_174" data-name="Group 174" transform="translate(34.195 42.127)">
            <path id="Path_173" data-name="Path 173" d="M91.315,231.141q3,6.2,6.4,12.39a99.779,99.779,0,0,1,5.862,11.991c2,5.2,4,10.259,6.129,15.321,2.132,5.329,4.13,10.792,5.729,16.254a185.633,185.633,0,0,1,6.4,33.041,145.979,145.979,0,0,1,.666,17.054c-.133,4.4-.666,8.926-1.066,13.323a80.687,80.687,0,0,0-.4,13.856c.266,3.864.933,8.527,4,11.191a.674.674,0,0,0,1.066-.8c-3.6-7.328-3.331-15.322-2.665-23.182.4-4.4.933-8.793,1.066-13.19a141.35,141.35,0,0,0-.533-16.787,206.636,206.636,0,0,0-6-32.375,132.312,132.312,0,0,0-5.329-15.988c-2.132-5.2-4.53-10.392-6.528-15.588-3.6-9.593-9.193-17.986-14.122-26.913-.266-.4-.933,0-.666.4Z" transform="translate(-91.254 -230.576)" fill="#43588e"/>
          </g>
          <g id="Group_175" data-name="Group 175" transform="translate(64.374 82.328)">
            <path id="Path_174" data-name="Path 174" d="M114.564,299.187c.533-6.928,1.2-13.59,3.6-20.251,1.066-3.064,2.4-6.129,3.464-9.193.933-2.531,2.132-6.129,1.466-8.793a.377.377,0,0,0-.666,0c-.4,1.6-.4,3.331-.666,4.93a44.949,44.949,0,0,1-1.2,4.53c-1.066,3.2-2.4,6.262-3.6,9.459a46.171,46.171,0,0,0-2.931,19.452c0,.266.4.266.533-.133Z" transform="translate(-113.906 -260.75)" fill="#43588e"/>
          </g>
          <g id="Group_176" data-name="Group 176" transform="translate(24.646 80.391)">
            <path id="Path_175" data-name="Path 175" d="M84.1,259.7c2.8,6.661,11.058,7.061,17.054,8.527,4.263,1.066,7.461,4,9.726,7.727a56.392,56.392,0,0,1,5.6,13.456h.133c-1.732-7.994-4.13-17.586-12.39-21.317-6.662-2.931-15.322-1.466-19.585-8.66,0-.266-.666-.133-.533.267Z" transform="translate(-84.087 -259.296)" fill="#43588e"/>
          </g>
          <g id="Group_177" data-name="Group 177" transform="translate(60.584 119.433)">
            <path id="Path_176" data-name="Path 176" d="M111.113,288.866c.266.4.666.933.933,1.332.133.267.4.4.533.533.266.133.533.4.8.4.133,0,.266-.133.133-.267-.133-.266-.4-.4-.533-.533l-.533-.533a8.618,8.618,0,0,1-1.066-1.2c-.266.133-.4.266-.266.266Z" transform="translate(-111.061 -288.6)" fill="#43588e"/>
          </g>
          <g id="Group_178" data-name="Group 178" transform="translate(43.23 140.277)">
            <path id="Path_177" data-name="Path 177" d="M98.122,304.851a64.479,64.479,0,0,1,12.657,13.59,72.289,72.289,0,0,1,4.663,7.594c1.466,2.8,2.531,5.862,3.73,8.793.133.266.533.266.533,0-.666-6.262-4.663-11.591-7.861-16.92a43.253,43.253,0,0,0-5.862-7.194,47.587,47.587,0,0,0-7.328-6.4c-.4-.266-.8.266-.533.533Z" transform="translate(-98.035 -304.246)" fill="#43588e"/>
          </g>
          <g id="Group_179" data-name="Group 179" transform="translate(67.031 133.483)">
            <path id="Path_178" data-name="Path 178" d="M130.156,299.218c-2.265,1.332-2.4,4.93-2.4,7.194-.133,4.4,1.066,8.66-.933,12.79-1.732,3.864-4.53,7.061-6.795,10.525-2.132,3.331-4.13,7.594-4.13,11.591,0,.266.4.4.4.133a46.856,46.856,0,0,0,1.732-5.729,24.609,24.609,0,0,1,2.8-6c2.132-3.331,4.8-6.262,6.528-9.859,1.865-3.73,1.6-7.461,1.466-11.458-.133-2.531-.4-6.795,1.732-8.66a.334.334,0,1,0-.4-.533Z" transform="translate(-115.9 -299.145)" fill="#43588e"/>
          </g>
        </g>
        <path id="Path_179" data-name="Path 179" d="M121.779,331.266C112.586,331.133,95,331,95,331l4.4,32.375a14.542,14.542,0,0,0,14.522,12.657h15.988a14.656,14.656,0,0,0,14.522-12.657l4.4-32.375C148.559,331,130.972,331.133,121.779,331.266Z" transform="translate(-55.814 -155.078)" fill="#fff"/>
      </g>
      <g id="Group_187" data-name="Group 187" transform="translate(204.125 249.674)">
        <g id="Group_185" data-name="Group 185">
          <g id="Group_182" data-name="Group 182" transform="translate(101.921 2.398)">
            <path id="Path_180" data-name="Path 180" d="M501.674,286.966,448.915,391.418,295.3,392.484,342.73,285.5Z" transform="translate(-295.3 -285.5)" fill="#f6f7fa"/>
          </g>
          <g id="Group_183" data-name="Group 183">
            <path id="Path_181" data-name="Path 181" d="M218.8,392.416v-8.394h99.39l45.7-100.323H522.966l4,3.864H371.749L324.185,392.283S218.8,392.15,218.8,392.416Z" transform="translate(-218.8 -283.7)" fill="#d9dee8"/>
          </g>
          <g id="Group_184" data-name="Group 184" transform="translate(192.377 51.548)">
            <path id="Path_182" data-name="Path 182" d="M399.307,332.262c-1.732,5.2-11.191,9.193-21.05,8.926s-16.521-4.663-14.789-9.859,11.191-9.193,21.05-8.926C394.511,322.67,401.039,327.066,399.307,332.262Z" transform="translate(-363.194 -322.391)" fill="#d9dee8"/>
          </g>
        </g>
        <g id="Group_186" data-name="Group 186" transform="translate(104.714 3.198)">
          <path id="Path_183" data-name="Path 183" d="M298.068,392.152H297.8a.572.572,0,0,1-.266-.933l47.7-105.119H500.978a.666.666,0,1,1,0,1.332H346.031L298.6,391.752C298.467,392.018,298.334,392.152,298.068,392.152Z" transform="translate(-297.396 -286.1)" fill="#fff"/>
        </g>
      </g>
      <g id="Group_189" data-name="Group 189" transform="translate(5.612 358.257)">
        <g id="Group_188" data-name="Group 188" transform="translate(8.793 7.994)">
          <rect id="Rectangle_69" data-name="Rectangle 69" width="182.792" height="40.502" fill="#596b9b"/>
          <rect id="Rectangle_70" data-name="Rectangle 70" width="328.813" height="40.502" transform="translate(181.727)" fill="#7a89af"/>
        </g>
        <path id="Path_184" data-name="Path 184" d="M259.192,371.2H76.4v7.461H586.94V371.2Z" transform="translate(-67.607 -363.206)" fill="#bdc4d7"/>
        <rect id="Rectangle_71" data-name="Rectangle 71" width="199.579" height="9.859" fill="#6f7fa9"/>
        <rect id="Rectangle_72" data-name="Rectangle 72" width="328.813" height="9.859" transform="translate(198.514)" fill="#9ca6c3"/>
      </g>
      <g id="Group_191" data-name="Group 191" transform="translate(79.422 99.124)">
        <path id="Path_185" data-name="Path 185" d="M196.878,217.331H132.394a7.165,7.165,0,0,1-7.194-7.194V177.894a7.165,7.165,0,0,1,7.194-7.194h64.484a7.165,7.165,0,0,1,7.194,7.194v32.242A7.25,7.25,0,0,1,196.878,217.331Z" transform="translate(-125.2 -170.7)" fill="#fff"/>
        <path id="Path_186" data-name="Path 186" d="M204.248,190.626,180,180.5v20.384Z" transform="translate(-106.99 -167.443)" fill="#fff"/>
        <g id="Group_190" data-name="Group 190" transform="translate(19.718 18.786)">
          <circle id="Ellipse_14" data-name="Ellipse 14" cx="4.397" cy="4.397" r="4.397" fill="#223a7a"/>
          <circle id="Ellipse_15" data-name="Ellipse 15" cx="4.397" cy="4.397" r="4.397" transform="translate(15.322)" fill="#223a7a"/>
          <circle id="Ellipse_16" data-name="Ellipse 16" cx="4.397" cy="4.397" r="4.397" transform="translate(30.51)" fill="#223a7a"/>
        </g>
      </g>
      <g id="Group_192" data-name="Group 192" transform="translate(313.241)">
        <path id="Path_187" data-name="Path 187" d="M466.972,96.3H318.02a17.285,17.285,0,0,0-17.32,17.32v70.612a17.285,17.285,0,0,0,17.32,17.32h13.323c.4,6.4-.533,15.988-5.862,28.112a74.432,74.432,0,0,0,32.242-28.112H466.972a17.286,17.286,0,0,0,17.32-17.32V113.62A17.286,17.286,0,0,0,466.972,96.3Z" transform="translate(-300.7 -96.3)" fill="#60a8ff"/>
        <path id="Path_188" data-name="Path 188" d="M397.14,123.361H323.33a3.724,3.724,0,0,1-3.73-3.73h0a3.724,3.724,0,0,1,3.73-3.73h73.81a3.724,3.724,0,0,1,3.73,3.73h0A3.724,3.724,0,0,1,397.14,123.361Z" transform="translate(-294.419 -89.787)" fill="#fff"/>
        <path id="Path_189" data-name="Path 189" d="M450.166,138.73h-128.3a2.335,2.335,0,0,1-2.265-2.265h0a2.335,2.335,0,0,1,2.265-2.265h128.3a2.335,2.335,0,0,1,2.265,2.265h0A2.246,2.246,0,0,1,450.166,138.73Z" transform="translate(-294.419 -83.706)" fill="#d2e6ff"/>
        <path id="Path_190" data-name="Path 190" d="M450.166,148.13h-128.3a2.335,2.335,0,0,1-2.265-2.265h0a2.335,2.335,0,0,1,2.265-2.265h128.3a2.335,2.335,0,0,1,2.265,2.265h0A2.335,2.335,0,0,1,450.166,148.13Z" transform="translate(-294.419 -80.582)" fill="#d2e6ff"/>
        <path id="Path_191" data-name="Path 191" d="M422.188,158.13H321.865a2.335,2.335,0,0,1-2.265-2.265h0a2.335,2.335,0,0,1,2.265-2.265H422.188a2.335,2.335,0,0,1,2.265,2.265h0A2.335,2.335,0,0,1,422.188,158.13Z" transform="translate(-294.419 -77.259)" fill="#d2e6ff"/>
        <path id="Path_192" data-name="Path 192" d="M426.537,123.361H391.23a3.724,3.724,0,0,1-3.73-3.73h0a3.724,3.724,0,0,1,3.73-3.73h35.306a3.724,3.724,0,0,1,3.73,3.73h0A3.724,3.724,0,0,1,426.537,123.361Z" transform="translate(-271.856 -89.787)" fill="#fff"/>
      </g>
      <g id="Group_199" data-name="Group 199" transform="translate(336.423 149.085)">
        <path id="Path_193" data-name="Path 193" d="M360.734,251.642H320.765a2.672,2.672,0,0,1-2.665-2.665V221.665A2.672,2.672,0,0,1,320.765,219h39.969a2.672,2.672,0,0,1,2.665,2.665v27.312A2.672,2.672,0,0,1,360.734,251.642Z" transform="translate(-318.1 -204.611)" fill="#fff"/>
        <g id="Group_196" data-name="Group 196" transform="translate(0.158 15.08)">
          <g id="Group_193" data-name="Group 193">
            <path id="Path_194" data-name="Path 194" d="M340.976,240.011c-.266,0-.4-.133-.666-.266l-21.717-17.986a1.041,1.041,0,1,1,1.332-1.6l21.184,17.453L361.76,219.76a1.041,1.041,0,0,1,1.332,1.6l-21.184,18.519C341.509,239.878,341.243,240.011,340.976,240.011Z" transform="translate(-318.219 -219.519)" fill="#6f7fa9"/>
          </g>
          <g id="Group_194" data-name="Group 194" transform="translate(0.075 13.131)">
            <path id="Path_195" data-name="Path 195" d="M319.241,247.394a1.018,1.018,0,0,1-.666-.266,1.046,1.046,0,0,1,0-1.466l15.188-15.988a1.036,1.036,0,0,1,1.466,1.466L320.04,247.128A.979.979,0,0,1,319.241,247.394Z" transform="translate(-318.275 -229.375)" fill="#6f7fa9"/>
          </g>
          <g id="Group_195" data-name="Group 195" transform="translate(27.92 13.398)">
            <path id="Path_196" data-name="Path 196" d="M355.329,246.8a1.018,1.018,0,0,1-.666-.266L339.475,231.34a1.036,1.036,0,1,1,1.466-1.466l15.188,15.188a1.046,1.046,0,0,1,0,1.466C355.729,246.662,355.6,246.8,355.329,246.8Z" transform="translate(-339.175 -229.575)" fill="#6f7fa9"/>
          </g>
        </g>
        <g id="Group_198" data-name="Group 198" transform="translate(34.107)">
          <g id="Group_197" data-name="Group 197">
            <circle id="Ellipse_17" data-name="Ellipse 17" cx="13.323" cy="13.323" r="13.323" fill="#ffcc01"/>
          </g>
          <text id="_85" data-name="85" transform="translate(3.933 16.682)" fill="#fff" font-size="14" font-family="SegoeUI, Segoe UI"><tspan x="0" y="0">85</tspan></text>
        </g>
      </g>
      <g id="Group_206" data-name="Group 206" transform="translate(434.747 134.563)">
        <g id="Group_200" data-name="Group 200">
          <path id="Path_197" data-name="Path 197" d="M475.3,220.216H397.229a5.345,5.345,0,0,1-5.329-5.329V202.629a5.345,5.345,0,0,1,5.329-5.329H475.3a5.345,5.345,0,0,1,5.329,5.329v12.257A5.345,5.345,0,0,1,475.3,220.216Z" transform="translate(-391.9 -197.3)" fill="#223a7a"/>
        </g>
        <g id="Group_201" data-name="Group 201" transform="translate(5.775 5.862)">
          <path id="Path_198" data-name="Path 198" d="M401.385,213.424a.806.806,0,0,1-.8-.4,1.124,1.124,0,0,1-.266-.933l.4-2.931v-.133h-.133l-2.4,1.732a1.268,1.268,0,0,1-.933.266c-.266,0-.533-.266-.8-.533a1.069,1.069,0,0,1-.133-1.066,1.606,1.606,0,0,1,.666-.666l2.8-1.2c.133,0,.133,0,.133-.133a.13.13,0,0,0-.133-.133l-2.8-1.2a1.1,1.1,0,0,1-.666-.666,1.17,1.17,0,0,1,.133-.933.9.9,0,0,1,.8-.533,1.268,1.268,0,0,1,.933.266l2.4,1.865h.133v-.133l-.4-2.931a1.925,1.925,0,0,1,.266-.933,1.21,1.21,0,0,1,.933-.4.806.806,0,0,1,.8.4,1.124,1.124,0,0,1,.266.933l-.4,2.931v.133h.133l2.4-1.732a1.268,1.268,0,0,1,.933-.266c.4,0,.533.266.8.533a1.069,1.069,0,0,1,.133,1.066,1.605,1.605,0,0,1-.666.666l-2.8,1.2c-.133,0-.133,0-.133.133a.13.13,0,0,0,.133.133l2.8,1.2a1.1,1.1,0,0,1,.666.666.821.821,0,0,1-.133.933.9.9,0,0,1-.8.533,1.124,1.124,0,0,1-.933-.266l-2.4-1.865h-.133v.133l.4,2.931a1.124,1.124,0,0,1-.266.933A1.21,1.21,0,0,1,401.385,213.424Z" transform="translate(-396.234 -201.7)" fill="#fff"/>
        </g>
        <g id="Group_202" data-name="Group 202" transform="translate(21.895 5.862)">
          <path id="Path_199" data-name="Path 199" d="M413.485,213.424a.806.806,0,0,1-.8-.4,1.124,1.124,0,0,1-.266-.933l.4-2.931v-.133h-.133l-2.4,1.732a1.268,1.268,0,0,1-.933.266c-.266,0-.533-.266-.8-.533a1.069,1.069,0,0,1-.133-1.066,1.605,1.605,0,0,1,.666-.666l2.8-1.2c.133,0,.133,0,.133-.133a.13.13,0,0,0-.133-.133l-2.8-1.2a1.094,1.094,0,0,1-.666-.666,1.17,1.17,0,0,1,.133-.933c.266-.266.4-.533.8-.533a1.269,1.269,0,0,1,.933.266l2.4,1.865h.133v-.133l-.4-2.931a1.925,1.925,0,0,1,.266-.933,1.21,1.21,0,0,1,.933-.4.806.806,0,0,1,.8.4,1.124,1.124,0,0,1,.267.933l-.4,2.931v.133h.133l2.4-1.732a1.269,1.269,0,0,1,.933-.266c.4,0,.533.266.8.533a1.069,1.069,0,0,1,.133,1.066,1.605,1.605,0,0,1-.666.666l-2.8,1.2c-.133,0-.133,0-.133.133a.13.13,0,0,0,.133.133l2.8,1.2a1.094,1.094,0,0,1,.666.666.82.82,0,0,1-.133.933.9.9,0,0,1-.8.533,1.124,1.124,0,0,1-.933-.266l-2.4-1.865h-.133v.133l.4,2.931a1.124,1.124,0,0,1-.267.933A1.21,1.21,0,0,1,413.485,213.424Z" transform="translate(-408.334 -201.7)" fill="#fff"/>
        </g>
        <g id="Group_203" data-name="Group 203" transform="translate(38.016 5.862)">
          <path id="Path_200" data-name="Path 200" d="M425.585,213.424a.806.806,0,0,1-.8-.4,1.124,1.124,0,0,1-.266-.933l.4-2.931v-.133h-.133l-2.4,1.732a1.268,1.268,0,0,1-.933.266c-.267,0-.533-.266-.8-.533a1.069,1.069,0,0,1-.133-1.066,1.605,1.605,0,0,1,.666-.666l2.8-1.2c.133,0,.133,0,.133-.133a.13.13,0,0,0-.133-.133l-2.8-1.2a1.1,1.1,0,0,1-.666-.666,1.17,1.17,0,0,1,.133-.933.9.9,0,0,1,.8-.533,1.268,1.268,0,0,1,.933.266l2.4,1.865h.133v-.133l-.4-2.931a1.925,1.925,0,0,1,.266-.933,1.21,1.21,0,0,1,.933-.4.806.806,0,0,1,.8.4,1.124,1.124,0,0,1,.266.933l-.4,2.931v.133h.133l2.4-1.732a1.268,1.268,0,0,1,.933-.266c.4,0,.533.266.8.533a1.069,1.069,0,0,1,.133,1.066,1.605,1.605,0,0,1-.666.666l-2.8,1.2c-.133,0-.133,0-.133.133a.13.13,0,0,0,.133.133l2.8,1.2a1.094,1.094,0,0,1,.666.666.82.82,0,0,1-.133.933.9.9,0,0,1-.8.533,1.124,1.124,0,0,1-.933-.266l-2.4-1.865h-.133v.133l.4,2.931a1.124,1.124,0,0,1-.266.933A1.037,1.037,0,0,1,425.585,213.424Z" transform="translate(-420.434 -201.7)" fill="#fff"/>
        </g>
        <g id="Group_204" data-name="Group 204" transform="translate(54.27 5.862)">
          <path id="Path_201" data-name="Path 201" d="M437.785,213.424a.806.806,0,0,1-.8-.4,1.124,1.124,0,0,1-.266-.933l.4-2.931v-.133h-.133l-2.4,1.732a1.268,1.268,0,0,1-.933.266c-.266,0-.533-.266-.8-.533a1.069,1.069,0,0,1-.133-1.066,1.6,1.6,0,0,1,.666-.666l2.8-1.2c.133,0,.133,0,.133-.133a.13.13,0,0,0-.133-.133l-2.8-1.2a1.094,1.094,0,0,1-.666-.666,1.17,1.17,0,0,1,.133-.933c.266-.266.4-.533.8-.533a1.268,1.268,0,0,1,.933.266l2.4,1.865h.133v-.133l-.4-2.931a1.925,1.925,0,0,1,.266-.933,1.21,1.21,0,0,1,.933-.4.806.806,0,0,1,.8.4,1.124,1.124,0,0,1,.266.933l-.4,2.931v.133h.133l2.4-1.732a1.268,1.268,0,0,1,.933-.266c.4,0,.533.266.8.533a1.069,1.069,0,0,1,.133,1.066,1.605,1.605,0,0,1-.666.666l-2.8,1.2c-.133,0-.133,0-.133.133a.13.13,0,0,0,.133.133l2.8,1.2a1.1,1.1,0,0,1,.666.666.821.821,0,0,1-.133.933.9.9,0,0,1-.8.533,1.124,1.124,0,0,1-.933-.266l-2.4-1.865h-.133v.133l.4,2.931a1.124,1.124,0,0,1-.266.933A1.21,1.21,0,0,1,437.785,213.424Z" transform="translate(-432.634 -201.7)" fill="#fff"/>
        </g>
        <g id="Group_205" data-name="Group 205" transform="translate(70.391 5.862)">
          <path id="Path_202" data-name="Path 202" d="M449.885,213.424a.806.806,0,0,1-.8-.4,1.124,1.124,0,0,1-.266-.933l.4-2.931v-.133h-.133l-2.4,1.732a1.269,1.269,0,0,1-.933.266c-.266,0-.533-.266-.8-.533a1.069,1.069,0,0,1-.133-1.066,1.606,1.606,0,0,1,.666-.666l2.8-1.2c.133,0,.133,0,.133-.133a.13.13,0,0,0-.133-.133l-2.8-1.2a1.094,1.094,0,0,1-.666-.666,1.17,1.17,0,0,1,.133-.933.9.9,0,0,1,.8-.533,1.269,1.269,0,0,1,.933.266l2.4,1.865h.133v-.133l-.4-2.931a1.926,1.926,0,0,1,.266-.933,1.21,1.21,0,0,1,.933-.4.806.806,0,0,1,.8.4,1.124,1.124,0,0,1,.266.933l-.4,2.931v.133h.133l2.4-1.732a1.269,1.269,0,0,1,.933-.266c.4,0,.533.266.8.533a1.069,1.069,0,0,1,.133,1.066,1.6,1.6,0,0,1-.666.666l-2.8,1.2c-.133,0-.133,0-.133.133a.13.13,0,0,0,.133.133l2.8,1.2a1.094,1.094,0,0,1,.666.666.82.82,0,0,1-.133.933.9.9,0,0,1-.8.533,1.124,1.124,0,0,1-.933-.266l-2.4-1.865h-.133v.133l.4,2.931a1.124,1.124,0,0,1-.266.933A1.21,1.21,0,0,1,449.885,213.424Z" transform="translate(-444.734 -201.7)" fill="#67acff"/>
        </g>
      </g>
    </g>
  </g>
</svg>
