<svg xmlns="http://www.w3.org/2000/svg" xmlns:xlink="http://www.w3.org/1999/xlink" width="352.261" height="432.344" viewBox="0 0 352.261 432.344"><defs><style>.a{fill:#f2f8ff;}.a,.d{opacity:0.45;}.b{fill:#f8f8f8;stroke:rgba(0,0,0,0.2);}.c{fill:#efc003;}.d{fill:none;mix-blend-mode:multiply;isolation:isolate;}.e{filter:url(#a);}</style><filter id="a" x="0" y="0" width="352.261" height="432.344" filterUnits="userSpaceOnUse"><feOffset dx="4" dy="4" input="SourceAlpha"/><feGaussianBlur stdDeviation="3.5" result="b"/><feFlood flood-color="#6d6868" flood-opacity="0.502"/><feComposite operator="in" in2="b"/><feComposite in="SourceGraphic"/></filter></defs><g transform="translate(-201.268 -2640.026)"><g class="e" transform="matrix(1, 0, 0, 1, 201.27, 2640.03)"><path class="a" d="M1180.322,525.475,1052,443.322a34.153,34.153,0,0,0-37.3,0L886.365,525.475c-11.542,7.388-18.652,21.044-18.652,35.823V725.6c0,14.779,7.11,28.435,18.652,35.823l128.327,82.153a34.153,34.153,0,0,0,37.3,0l128.327-82.153c11.542-7.388,18.652-21.044,18.652-35.823V561.3C1198.974,546.519,1191.864,532.863,1180.322,525.475Z" transform="translate(-861.21 -431.28)"/></g><path class="b" d="M867.713,561.3V725.6c0,14.779,7.11,28.435,18.652,35.823l128.327,82.153a34.153,34.153,0,0,0,37.3,0l128.327-82.153c11.542-7.388,18.652-21.044,18.652-35.823V561.3c0-14.779-7.11-28.435-18.652-35.823L1052,443.322a34.153,34.153,0,0,0-37.3,0L886.365,525.475C874.823,532.863,867.713,546.519,867.713,561.3Z" transform="translate(-659.945 2208.747)"/><path class="c" d="M1198.974,579.706V549.173a37.3,37.3,0,0,0-18.652-32.307L1052,442.778a37.3,37.3,0,0,0-37.3,0L886.365,516.866a37.3,37.3,0,0,0-18.652,32.307v30.533Z" transform="translate(-659.945 2208.747)"/><rect class="d" width="331.26" height="17.279" transform="translate(207.768 2771.175)"/></g></svg>