<svg xmlns="http://www.w3.org/2000/svg" width="31.125" height="41.5" viewBox="0 0 31.125 41.5"><defs><style>.a{fill:#efc003;}</style></defs><path class="a" d="M9.727,5.836a5.836,5.836,0,1,1,5.836,5.836A5.836,5.836,0,0,1,9.727,5.836Zm20.639.111a2.594,2.594,0,0,0-3.668,0l-7.022,7.022H11.449L4.428,5.947A2.594,2.594,0,0,0,.76,9.615l7.67,7.67V38.906A2.594,2.594,0,0,0,11.023,41.5h1.3a2.594,2.594,0,0,0,2.594-2.594V29.828h1.3v9.078A2.594,2.594,0,0,0,18.8,41.5h1.3A2.594,2.594,0,0,0,22.7,38.906V17.285l7.67-7.67a2.594,2.594,0,0,0,0-3.668Z" transform="translate(0)"/></svg>