<svg xmlns="http://www.w3.org/2000/svg" width="48" height="48" viewBox="0 0 48 48"><defs><style>.a{fill:#ed2024;}.b{fill:#fff;}</style></defs><g transform="translate(-382 -3078)"><rect class="a" width="48" height="48" rx="3" transform="translate(382 3078)"/><path class="b" d="M13.561,0A13.516,13.516,0,0,0,8.634,26.1a12.994,12.994,0,0,1,.046-3.878c.247-1.057,1.585-6.717,1.585-6.717a4.891,4.891,0,0,1-.4-2.008c0-1.875,1.09-3.282,2.445-3.282a1.7,1.7,0,0,1,1.712,1.9c0,1.16-.736,2.895-1.119,4.5a1.961,1.961,0,0,0,2,2.441c2.4,0,4.249-2.531,4.249-6.187A5.335,5.335,0,0,0,13.5,7.386a5.849,5.849,0,0,0-6.1,5.862,5.263,5.263,0,0,0,1,3.091.412.412,0,0,1,.1.389c-.1.423-.33,1.352-.377,1.537-.06.254-.194.306-.452.186-1.686-.778-2.743-3.245-2.743-5.239,0-4.258,3.1-8.177,8.931-8.177,4.689,0,8.335,3.346,8.335,7.806,0,4.663-2.94,8.414-7.028,8.414a3.651,3.651,0,0,1-3.11-1.555l-.845,3.211a14.726,14.726,0,0,1-1.689,3.547,13.518,13.518,0,1,0,4-26.43Z" transform="translate(392.957 3088)"/></g></svg>