<svg xmlns="http://www.w3.org/2000/svg" width="10.392" height="15.518" viewBox="0 0 10.392 15.518"><defs><style>.a{fill:#002f80;}</style></defs><path class="a" d="M20.66,8.176V9.3a.335.335,0,0,1-.1.253.37.37,0,0,1-.266.1H18.345a4.072,4.072,0,0,1-1.493,2.579,6.031,6.031,0,0,1-3.194,1.212q1.933,1.962,5.312,5.907a.291.291,0,0,1,.046.375.338.338,0,0,1-.336.2H16.424a.348.348,0,0,1-.289-.132q-3.541-4.045-5.763-6.293a.322.322,0,0,1-.1-.242v-1.4a.331.331,0,0,1,.11-.248.365.365,0,0,1,.26-.1h1.3a5.445,5.445,0,0,0,2.459-.474,2.18,2.18,0,0,0,1.186-1.378H10.638a.37.37,0,0,1-.266-.1.335.335,0,0,1-.1-.253V8.176a.335.335,0,0,1,.1-.253.37.37,0,0,1,.266-.1h4.779q-.66-1.245-3.1-1.245H10.638a.365.365,0,0,1-.26-.1.331.331,0,0,1-.11-.248V4.76a.335.335,0,0,1,.1-.253.37.37,0,0,1,.266-.1h9.628a.37.37,0,0,1,.266.1.335.335,0,0,1,.1.253V5.884a.335.335,0,0,1-.1.253.37.37,0,0,1-.266.1h-2.7a3.727,3.727,0,0,1,.741,1.587h1.979a.37.37,0,0,1,.266.1.335.335,0,0,1,.1.253Z" transform="translate(-10.268 -4.407)"/></svg>