<?xml version="1.0" standalone="no"?>
<!DOCTYPE svg PUBLIC "-//W3C//DTD SVG 20010904//EN"
 "http://www.w3.org/TR/2001/REC-SVG-20010904/DTD/svg10.dtd">
<svg version="1.0" xmlns="http://www.w3.org/2000/svg"
 width="114.000000pt" height="30.000000pt" viewBox="0 0 114.000000 30.000000"
 preserveAspectRatio="xMidYMid meet">
<metadata>
Created by potrace 1.16, written by Peter Selinger 2001-2019
</metadata>
<g transform="translate(0.000000,30.000000) scale(0.100000,-0.100000)"
fill="#000000" stroke="none">
<path d="M73 259 c-39 -25 -67 -90 -58 -136 7 -39 61 -99 98 -108 73 -19 157
35 171 108 10 54 -20 118 -67 140 -47 23 -105 21 -144 -4z m131 -4 c97 -46 83
-188 -22 -225 -40 -14 -45 -13 -87 9 -35 18 -48 33 -61 67 -15 39 -15 48 -3
81 27 71 104 101 173 68z"/>
<path d="M100 191 c-12 -23 -13 -91 -1 -109 6 -11 13 -11 35 -1 21 10 32 10
46 1 26 -16 39 9 34 63 -7 62 -9 65 -58 65 -35 0 -48 -5 -56 -19z"/>
<path d="M384 153 c-10 -15 -21 -33 -26 -39 -8 -11 76 -19 150 -13 9 1 24 -1
33 -5 10 -4 23 -1 33 9 14 15 18 15 31 2 8 -9 23 -13 34 -10 24 6 46 62 31 77
-6 6 -13 -1 -21 -22 -14 -41 -30 -42 -22 -1 5 25 3 31 -8 27 -8 -2 -15 -14
-17 -26 -3 -23 -17 -29 -26 -13 -4 5 -1 11 6 13 17 6 0 28 -21 28 -30 0 -45
-25 -26 -44 15 -15 15 -16 0 -16 -9 0 -23 6 -30 14 -12 12 -12 15 1 20 8 3 12
10 9 16 -8 13 -35 13 -55 0 -12 -8 -13 -13 -2 -30 11 -17 10 -20 -7 -20 -14 0
-21 8 -23 27 -4 37 -23 40 -44 6z"/>
</g>
</svg>
