<svg xmlns="http://www.w3.org/2000/svg" width="75.504" height="52.853" viewBox="0 0 75.504 52.853"><defs><style>.a{fill:#efc003;}</style></defs><path class="a" d="M74.9,16.747a54.853,54.853,0,0,0-74.3,0,1.875,1.875,0,0,0-.041,2.711L4.6,23.465a1.916,1.916,0,0,0,2.643.045,45.263,45.263,0,0,1,61.023,0,1.917,1.917,0,0,0,2.643-.045l4.039-4.008A1.876,1.876,0,0,0,74.9,16.747ZM37.752,40a7.55,7.55,0,1,0,7.55,7.55A7.55,7.55,0,0,0,37.752,40Zm23.91-9.862a36.218,36.218,0,0,0-47.82,0,1.865,1.865,0,0,0-.067,2.731l4.063,4.01a1.926,1.926,0,0,0,2.6.094,26.571,26.571,0,0,1,34.625,0,1.925,1.925,0,0,0,2.6-.094l4.063-4.01A1.865,1.865,0,0,0,61.662,30.141Z" transform="translate(0 -2.25)"/></svg>