<svg xmlns="http://www.w3.org/2000/svg" width="48" height="48" viewBox="0 0 48 48"><defs><style>.a{fill:#03aee8;}.b{fill:#fff;}</style></defs><g transform="translate(-464 -3078)"><rect class="a" width="48" height="48" rx="3" transform="translate(464 3078)"/><path class="b" d="M24.36,8.876c.017.241.017.482.017.724A15.724,15.724,0,0,1,8.545,25.432,15.725,15.725,0,0,1,0,22.934,11.511,11.511,0,0,0,1.344,23a11.144,11.144,0,0,0,6.908-2.377,5.574,5.574,0,0,1-5.2-3.859,7.017,7.017,0,0,0,1.051.086,5.885,5.885,0,0,0,1.464-.189A5.565,5.565,0,0,1,1.1,11.2v-.069a5.6,5.6,0,0,0,2.515.706A5.573,5.573,0,0,1,1.895,4.4,15.817,15.817,0,0,0,13.369,10.22a6.282,6.282,0,0,1-.138-1.275,5.57,5.57,0,0,1,9.63-3.807,10.955,10.955,0,0,0,3.532-1.344,5.549,5.549,0,0,1-2.446,3.066A11.155,11.155,0,0,0,27.151,6,11.962,11.962,0,0,1,24.36,8.876Z" transform="translate(474 3087.619)"/></g></svg>