<svg xmlns="http://www.w3.org/2000/svg" width="33.338" height="26.67" viewBox="0 0 33.338 26.67"><defs><style>.a{fill:#efc003;}</style></defs><path class="a" d="M11.668,16.669h1.667V5H11.668A1.667,1.667,0,0,0,10,6.668V15A1.667,1.667,0,0,0,11.668,16.669ZM30,15V6.668A1.667,1.667,0,0,0,28.337,5H26.67V16.669h1.667A1.667,1.667,0,0,0,30,15Zm2.5,5H6.668V.833A.833.833,0,0,0,5.834,0h-5A.833.833,0,0,0,0,.833V2.5a.833.833,0,0,0,.833.833h2.5V22.5a.833.833,0,0,0,.833.833h4.32a2.474,2.474,0,0,0-.153.833,2.5,2.5,0,0,0,5,0,2.474,2.474,0,0,0-.153-.833H23.49a2.474,2.474,0,0,0-.153.833,2.5,2.5,0,0,0,5,0,2.474,2.474,0,0,0-.153-.833H32.5a.833.833,0,0,0,.833-.833V20.836A.833.833,0,0,0,32.5,20ZM25,5V2.5A2.5,2.5,0,0,0,22.5,0h-5A2.5,2.5,0,0,0,15,2.5V16.669H25ZM22.5,5h-5V2.5h5Z"/></svg>