<svg xmlns="http://www.w3.org/2000/svg" width="12.5" height="12.5" viewBox="0 0 12.5 12.5"><defs><style>.a{fill:#efc003;}</style></defs><path class="a" d="M12.3,6.438l.2-1.116a.335.335,0,0,0-.33-.394H10.078l.408-2.285a.335.335,0,0,0-.33-.394H9.022a.335.335,0,0,0-.33.276l-.429,2.4H5.512L5.92,2.644a.335.335,0,0,0-.33-.394H4.456a.335.335,0,0,0-.33.276L3.7,4.929H1.491a.335.335,0,0,0-.33.276l-.2,1.116a.335.335,0,0,0,.33.394H3.379l-.638,3.571H.534a.335.335,0,0,0-.33.276l-.2,1.116a.335.335,0,0,0,.33.394H2.422l-.408,2.285a.335.335,0,0,0,.33.394H3.478a.335.335,0,0,0,.33-.276l.429-2.4H6.988L6.58,14.356a.335.335,0,0,0,.33.394H8.044a.335.335,0,0,0,.33-.276l.429-2.4h2.207a.335.335,0,0,0,.33-.276l.2-1.116a.335.335,0,0,0-.33-.394H9.121l.638-3.571h2.207a.335.335,0,0,0,.33-.276ZM7.307,10.286H4.555l.638-3.571H7.945Z" transform="translate(0 -2.25)"/></svg>