<svg xmlns="http://www.w3.org/2000/svg" width="14.267" height="14.267" viewBox="0 0 14.267 14.267"><defs><style>.a{fill:#efc003;}</style></defs><path class="a" d="M13.6,3.567h-.223V2.229C13.375.981,10.611,0,7.133,0S.892.981.892,2.229V3.567H.669A.669.669,0,0,0,0,4.235V6.465a.669.669,0,0,0,.669.669H.892v4.458a.892.892,0,0,0,.892.892v.892a.892.892,0,0,0,.892.892h.892a.892.892,0,0,0,.892-.892v-.892h5.35v.892a.892.892,0,0,0,.892.892h.892a.892.892,0,0,0,.892-.892v-.892h.178a.7.7,0,0,0,.713-.713V7.133H13.6a.669.669,0,0,0,.669-.669V4.235A.669.669,0,0,0,13.6,3.567Zm-9.14-1.56a.223.223,0,0,1,.223-.223h4.9a.223.223,0,0,1,.223.223v.446a.223.223,0,0,1-.223.223h-4.9a.223.223,0,0,1-.223-.223Zm-1.337,9.14a.892.892,0,1,1,.892-.892A.892.892,0,0,1,3.121,11.146ZM6.687,8.025H3.567a.892.892,0,0,1-.892-.892V4.458a.892.892,0,0,1,.892-.892H6.687Zm.892,0V3.567H10.7a.892.892,0,0,1,.892.892V7.133a.892.892,0,0,1-.892.892Zm3.567,3.121a.892.892,0,1,1,.892-.892A.892.892,0,0,1,11.146,11.146Z"/></svg>