<svg xmlns="http://www.w3.org/2000/svg" width="25.402" height="33.34" viewBox="0 0 25.402 33.34"><defs><style>.a{fill:#072c6b;}</style></defs><path class="a" d="M28.227,12.613H26.639V9.438a7.938,7.938,0,1,0-15.876,0v3.175H9.175A3.185,3.185,0,0,0,6,15.789V31.665A3.185,3.185,0,0,0,9.175,34.84H28.227A3.185,3.185,0,0,0,31.4,31.665V15.789A3.185,3.185,0,0,0,28.227,12.613ZM18.7,26.9a3.175,3.175,0,1,1,3.175-3.175A3.185,3.185,0,0,1,18.7,26.9Zm4.922-14.289H13.779V9.438a4.922,4.922,0,1,1,9.843,0Z" transform="translate(-6 -1.5)"/></svg>