<svg xmlns="http://www.w3.org/2000/svg" width="30" height="28.507" viewBox="0 0 30 28.507"><defs><style>.a{fill:#efc003;}</style></defs><g transform="translate(-3 -4.5)"><path class="a" d="M10.5,14.25A3.75,3.75,0,1,1,6.75,10.5a3.75,3.75,0,0,1,3.75,3.75Z"/><path class="a" d="M17.25,8.25A3.75,3.75,0,1,1,13.5,4.5a3.75,3.75,0,0,1,3.75,3.75Z"/><path class="a" d="M26.25,8.25A3.75,3.75,0,1,1,22.5,4.5a3.75,3.75,0,0,1,3.75,3.75Z"/><path class="a" d="M33,14.25a3.75,3.75,0,1,1-3.75-3.75A3.75,3.75,0,0,1,33,14.25Z"/><path class="a" d="M26.01,22.29c-1.305-1.53-2.4-2.835-3.72-4.365a6.364,6.364,0,0,0-2.625-1.98,3.037,3.037,0,0,0-.5-.135A7.549,7.549,0,0,0,18,15.75a6.293,6.293,0,0,0-1.185.075,3.037,3.037,0,0,0-.5.135,6.462,6.462,0,0,0-2.625,1.98c-1.305,1.53-2.4,2.835-3.72,4.365-1.965,1.965-4.38,4.14-3.93,7.185A4.71,4.71,0,0,0,9.54,32.97c1.1.225,4.59-.66,8.31-.66h.27c3.72,0,7.215.87,8.31.66a4.732,4.732,0,0,0,3.495-3.48c.465-3.06-1.95-5.235-3.915-7.2Z"/></g></svg>