<svg xmlns="http://www.w3.org/2000/svg" width="42.594" height="42.594" viewBox="0 0 42.594 42.594"><defs><style>.a{fill:#efc003;}</style></defs><path class="a" d="M21.3.562a21.3,21.3,0,1,0,21.3,21.3A21.293,21.293,0,0,0,21.3.562ZM9.618,19.06c.283-3.615,2.765-6.131,4.809-6.131s4.526,2.516,4.809,6.131a.684.684,0,0,1-1.28.386l-.816-1.46a3.212,3.212,0,0,0-2.705-1.855,3.212,3.212,0,0,0-2.705,1.855l-.816,1.46a.7.7,0,0,1-1.3-.386ZM31.155,29.605a12.828,12.828,0,0,1-19.717,0,1.375,1.375,0,0,1,2.113-1.76,10.09,10.09,0,0,0,15.492,0,1.375,1.375,0,0,1,2.113,1.76Zm.532-10.159-.816-1.46a3.212,3.212,0,0,0-2.705-1.855,3.212,3.212,0,0,0-2.705,1.855l-.816,1.46a.686.686,0,0,1-1.28-.386c.283-3.615,2.765-6.131,4.809-6.131s4.526,2.516,4.809,6.131A.7.7,0,0,1,31.688,19.446Z" transform="translate(0 -0.563)"/></svg>