<svg xmlns="http://www.w3.org/2000/svg" width="16.807" height="18.327" viewBox="0 0 16.807 18.327"><defs><style>.a{fill:#fff;}</style></defs><path class="a" d="M8.173,8.8h2.241v2.291H8.173Zm3.361,0h2.241v2.291H11.535Zm3.361,0h2.241v2.291H14.9ZM4.812,15.673H7.053v2.291H4.812Zm3.361,0h2.241v2.291H8.173Zm3.361,0h2.241v2.291H11.535ZM8.173,12.237h2.241v2.291H8.173Zm3.361,0h2.241v2.291H11.535Zm3.361,0h2.241v2.291H14.9Zm-10.084,0H7.053v2.291H4.812ZM17.137,1.928V3.073H14.9V1.928H7.053V3.073H4.812V1.928H2.571V20.255H19.378V1.928H17.137Zm1.12,17.181H3.691V6.51H18.257Z" transform="translate(-2.571 -1.928)"/></svg>