<svg xmlns="http://www.w3.org/2000/svg" width="18" height="18" viewBox="0 0 18 18"><defs><style>.a{fill:#072c6b;}</style></defs><path class="a" d="M17.156,4.5h-.281V2.813C16.875,1.237,13.387,0,9,0S1.125,1.237,1.125,2.813V4.5H.844A.844.844,0,0,0,0,5.344V8.156A.844.844,0,0,0,.844,9h.281v5.625A1.125,1.125,0,0,0,2.25,15.75v1.125A1.125,1.125,0,0,0,3.375,18H4.5a1.125,1.125,0,0,0,1.125-1.125V15.75h6.75v1.125A1.125,1.125,0,0,0,13.5,18h1.125a1.125,1.125,0,0,0,1.125-1.125V15.75h.225a.887.887,0,0,0,.9-.9V9h.281A.844.844,0,0,0,18,8.156V5.344A.844.844,0,0,0,17.156,4.5ZM5.625,2.531a.281.281,0,0,1,.281-.281h6.188a.281.281,0,0,1,.281.281v.563a.281.281,0,0,1-.281.281H5.906a.281.281,0,0,1-.281-.281ZM3.938,14.063a1.125,1.125,0,1,1,1.125-1.125A1.125,1.125,0,0,1,3.938,14.063Zm4.5-3.937H4.5A1.125,1.125,0,0,1,3.375,9V5.625A1.125,1.125,0,0,1,4.5,4.5H8.438Zm1.125,0V4.5H13.5a1.125,1.125,0,0,1,1.125,1.125V9A1.125,1.125,0,0,1,13.5,10.125Zm4.5,3.938a1.125,1.125,0,1,1,1.125-1.125A1.125,1.125,0,0,1,14.063,14.063Z"/></svg>