<svg xmlns="http://www.w3.org/2000/svg" width="20.283" height="22.117" viewBox="0 0 20.283 22.117"><defs><style>.a{fill:#072c6b;}</style></defs><path class="a" d="M9.332,10.222h2.7v2.765h-2.7Zm4.057,0h2.7v2.765h-2.7Zm4.057,0h2.7v2.765h-2.7ZM5.275,18.516h2.7V21.28h-2.7Zm4.057,0h2.7V21.28h-2.7Zm4.057,0h2.7V21.28h-2.7ZM9.332,14.369h2.7v2.765h-2.7Zm4.057,0h2.7v2.765h-2.7Zm4.057,0h2.7v2.765h-2.7Zm-12.17,0h2.7v2.765h-2.7ZM20.149,1.928V3.31h-2.7V1.928H7.98V3.31h-2.7V1.928h-2.7V24.045H22.854V1.928h-2.7ZM21.5,22.662H3.923V7.457H21.5Z" transform="translate(-2.571 -1.928)"/></svg>