<svg xmlns="http://www.w3.org/2000/svg" width="188.078" height="65.174" viewBox="0 0 188.078 65.174"><defs><style>.a{fill:#0f204b;}.b{fill:#0e204b;}.c{fill:#ffcc01;}</style></defs><g transform="translate(-117.3 -226.274)"><path class="a" d="M2344.044,226.323a7.142,7.142,0,0,0-5.035,2.858,6.885,6.885,0,0,0-1.347,3.39,7.154,7.154,0,0,0,5.5,7.791,9.48,9.48,0,0,0,3.288-.047,7.715,7.715,0,0,0,3.665-2.286c.219-.282.438-.564.486-.619s.219-.345.376-.626a7.043,7.043,0,0,0-.329-7.258,7.129,7.129,0,0,0-3.852-2.928,9.965,9.965,0,0,0-2.224-.321C2344.467,226.284,2344.224,226.308,2344.044,226.323Zm2.263,1.1a6.211,6.211,0,0,1,4.455,4.549,7.712,7.712,0,0,1-.125,3.375,6.465,6.465,0,0,1-4.032,3.993,8.272,8.272,0,0,1-3.868-.016,6.483,6.483,0,0,1-3.938-4.017,8.044,8.044,0,0,1,.008-3.813,6.382,6.382,0,0,1,4.612-4.158A7.822,7.822,0,0,1,2346.307,227.42Z" transform="translate(-2046.457 0)"/><path class="a" d="M2393.808,265.764v4.064h1.927v-2.991h.728l.7,1.48.7,1.472,1.112.031a5.083,5.083,0,0,0,1.12-.039c0-.039-.368-.783-.814-1.652l-.822-1.6.47-.446a2.141,2.141,0,0,0,.775-1.777,2.341,2.341,0,0,0-.853-1.895c-.736-.587-.948-.634-3.085-.673l-1.957-.039v4.064Zm3.618-2.083a.892.892,0,0,1-.039,1.378,2.317,2.317,0,0,1-.9.125h-.751v-.8a3.19,3.19,0,0,1,.07-.877A3.258,3.258,0,0,1,2397.426,263.681Z" transform="translate(-2098.249 -32.652)"/><path class="b" d="M117.323,252.529l.031,15.245.219,1.041a14.714,14.714,0,0,0,4.823,8.339,14.38,14.38,0,0,0,8.135,3.414c.689.078,19.426.11,60.158.11h59.164V237.3H117.3Zm17.563-8.331a9.087,9.087,0,0,1,4.831,2.239c2.239,1.871,3.179,3.9,3.477,7.509.125,1.6.125,6.389,0,8.081a12.126,12.126,0,0,1-1.472,5.285,11.678,11.678,0,0,1-2.529,2.647,9.718,9.718,0,0,1-5.254,1.942,11.006,11.006,0,0,1-5.959-.987,9.322,9.322,0,0,1-2.78-2.012,7.927,7.927,0,0,1-2.232-3.672c-.54-1.738-.587-2.271-.587-7.219s.055-5.614.587-7.3a7.975,7.975,0,0,1,2.247-3.68,10.182,10.182,0,0,1,5.567-2.881A19.993,19.993,0,0,1,134.886,244.2Zm99.833,0a13.332,13.332,0,0,1,3.915,1.12,11.086,11.086,0,0,1,2.521,1.77l.235.251-.235.251c-.2.211-3.884,3.884-4,3.993a1.461,1.461,0,0,1-.407-.282,6.634,6.634,0,0,0-2.412-1.12,7.876,7.876,0,0,0-2.106-.117c-1.323.031-1.5.047-1.981.282-1.535.728-2.028,2.349-1.026,3.4.5.525.924.65,3.336.994,3.343.485,4.079.65,5.277,1.206a7.26,7.26,0,0,1,2.928,2.529,9.415,9.415,0,0,1,1.041,5.09,6.941,6.941,0,0,1-.791,3.343c-2.012,4.087-7.274,5.857-13.851,4.675a11.026,11.026,0,0,1-5.857-2.78l-.572-.509,2.2-2.185,2.2-2.185.211.2a6.728,6.728,0,0,0,3.351,1.48c2.443.485,4.792.274,5.622-.5.149-.133.274-.219.274-.2,0,.039.086-.078.2-.251a2.434,2.434,0,0,0,.29-1.7,1.8,1.8,0,0,0-.861-1.355c-.454-.29-.877-.376-3.422-.736-1.159-.164-2.435-.384-2.819-.485-3.179-.814-5.082-2.647-5.661-5.458a8.387,8.387,0,0,1-.157-2.466,6.8,6.8,0,0,1,.791-3.524,9.014,9.014,0,0,1,6.89-4.721A22.536,22.536,0,0,1,234.72,244.2Zm-74.229.274a9.17,9.17,0,0,1,5.011,2.568,9.741,9.741,0,0,1,2.717,6.233c.125,1.362.125,8,0,9.38a9.646,9.646,0,0,1-2.513,6.068,9.02,9.02,0,0,1-5.45,2.819,55.662,55.662,0,0,1-6.64.149h-5.786V244.237l5.974.031C158.878,244.308,159.872,244.331,160.491,244.472Zm25.409-.125a8.328,8.328,0,0,1,5.23,2.49,7.25,7.25,0,0,1,1.856,5.238,4.548,4.548,0,0,1-.258,2.075,6.016,6.016,0,0,1-1.707,2.678l-.853.838.658.493a6.5,6.5,0,0,1,2.388,3.477,11.482,11.482,0,0,1-.047,4.291,7.546,7.546,0,0,1-5.52,5.481c-.822.219-.822.219-7.8.258l-6.984.031V244.245h6.162C182.415,244.245,185.508,244.292,185.9,244.347Zm18.455,9.075c0,6.335.031,9.326.11,9.678a4.27,4.27,0,0,0,1.041,1.934,4.017,4.017,0,0,0,.877.548,2.82,2.82,0,0,0,1.5.243,3.554,3.554,0,0,0,1.535-.219,3.71,3.71,0,0,0,1.66-1.472c.423-.822.423-.83.423-10.6l.008-9.294h6.851V253.6c0,7.979-.016,9.474-.149,10.21a9.526,9.526,0,0,1-6.123,7.384,12.081,12.081,0,0,1-9.052-.329,8.733,8.733,0,0,1-3.015-2.232,6.344,6.344,0,0,1-1.409-2.012,9.865,9.865,0,0,1-1.026-3.5c-.11-.963-.149-18.714-.031-18.823.031-.039,1.574-.07,3.43-.07h3.359v9.192Z" transform="translate(0 -10.162)"/><path class="a" d="M271.565,401.748a3.328,3.328,0,0,0-2.028,2.318,26.01,26.01,0,0,0-.337,5.34c0,3.993.2,5.489.822,6.444a3.1,3.1,0,0,0,2.756,1.433,3.064,3.064,0,0,0,2.192-.736,3.573,3.573,0,0,0,1.245-2.474,47.824,47.824,0,0,0-.07-9.764,3.3,3.3,0,0,0-1.762-2.4,2.831,2.831,0,0,0-1.472-.29A3.077,3.077,0,0,0,271.565,401.748Z" transform="translate(-140.006 -161.605)"/><path class="a" d="M594.9,411.15v7.642l2.106-.031c1.895-.031,2.138-.047,2.545-.235a3.745,3.745,0,0,0,1.636-1.7c.376-.8.485-2.012.485-5.591,0-3.4-.117-4.972-.438-5.661a3.937,3.937,0,0,0-1.66-1.73c-.564-.282-.564-.282-2.607-.305l-2.059-.039v7.65Z" transform="translate(-440.204 -163.349)"/><path class="a" d="M914.5,405.647v2.232l2.49-.031c2.443-.031,2.49-.031,2.968-.282a2.271,2.271,0,0,0-.133-3.884c-.407-.18-.666-.2-2.881-.243L914.5,403.4Z" transform="translate(-734.779 -163.257)"/><path class="a" d="M914.408,540.565v2.38h2.49c3.195,0,3.477-.078,4.017-1.065a2.545,2.545,0,0,0-.744-3.39c-.4-.235-.454-.235-3.085-.258L914.4,538.2v2.365Z" transform="translate(-734.687 -287.502)"/><path class="b" d="M123.766,838.311c-.086.345-.078.368.282.368a1.467,1.467,0,0,1,1.151.509,48.893,48.893,0,0,1,1.989,6.272,20.712,20.712,0,0,1-.7,3.39c-.149.368-.407.525-1.018.6-.47.055-.6.172-.611.548a20.123,20.123,0,0,0,2.553.078c2.232,0,2.56-.016,2.607-.157.125-.329.055-.4-.423-.462-.752-.094-.76-.18-.3-2.2a17.418,17.418,0,0,1,.572-2.122c.094-.235.908-1.456,1.809-2.733,2.647-3.774,2.513-3.625,3.343-3.7.446-.039.47-.055.47-.321V838.1h-4.244v.282c0,.251.031.282.438.321a1.547,1.547,0,0,1,.579.172c.219.18.172.666-.11,1.206a43.643,43.643,0,0,1-2.811,4.393c-.07,0-.125-.016-.125-.039s-.243-.947-.54-2.051a26.9,26.9,0,0,1-.814-3.234c0-.282.282-.47.673-.47.329,0,.368-.031.407-.29l.047-.29h-5.176Z" transform="translate(-5.918 -563.919)"/><path class="b" d="M637.655,838.164c-.133.36-.07.423.415.423.587,0,.916.235.9.634-.008.29-.117.7-2.036,7.525-1.167,4.173-1.331,4.706-1.7,5.324-.321.548-.611.736-1.081.7l-.368-.031v-.658c0-.611-.016-.689-.274-.9a.968.968,0,0,0-1.5.321,1.982,1.982,0,0,0-.11.666.893.893,0,0,0,.368.814,2.642,2.642,0,0,0,2.412.485c1.5-.344,2.592-1.488,3.524-3.672.2-.454.955-2.866,1.707-5.364,1.315-4.377,1.574-5.121,1.864-5.481a1.334,1.334,0,0,1,.994-.368c.219,0,.329-.047.329-.133a1.342,1.342,0,0,1,.055-.29c.055-.133-.219-.157-2.693-.157C638.047,838.008,637.71,838.023,637.655,838.164Z" transform="translate(-474.306 -563.827)"/><path class="b" d="M1531.664,838.265c-.164.446-.086.532.525.532s.775.117.775.619c0,.321-2.185,8.637-2.435,9.263a1.423,1.423,0,0,1-1.065.791c-.438.078-.564.172-.564.462,0,.157.172.164,2.78.149l2.772-.031.031-.274c.031-.243.008-.258-.36-.258a1.393,1.393,0,0,1-.994-.321c-.164-.25-.055-1.018.321-2.412.211-.814.407-1.519.423-1.574.016-.078.164-.086.454-.031a11.214,11.214,0,0,0,3.022-.055,5.413,5.413,0,0,0,2.451-1.229,4.481,4.481,0,0,0,.728-1.041,2.717,2.717,0,0,0,.3-1.6,2.42,2.42,0,0,0-1.018-2.341c-.94-.736-.979-.744-4.745-.783C1532.04,838.117,1531.727,838.124,1531.664,838.265Zm5.09.478a2.184,2.184,0,0,1,1.347,1.19,2.09,2.09,0,0,1,.251,1.449,3.063,3.063,0,0,1-.345,1.48,2.938,2.938,0,0,1-2.349,1.817,2.841,2.841,0,0,1-1.5-.282,13.075,13.075,0,0,1,.438-1.9c.258-.994.6-2.239.736-2.772a4.247,4.247,0,0,1,.368-1.034A1.456,1.456,0,0,1,1536.754,838.743Z" transform="translate(-1301.071 -563.944)"/><path class="b" d="M1922.279,864.445a5.151,5.151,0,0,1-1.535.462c-.251.031-.274.071-.7,1.433l-.235.728-.838.031c-.579.016-.838.071-.838.149a2.365,2.365,0,0,1-.055.329c-.055.211-.039.219.674.219.525,0,.736.039.736.117s-.4,1.268-.869,2.67c-.963,2.819-1.041,3.289-.626,3.555a3.456,3.456,0,0,0,2.224-.157,7.056,7.056,0,0,0,1.668-1.088c.344-.337.344-.337.164-.587-.125-.172-.149-.164-.5.11-.634.5-1.182.736-1.441.619a.375.375,0,0,1-.235-.29,21.982,21.982,0,0,1,1.1-3.249l.619-1.644.955-.031c.994-.031,1.19-.117,1.19-.525,0-.156-.094-.172-.916-.172a2.549,2.549,0,0,1-.916-.086c0-.039.258-.658.579-1.362a8.972,8.972,0,0,0,.525-1.362C1922.921,864.171,1922.757,864.2,1922.279,864.445Z" transform="translate(-1659.481 -588.001)"/><path class="b" d="M1690.2,892.513a2.115,2.115,0,0,0-.282.337l-.172.282-.2-.2c-.7-.658-1.981-.5-3.1.36a8.655,8.655,0,0,0-2.717,4.706c-.2.987-.133,1.394.329,1.887a.885.885,0,0,0,.869.376c.963,0,1.942-.728,2.944-2.2a2.972,2.972,0,0,1,.572-.7c.11,0,.078.125-.321,1.433-.29.94-.3,1-.156,1.229.133.211.235.243.728.243a3.084,3.084,0,0,0,2.145-1.041c.54-.611.65-.853.454-1.041-.125-.125-.172-.094-.47.29-.384.5-.83.8-.979.658-.157-.156.54-2.568,1.691-5.865a2.591,2.591,0,0,0,.2-.752A3.7,3.7,0,0,0,1690.2,892.513Zm-1.355,1.1c.235.282.251.36.2.822a4.948,4.948,0,0,1-.29,1.081,11.557,11.557,0,0,1-1.934,2.85c-.744.775-1.112.713-1.112-.18a8.517,8.517,0,0,1,1.871-4.612A.824.824,0,0,1,1688.849,893.609Z" transform="translate(-1443.677 -614.002)"/><path class="b" d="M263.587,893.965c-1.746.493-3,2.741-2.842,5.152a2.307,2.307,0,0,0,1.245,2.216,3.652,3.652,0,0,0,2.521.039,4.416,4.416,0,0,0,2.286-2.9c.666-2.1.345-3.664-.869-4.338A3.656,3.656,0,0,0,263.587,893.965Zm1.824.908a1.044,1.044,0,0,1,.329.76,9.7,9.7,0,0,1-1.981,4.448c-.454.454-.572.509-.908.509s-.415-.039-.54-.29a1.722,1.722,0,0,1-.149-.65,8.044,8.044,0,0,1,2.31-4.635A.959.959,0,0,1,265.411,894.873Z" transform="translate(-132.201 -615.305)"/><path class="b" d="M374.066,893.872c-.916.329-2.028,1.323-1.895,1.683.094.243.211.2.783-.329.548-.5.791-.58.994-.337.157.18-.094,1.026-.869,2.944a10.348,10.348,0,0,0-.869,2.764.988.988,0,0,0,.282.509.779.779,0,0,0,.752.3c1.112,0,2.2-.908,3.688-3.069.376-.54.423-.219.117.665-.157.446-.36,1.065-.446,1.37-.157.525-.157.58,0,.814s.2.243.853.2a2.942,2.942,0,0,0,1.143-.251c.713-.345,1.652-1.4,1.488-1.66-.117-.2-.337-.086-.673.337a2.118,2.118,0,0,1-.548.493c-.485.157-.407-.211.783-3.837.438-1.315.783-2.435.783-2.49,0-.078-.29-.11-.987-.086l-.987.031-.446,1.308c-.251.713-.564,1.527-.7,1.785a13.977,13.977,0,0,1-2.1,2.686c-.423.407-.525.446-.7.36-.282-.157-.211-.47.564-2.412,1.088-2.741,1.19-3.3.7-3.711A1.691,1.691,0,0,0,374.066,893.872Z" transform="translate(-234.905 -615.149)"/><path class="b" d="M505.63,893.608a4.7,4.7,0,0,0-1.237.666,2.97,2.97,0,0,0-.893,1.151c0,.3.29.219.634-.164.666-.736,1.2-.838,1.2-.243a35.619,35.619,0,0,1-1.308,4.7,12.98,12.98,0,0,0-.337,1.276c0,.149.117.164.861.164.9,0,.994-.039,1.12-.485a14.813,14.813,0,0,1,1.895-4.5c.626-.861,1.049-1.073,1.488-.783a.862.862,0,0,0,1.362-.4.973.973,0,0,0-.258-1.214c-.572-.485-1.229-.282-2.028.6a8.463,8.463,0,0,0-.963,1.417,2.648,2.648,0,0,1-.54.822c-.125,0-.125.016.4-1.574.305-.924.305-.987,0-1.276a.815.815,0,0,0-.7-.235A3.643,3.643,0,0,0,505.63,893.608Z" transform="translate(-355.96 -614.995)"/><path class="b" d="M775.468,893.734c-1.73.407-2.96,2.427-2.968,4.878,0,1.809.83,2.74,2.427,2.74a2.873,2.873,0,0,0,2.31-.838,5.89,5.89,0,0,0,1.644-4.173,2.355,2.355,0,0,0-.626-1.981A2.881,2.881,0,0,0,775.468,893.734Zm1.636.916c.235.055.423.407.423.752a11.151,11.151,0,0,1-.924,2.858c-.673,1.409-1.362,2.122-2.02,2.122-.861-.008-.83-1.519.055-3.336a7.273,7.273,0,0,1,1.621-2.263A.923.923,0,0,1,777.1,894.65Z" transform="translate(-603.897 -615.097)"/><path class="b" d="M885.679,893.872a3.893,3.893,0,0,0-1.636,1.112c-.368.423-.407.587-.172.673.11.039.305-.078.611-.376.5-.5.822-.626,1.041-.407.125.125.125.2-.016.7-.086.321-.446,1.253-.783,2.106-.987,2.427-1.088,2.983-.626,3.445.54.54,1.566.321,2.592-.548a14.752,14.752,0,0,0,1.989-2.482c.031-.078.078-.086.149-.016s-.008.454-.321,1.355a11.041,11.041,0,0,0-.439,1.456c0,.6,1.112.728,2.091.235a3.1,3.1,0,0,0,1.355-1.159c.243-.368.243-.579.008-.579a1.771,1.771,0,0,0-.564.485c-.7.775-.963.619-.673-.407.11-.337.533-1.7.963-3.03s.783-2.451.783-2.49a3.983,3.983,0,0,0-.987-.039l-.994.031-.446,1.276a9.073,9.073,0,0,1-2.388,4.064c-.728.814-.924.955-1.151.783-.211-.18-.133-.509.532-2.224a15.654,15.654,0,0,0,1.049-3.132c.047-.384.031-.454-.243-.713a.832.832,0,0,0-.76-.3A3.625,3.625,0,0,0,885.679,893.872Z" transform="translate(-706.412 -615.166)"/><path class="b" d="M1017.13,893.663a4.222,4.222,0,0,0-1.762,1.362c-.493.7-.133.893.454.235.407-.446.822-.7,1.034-.611.3.117.282.219-1.143,5-.305,1.041-.4,1.449-.305,1.48a4.4,4.4,0,0,0,.94.016l.814-.031.321-.963c.893-2.686,1.449-3.813,2.239-4.534.407-.368.7-.438,1.018-.219a.794.794,0,0,0,1.308-.36.922.922,0,0,0-.211-1.268c-.853-.713-2.067.18-3.155,2.357-.211.415-.345.579-.415.509s.008-.384.25-1.034c.462-1.268.5-1.5.274-1.785A1.877,1.877,0,0,0,1017.13,893.663Z" transform="translate(-827.535 -615.004)"/><path class="b" d="M1124.258,893.891a4.132,4.132,0,0,0-1.793,1.12c-.493.485-.572.611-.47.728.18.219.274.18.838-.337.525-.485.861-.6.955-.345a28.025,28.025,0,0,1-1.37,4.3,19.567,19.567,0,0,0-.619,1.864c0,.157.094.172.908.172.775,0,.916-.031.979-.172.039-.086.212-.6.4-1.128.626-1.824,2.607-4.6,3.516-4.9a.374.374,0,0,1,.485.376c0,.133-.368,1.347-.822,2.678a28,28,0,0,0-.822,2.678c0,.376.282.572.838.572a3.271,3.271,0,0,0,1.934-.658c.736-.493,1.041-.861.893-1.041s-.258-.164-.5.086c-.321.345-.728.579-.893.509-.235-.086-.172-.438.344-1.9,1.182-3.32,1.253-3.719.893-4.22a1.1,1.1,0,0,0-1.088-.47c-.955.086-1.911.8-2.96,2.2-.407.54-.689.83-.736.783s-.055-.172.016-.3c.055-.117.258-.619.438-1.12.36-.987.344-1.284-.039-1.488A2,2,0,0,0,1124.258,893.891Z" transform="translate(-925.847 -615.231)"/><path class="b" d="M1260.376,893.988a5.329,5.329,0,0,0-2.232,1.5c-1.229,1.308-1.95,3.414-1.6,4.675a2.387,2.387,0,0,0,1.1,1.214,4.448,4.448,0,0,0,2.263-.11,4.677,4.677,0,0,0,1.926-1.362c.149-.251.149-.274-.031-.407-.165-.117-.219-.11-.564.18-1.355,1.159-2.694.854-2.67-.626.016-.94.047-.987.814-1.12a4.6,4.6,0,0,0,3.344-1.989,2.229,2.229,0,0,0,.031-1.707C1262.38,893.714,1261.433,893.62,1260.376,893.988Zm.587.752a1.7,1.7,0,0,1-.039,1.315,2.16,2.16,0,0,1-1.151,1.143c-.415.2-.916.305-.916.2,0-.016.11-.345.243-.744C1259.6,895.17,1260.485,894.262,1260.963,894.74Z" transform="translate(-1049.961 -615.227)"/><path class="b" d="M1336.658,893.724a3.135,3.135,0,0,0-1.488,1.543c-.345.689-.376.869-.157.955.235.086.219.086.438-.407s.532-.893.728-.893c.305,0,.4.532.869,4.972a9.278,9.278,0,0,1,.133,2.8c-.282.947-1.8,2.38-2.506,2.38a.821.821,0,0,1-.548-.18c-.509-.47-.94-.47-1.347.008a.911.911,0,0,0,.485,1.527c1.5.493,3.68-1.527,6.452-5.951a19.247,19.247,0,0,0,2.388-5.043,2.165,2.165,0,0,0-.125-1.48,1.052,1.052,0,0,0-1.527-.094c-.329.337-.337.407-.094,1.394a3.957,3.957,0,0,1-.086,2.271,15.5,15.5,0,0,1-1.409,3.015c-.11,0-.133-.258-.133-1.378a32.841,32.841,0,0,0-.3-4.659C1338.224,893.669,1337.574,893.395,1336.658,893.724Z" transform="translate(-1120.072 -615.049)"/><path class="b" d="M1812.334,893.865c-.854.36-1.9,1.4-1.77,1.746.078.219.305.172.485-.094a3.317,3.317,0,0,1,1.034-.822c.2,0,.376.321.321.564-.125.509-.7,2.513-1.19,4.1-.274.893-.493,1.683-.493,1.762,0,.117.172.149.908.149h.909l.5-1.527a10.026,10.026,0,0,1,1.895-3.845c.533-.54.791-.634,1.151-.4a.869.869,0,0,0,1.362-.368.949.949,0,0,0-.11-1.127c-.54-.579-1.206-.485-1.973.29a8.246,8.246,0,0,0-1.456,2.185c-.094.258-.29.345-.29.125a11,11,0,0,1,.337-1.081,7.408,7.408,0,0,0,.337-1.214C1814.3,893.669,1813.313,893.45,1812.334,893.865Z" transform="translate(-1560.671 -615.103)"/><path class="b" d="M2008.5,893.887a5.116,5.116,0,0,0-.736.282,6.461,6.461,0,0,0-1.253,1.081c-.235.274-.243.321-.11.454s.2.094.744-.345c1.214-1.018,1.2-.54-.094,3.085a22.225,22.225,0,0,0-.893,2.819,2.821,2.821,0,0,0,.947.055l.854-.031.454-1.214a11.594,11.594,0,0,1,2.553-4.134c.83-.877,1.292-1.065,1.448-.58a16.642,16.642,0,0,1-.76,2.639c-1.1,3.265-1.088,3.5.118,3.422a3.459,3.459,0,0,0,2.239-1.026c.5-.454.525-.5.368-.658s-.18-.149-.618.243c-.47.415-.775.5-.869.251-.055-.149.047-.47,1.073-3.422.54-1.566.626-2.1.384-2.49-.36-.611-.939-.744-1.785-.423a5.831,5.831,0,0,0-2.443,2.2c-.775,1.073-.838.955-.258-.509a6.739,6.739,0,0,0,.384-1.2c0-.282-.18-.6-.3-.532-.047.039-.086.008-.086-.039C2009.843,893.652,2009.091,893.7,2008.5,893.887Z" transform="translate(-1740.953 -615.181)"/><path class="b" d="M2145.159,893.895a6.238,6.238,0,0,0-3.508,2.936c-.759,1.5-.924,3.085-.384,3.891.415.626.877.822,1.942.775a3.716,3.716,0,0,0,2.772-1.214l.5-.54-.219-.172c-.219-.18-.235-.18-.572.149a2.065,2.065,0,0,1-1.253.658c-.939.2-1.417-.282-1.394-1.394.031-.814.086-.94.438-.94a5.974,5.974,0,0,0,2.921-1.128,2.283,2.283,0,0,0,.916-2.466C2147.061,893.895,2146.129,893.652,2145.159,893.895Zm.321,1.073a2.2,2.2,0,0,1-1.785,2.466l-.36.055.055-.329a7.591,7.591,0,0,1,1.19-2.3.983.983,0,0,1,.524-.2C2145.315,894.654,2145.394,894.709,2145.48,894.967Z" transform="translate(-1865.197 -615.258)"/><path class="b" d="M2247.937,893.938a3.915,3.915,0,0,0-1.683,1.292c-.321.439-.337.532-.133.611.086.039.29-.094.533-.337.6-.6.814-.728,1.065-.587.29.157.258.274-.673,3.43-.423,1.433-.8,2.7-.83,2.835-.055.219-.055.219.877.2l.94-.031.172-.485c.094-.274.305-.916.485-1.449a9.089,9.089,0,0,1,1.7-3.32c.415-.454.611-.587.814-.587a.479.479,0,0,1,.337.094.945.945,0,0,0,.4.18.732.732,0,0,0,.955-.423,1.021,1.021,0,0,0-.65-1.566c-.814-.125-1.644.619-2.553,2.263a3.132,3.132,0,0,1-.532.8c-.125,0-.125.016.251-1.073.329-.955.407-1.48.258-1.691C2249.433,893.726,2248.72,893.671,2247.937,893.938Z" transform="translate(-1962.009 -615.231)"/><path class="c" d="M1829,234.741v43.5h39.831V249s-.3-12.05-12.638-14.4Z" transform="translate(-1577.673 -7.674)"/><path class="b" d="M1902.6,274.712c-.995.055-3.555.415-4.745.658-3.469.7-5.591,1.535-6.789,2.647-.94.877-1.167,1.456-1.456,3.727-.619,4.714-.838,6.335-1.081,8.112l-.274,1.934-.016,8.229c-.031,7.822-.016,8.237.133,8.237.094.008.7.016,1.331.031l1.159.016.047,1.691c.047,1.809.078,1.895.618,2.49a2.365,2.365,0,0,0,2.192.6,2.207,2.207,0,0,0,1.4-1.034c.274-.454.282-.509.329-2.106l.047-1.644,8.378-.016c4.612-.016,8.441,0,8.535.031.125.047.149.3.149,1.6,0,1.683.078,2.028.564,2.529a2.331,2.331,0,0,0,3.766-.6,6.4,6.4,0,0,0,.211-1.942l.047-1.6,1.284-.031,1.276-.031v-8.065c0-6.483-.031-8.3-.149-9.146-.078-.587-.423-3.257-.775-5.943s-.689-5.035-.744-5.215a5.088,5.088,0,0,0-.869-1.605,11.079,11.079,0,0,0-5.121-2.443A33.024,33.024,0,0,0,1902.6,274.712Zm8.5,3.179a1.018,1.018,0,0,1,.109,1.237.722.722,0,0,1-.619.4c-.219.031-3.351.047-6.953.031l-6.562-.031-.235-.274a1,1,0,0,1,.29-1.519c.11-.047,3.257-.078,6.984-.07C1910.84,277.688,1910.91,277.688,1911.106,277.891Zm3.766,3.782c.666.36.7.525,1.4,5.465.344,2.482.626,4.714.626,4.949a1.026,1.026,0,0,1-.485,1.034c-.251.149-1.284.164-12.466.164-13.585,0-12.52.055-12.818-.658-.172-.407-.2-.11.658-6.248.509-3.68.579-4.04.892-4.385.462-.5.016-.485,11.322-.493C1914.074,281.5,1914.559,281.509,1914.872,281.673Zm-20.538,17.578a2.141,2.141,0,1,1-2.482.094A2.209,2.209,0,0,1,1894.334,299.252Zm21.6-.031a2.735,2.735,0,0,1,.65.658c.243.36.274.493.274,1.2,0,.736-.016.822-.3,1.214a2.157,2.157,0,0,1-3.9-1.206,2.073,2.073,0,0,1,1.19-1.95A2.141,2.141,0,0,1,1915.937,299.22Z" transform="translate(-1632.264 -44.615)"/></g></svg>