<svg xmlns="http://www.w3.org/2000/svg" xmlns:xlink="http://www.w3.org/1999/xlink" width="17" height="30" viewBox="0 0 17 30"><defs><style>.a{fill:#efc003;}.b{clip-path:url(#a);}</style><clipPath id="a"><rect class="a" width="17" height="30" transform="translate(696 665)"/></clipPath></defs><g class="b" transform="translate(-696 -665)"><path class="a" d="M14,.936,10.567,7.9,2.883,9.021a1.684,1.684,0,0,0-.931,2.872l5.56,5.418L6.2,24.963a1.682,1.682,0,0,0,2.441,1.773l6.875-3.614,6.875,3.614a1.683,1.683,0,0,0,2.441-1.773L23.512,17.31l5.56-5.418a1.684,1.684,0,0,0-.931-2.872L20.456,7.9,17.021.936A1.685,1.685,0,0,0,14,.936Z" transform="translate(697.559 667.034)"/></g></svg>