<svg xmlns="http://www.w3.org/2000/svg" width="24.562" height="32.649" viewBox="0 0 24.562 32.649">
  <g id="notification" transform="translate(-12.5 0.148)">
    <path id="Path_8" data-name="Path 8" d="M22.519,5.608c-1.082-1.91-.955-3.375.35-4.457a3.025,3.025,0,0,1,3.852.032c1.273,1.051,1.369,2.547.35,4.33.032.032.064.1.1.1,2.993.955,4.33,3.184,4.553,6.144a15.31,15.31,0,0,0,.891,5.094,8.941,8.941,0,0,0,3.375,4.2,1.092,1.092,0,0,1,.573,1.114q-.048,1.767,0,3.534c0,.637-.191.923-.891.923H13.891c-.6,0-.891-.191-.891-.828.032-1.273-.032-2.515.032-3.788a1.289,1.289,0,0,1,.509-.891,9.846,9.846,0,0,0,4.171-7.545c.1-.891.064-1.815.223-2.706A6.167,6.167,0,0,1,22.519,5.608ZM14.178,25.569H34.553c.637,0,.923-.159.891-.86-.064-.637.032-1.305-.032-1.91a1.916,1.916,0,0,0-.478-.987c-.637-.732-1.433-1.305-2.006-2.069a11.971,11.971,0,0,1-2.292-7.386c-.032-3.184-1.624-5.253-4.425-5.73A11.256,11.256,0,0,0,23.474,6.6a4.532,4.532,0,0,0-3.98,3.088,9.922,9.922,0,0,0-.509,3.056,11.669,11.669,0,0,1-4.393,9.137.792.792,0,0,0-.382.541C14.146,23.436,14.178,24.423,14.178,25.569ZM26.626,3.443A1.869,1.869,0,0,0,24.779,1.6a1.913,1.913,0,0,0-1.846,1.846,1.843,1.843,0,0,0,1.91,1.846A1.776,1.776,0,0,0,26.626,3.443Z" transform="translate(0 0)" fill="#707070" stroke="#707070" stroke-width="1"/>
    <path id="Path_9" data-name="Path 9" d="M37.1,88.191c.382-.064.669-.127,1.051-.191a3.106,3.106,0,0,0,3.12,2.515A3.058,3.058,0,0,0,44.263,88c.382.064.7.127,1.051.191a4.165,4.165,0,0,1-8.214,0Z" transform="translate(-16.428 -59.661)" fill="#707070" stroke="#707070" stroke-width="1"/>
  </g>
</svg>
