<svg xmlns="http://www.w3.org/2000/svg" width="105.161" height="98.55" viewBox="0 0 105.161 98.55"><defs><style>.a{fill:#072c6b;}.b{fill:#020288;}.c{fill:#fff;}</style></defs><g transform="translate(0 -16.094)"><g transform="translate(19.915 32.703)"><circle class="a" cx="32.666" cy="32.666" r="32.666"/></g><g transform="translate(0 16.094)"><path class="b" d="M99.331,273.561a2.053,2.053,0,0,0-2.406,1.628A45.173,45.173,0,0,1,8.513,276.52l.536.536a2.054,2.054,0,1,0,2.9-2.9L7.73,269.928a2.053,2.053,0,0,0-2.9,0L.6,274.152a2.054,2.054,0,1,0,2.9,2.9l.76-.76a49.28,49.28,0,0,0,96.692-.33A2.054,2.054,0,0,0,99.331,273.561Z" transform="translate(0 -217.314)"/><path class="b" d="M120.671,54.9a2.054,2.054,0,0,0-2.9,0l-.76.76a49.28,49.28,0,0,0-96.693.33,2.054,2.054,0,1,0,4.034.777,45.173,45.173,0,0,1,88.412-1.331l-.536-.536a2.054,2.054,0,1,0-2.9,2.9l4.224,4.224a2.053,2.053,0,0,0,2.9,0l4.224-4.224a2.053,2.053,0,0,0,0-2.9Z" transform="translate(-16.111 -16.094)"/><path class="c" d="M261.54,229.462a2.052,2.052,0,0,0,2.667-1.15l5.684-14.291a2.054,2.054,0,1,0-3.817-1.518l-5.684,14.291A2.054,2.054,0,0,0,261.54,229.462Z" transform="translate(-206.792 -171.133)"/><path class="c" d="M315.118,215.319h4.716l-5.016,11.411a2.054,2.054,0,1,0,3.761,1.653l6.283-14.291a2.054,2.054,0,0,0-1.88-2.88h-7.862a2.054,2.054,0,1,0,0,4.107Z" transform="translate(-248.763 -171.136)"/><path class="c" d="M193.954,224.374a2.054,2.054,0,0,0,1.769,1.01H200.8c-.006.757-.012,1.482-.017,2.146a2.054,2.054,0,0,0,2.036,2.072h.018a2.054,2.054,0,0,0,2.054-2.036c0-.538.011-1.3.018-2.193a2.054,2.054,0,0,0,.027-4.083c.018-3.343.025-6.709-.016-7.213a3.066,3.066,0,0,0-2.055-2.755,2.96,2.96,0,0,0-3.2,1.135c-.813,1-4.287,7.242-5.742,9.88A2.053,2.053,0,0,0,193.954,224.374Zm6.887-5.966c0,.887-.007,1.863-.013,2.868h-1.612C199.787,220.259,200.342,219.279,200.842,218.408Z" transform="translate(-153.891 -171.127)"/><path class="c" d="M150.588,229.175a2.054,2.054,0,0,0-.025-4.108h-.027c-1.125.014-2.306.024-3.373.03.739-1,1.688-2.311,2.886-4.024a11.281,11.281,0,0,0,1.837-3.816,4.3,4.3,0,0,0,.124-1.017,5.711,5.711,0,0,0-11.315-1.1,2.054,2.054,0,0,0,4.031.792,1.6,1.6,0,0,1,3.173.209l-.036.281a7.471,7.471,0,0,1-1.179,2.3c-2.259,3.227-3.606,4.991-4.33,5.939-.928,1.215-1.439,1.885-1.1,3a2.144,2.144,0,0,0,1.374,1.395c.274.091.494.164,3.3.164C147.03,229.212,148.53,229.2,150.588,229.175Z" transform="translate(-111.767 -170.593)"/></g></g></svg>