<svg xmlns="http://www.w3.org/2000/svg" width="91.118" height="29.377" viewBox="0 0 91.118 29.377"><defs><style>.a{fill:#02b9ef;}.b{fill:#fff;}</style></defs><g transform="translate(0)"><path class="a" d="M202.365,234.1l.754-.6a5.559,5.559,0,0,1,8.216.66c.226.264.339.283.565.057.151-.17.32-.3.471-.471a5.7,5.7,0,0,1,9.762,4.052c.038,5.409.019,10.8.019,16.207a2.89,2.89,0,0,1-3.091,3.128c-.754,0-1.508-.057-2.261.019-.773.075-1-.17-1-.98.038-5.277.019-10.553.019-15.83v-.66c-.019-1.225-.509-1.734-1.677-1.79a1.72,1.72,0,0,0-1.9,1.658c-.019.245,0,.509,0,.754v13.663a2.859,2.859,0,0,1-3.147,3.147c-1.018-.019-2.393.452-2.978-.207-.509-.565-.17-1.9-.17-2.9v-14.04c0-1.658-1.074-2.506-2.469-1.941a1.872,1.872,0,0,0-1.15,1.96c.019,4.372,0,8.725,0,13.1v1.036a2.879,2.879,0,0,1-3.034,3c-.754.019-1.508-.057-2.261.019-.81.075-1.055-.151-1.036-1.018.038-7.406.019-14.812.019-22.237,0-.32.019-.622,0-.942-.038-.415.132-.546.547-.546,1.734.019,3.449.019,5.182,0,.433,0,.641.113.6.584A7.825,7.825,0,0,0,202.365,234.1Z" transform="translate(-131.04 -227.899)"/><path class="b" d="M-46.639,245.916v7.727c-.019,3.354-1.771,5.088-5.126,5.107-1.47,0-2.959.019-4.429,0a5.112,5.112,0,0,1-5.314-4.994,60.559,60.559,0,0,1-.019-6.407,5.426,5.426,0,0,1,5.578-5.239c.81-.019,1.64,0,2.45,0,.791-.019,1.093-.471,1.074-1.225,0-.754-.339-1.093-1.093-1.055q-1.272.028-2.544,0a2.908,2.908,0,0,1-3.2-3.2c0-.829-.377-1.941.17-2.431.471-.415,1.545-.151,2.356-.151,2.111-.019,4.2,0,6.313,0a3.611,3.611,0,0,1,3.788,3.788C-46.621,240.508-46.639,243.221-46.639,245.916Zm-5.767,4.278v-.942c0-1.922,0-1.922-1.922-1.847a1.392,1.392,0,0,0-1.508,1.527c-.019.791-.019,1.564,0,2.356.019,1.357.622,1.715,2.582,1.771,1.451.038.716-.98.848-1.545A10.272,10.272,0,0,0-52.406,250.194Z" transform="translate(78.013 -229.498)"/><path class="b" d="M42.494,244.2c0,2.883.038,5.785-.019,8.669-.038,2.224-.565,4.24-2.714,5.427a6.056,6.056,0,0,1-2.789.754c-2.167.038-4.334,0-6.5.038-.528,0-.641-.188-.622-.66.038-.792-.019-1.564.019-2.356a2.748,2.748,0,0,1,2.695-2.714c.98-.038,1.941-.019,2.921,0,.791,0,1.225-.32,1.225-1.168,0-.867-.415-1.168-1.206-1.187a15.329,15.329,0,0,1-3.939-.226,5.25,5.25,0,0,1-3.939-4.843c-.113-3.675-.038-7.35-.057-11.024,0-.415.132-.547.547-.528,1.545.019,3.072.038,4.617,0,.678-.019.584.358.584.773v8.292c0,1.206.565,1.847,1.621,1.884,1.244.038,1.79-.471,1.79-1.734,0-2.789.019-5.6-.019-8.386,0-.66.17-.848.829-.829,1.376.056,2.77.075,4.146,0,.754-.038.867.245.848.9C42.475,238.249,42.494,241.227,42.494,244.2Z" transform="translate(5.653 -229.84)"/><path class="b" d="M-148.556,248.233V239a4.483,4.483,0,0,1,4.881-4.862,32.658,32.658,0,0,1,5.917.151,4.918,4.918,0,0,1,4.108,5.013c.019,2.733,0,5.465,0,8.2,0,3.43-2.016,5.522-5.446,5.616-1.037.038-2.073.019-3.109,0-.471-.019-.678.132-.66.641.038.754.019,1.508,0,2.261a2.752,2.752,0,0,1-2.789,2.808c-.942.019-2.13.4-2.733-.151-.565-.509-.151-1.715-.17-2.62C-148.574,253.454-148.556,250.834-148.556,248.233Zm5.691-4.617v1.79c0,2.13,0,2.13,2.13,1.941a1.307,1.307,0,0,0,1.376-1.451c.019-1.055-.038-2.129.019-3.185.113-3.053-.452-2.751-2.94-2.77-.452,0-.6.132-.6.584C-142.845,241.543-142.864,242.58-142.864,243.616Z" transform="translate(148.684 -229.591)"/><path class="a" d="M119.973,228.956c0-2.506-.019-5.032.019-7.538,0-.584-.132-.829-.773-.81-.848.038-1.979.283-2.45-.132-.584-.547-.132-1.715-.207-2.619v-.188c0-.886-.283-1.922.094-2.582s1.526-.245,2.337-.452a6.828,6.828,0,0,0,3.788-2.62,4.313,4.313,0,0,1,2.619-1.7c.584-.113.942-.038.9.716-.057,1.055,0,2.129-.019,3.2-.019.452.151.6.6.584.754-.019,1.508.019,2.261-.019.452-.019.6.151.584.6-.019,1.545-.019,3.072,0,4.617,0,.433-.113.66-.584.6a1.418,1.418,0,0,0-.283,0c-.829.075-1.979-.377-2.412.189-.415.528-.151,1.621-.151,2.469,0,5.126-.019,10.233.019,15.359,0,.716-.188.942-.9.886-.678-.057-1.376,0-2.073-.019a3.306,3.306,0,0,1-3.373-3.486Z" transform="translate(-66.493 -210.276)"/></g></svg>