<svg xmlns="http://www.w3.org/2000/svg" width="95.928" height="97.458" viewBox="0 0 95.928 97.458"><defs><style>.a{fill:#072c6b;}.b{fill:#fff;}</style></defs><g transform="translate(-1123 -2544)"><g transform="translate(1122.641 2268.263)"><path class="a" d="M139.625,356.5l-.041.02-16.172,7.64a12.5,12.5,0,0,1,.226,2.718,1.741,1.741,0,0,1-1.74,1.694h-.05l-23.668-.651a1.743,1.743,0,0,1,.1-3.484l21.756.6a8.982,8.982,0,0,0-8.592-7.463l-14.4-.4a18.956,18.956,0,0,1-8.158-2.108l-1.465-.758a22.132,22.132,0,0,0-22.593,1.273l-.576,20.945,2.474-1.325a10.76,10.76,0,0,1,8.022-.878l24.434,6.858a22.821,22.821,0,0,0,13.983-1.563l33.851-21.9a6.331,6.331,0,0,0-7.389-1.225Zm0,0" transform="translate(-50.728 -8.458)"/><path class="a" d="M.359,371.713l.858-31.162,12.305.339-.858,31.162Zm0,0" transform="translate(0)"/></g><g transform="translate(-0.459 -141.459)"><circle class="a" cx="29.5" cy="29.5" r="29.5" transform="translate(1141.459 2685.459)"/><path class="b" d="M23.012,7.032a.9.9,0,0,0,.9-.9V3.147a.9.9,0,0,0-.9-.9H.9a.9.9,0,0,0-.9.9V6.49a.9.9,0,0,0,.9.9H7.268a5.39,5.39,0,0,1,4.555,2.036H.9a.9.9,0,0,0-.9.9v2.989a.9.9,0,0,0,.9.9H12.758c-.464,2.7-2.463,4.381-5.585,4.381H.9a.9.9,0,0,0-.9.9v3.961a.9.9,0,0,0,.288.659L12.62,35.484a.9.9,0,0,0,.608.238H19.4A.9.9,0,0,0,20,34.166L8.732,23.76A10.235,10.235,0,0,0,19.066,14.2h3.946a.9.9,0,0,0,.9-.9V10.319a.9.9,0,0,0-.9-.9H18.627a10.234,10.234,0,0,0-1.065-2.391Z" transform="translate(1158.848 2695.499)"/></g></g></svg>