<?xml version="1.0" encoding="utf-8"?>
<!-- Generator: Adobe Illustrator 24.3.0, SVG Export Plug-In . SVG Version: 6.00 Build 0)  -->
<svg version="1.1" id="Layer_1" xmlns="http://www.w3.org/2000/svg" xmlns:xlink="http://www.w3.org/1999/xlink" x="0px" y="0px"
	 viewBox="0 0 160 160" style="enable-background:new 0 0 160 160;" xml:space="preserve">
<style type="text/css">
	.st0{fill:#EFC003;}
	.st1{fill:none;stroke:#072C6B;stroke-width:4;stroke-linecap:round;stroke-linejoin:round;}
</style>
<g transform="translate(-797 -622)">
	<circle class="st0" cx="877" cy="702" r="80"/>
</g>
<g id="Layer_2_1_">
	<g id="Interface-Light">
		<g id="interface-light-rating-stars-2">
			<path class="st1" d="M63.1,100.1l2.7,9.9c0.3,1-0.2,2.1-1.3,2.5c-0.6,0.2-1.2,0.1-1.6-0.2l-8.2-5.7c-0.6-0.5-1.5-0.5-2.1,0
				l-8.2,5.7c-0.9,0.6-2.1,0.3-2.7-0.6c-0.3-0.5-0.4-1.1-0.2-1.6l2.7-9.9c0.2-0.8-0.1-1.6-0.7-2.1l-7.7-6.4c-0.9-0.7-1-2-0.3-2.8
				c0.4-0.5,0.9-0.7,1.5-0.8l9.8-0.4c0.8-0.1,1.5-0.6,1.7-1.4l3.4-9.7"/>
			<path class="st1" d="M108.2,76.7l3.4,9.6c0.3,0.8,0.9,1.3,1.7,1.3l9.8,0.4c1.1,0.1,2,1,1.9,2.1c0,0.6-0.3,1.1-0.8,1.5l-7.7,6.5
				c-0.6,0.5-0.9,1.3-0.7,2.1l2.7,9.9c0.3,1-0.2,2.1-1.3,2.5c-0.6,0.2-1.2,0.1-1.6-0.2l-8.2-5.7c-0.6-0.5-1.5-0.5-2.1,0l-8.2,5.7
				c-0.9,0.6-2.1,0.3-2.7-0.6c-0.3-0.5-0.4-1.1-0.2-1.6l1.8-6.7l0.9-3.1"/>
			<path class="st1" d="M81.8,48.7l3.4,9.6c0.3,0.8,0.9,1.3,1.7,1.3l9.8,0.4c1.1,0.1,2,1,1.9,2.1c0,0.6-0.3,1.1-0.8,1.5l-7.7,6.5
				c-0.6,0.5-0.9,1.3-0.7,2.1l2.7,9.9c0.3,1-0.2,2.1-1.3,2.5c-0.6,0.2-1.2,0.1-1.6-0.2l-8.2-5.7c-0.6-0.5-1.5-0.5-2.1,0l-8.3,5.7
				c-0.9,0.6-2.1,0.3-2.7-0.6c-0.3-0.5-0.4-1.1-0.2-1.6l2.7-9.9c0.2-0.8-0.1-1.6-0.7-2.1L62,63.9c-1-0.6-1.3-1.8-0.7-2.8
				c0.4-0.7,1.1-1.1,1.9-1l9.8-0.4c0.8-0.1,1.5-0.6,1.7-1.4l3.4-9.6c0.3-1,1.4-1.5,2.4-1.2C81.2,47.7,81.6,48.1,81.8,48.7z"/>
		</g>
	</g>
</g>
</svg>
