<svg xmlns="http://www.w3.org/2000/svg" width="86" height="86" viewBox="0 0 86 86">
  <g id="reward-left" transform="translate(-522 -781)">
    <rect id="Rectangle_13" data-name="Rectangle 13" width="86" height="86" transform="translate(522 781)" fill="#ffcc01"/>
    <g id="reward1" transform="translate(538.821 782.9)">
      <path id="Path_54" data-name="Path 54" d="M36.734,9.1c.993.5.745,1.366.745,2.235h5.837c.869,0,1.242.373,1.242,1.242v10.8a8.076,8.076,0,0,1-6.706,7.7c-.373,0-.5.124-.621.5A14.93,14.93,0,0,1,26.923,43.623c-.124,0-.248.124-.373.124.5,2.359.993,4.719,1.614,7.2H38.472c1.242,0,1.614.373,1.614,1.614V64.485c0,1.242-.373,1.614-1.49,1.614H5.937c-1.242,0-1.49-.373-1.49-1.614V52.44c0-1.118.373-1.49,1.49-1.49H16.368c.5-2.359.993-4.719,1.614-7.078a27.876,27.876,0,0,1-3.353-1.614A14.836,14.836,0,0,1,7.427,31.7c-.124-.373-.248-.621-.621-.621A7.973,7.973,0,0,1,.1,23.381V12.7c0-.869.373-1.242,1.242-1.242H7.178c0-.869-.248-1.739.745-2.235C17.486,9.1,27.172,9.1,36.734,9.1ZM9.289,11.335V29.218a15.215,15.215,0,0,0,.248,2.359,12.963,12.963,0,0,0,25.706-2.608V11.335ZM6.682,53.185v4.222h16.64a.967.967,0,0,1,.869,1.118.979.979,0,0,1-.993.993H6.806V63.74h31.17V59.518H34c-.745,0-1.242-.373-1.242-1.118A1.147,1.147,0,0,1,34,57.283h3.85V53.06C27.544,53.185,17.113,53.185,6.682,53.185ZM37.6,13.571v15.15h.248a5.964,5.964,0,0,0,4.595-5.588V13.571Zm-35.392,0v9.935a.931.931,0,0,0,.124.621,5.668,5.668,0,0,0,4.719,4.595V13.571ZM18.727,50.825h7.327c-.5-2.235-.993-4.471-1.49-6.582H20.218C19.6,46.479,19.224,48.59,18.727,50.825Z" transform="translate(3 1)" fill="#0e204b"/>
      <path id="Path_55" data-name="Path 55" d="M13.64,29.427c.124-1.118.124-1.987.248-2.98a2.3,2.3,0,0,0-.248-.869c-.5-.621-1.118-1.242-1.614-1.987a2.085,2.085,0,0,1,1.242-3.6c.869-.248,1.739-.373,2.484-.621a1.24,1.24,0,0,0,.621-.5c.5-.745.869-1.49,1.366-2.235a2.135,2.135,0,0,1,3.85,0c.5.745.869,1.49,1.366,2.235a.683.683,0,0,0,.621.373c.869.248,1.739.373,2.608.621a2.18,2.18,0,0,1,1.242,3.6,26.014,26.014,0,0,0-1.739,2.111,1.331,1.331,0,0,0-.248.745,20.306,20.306,0,0,0,.248,2.732,2.128,2.128,0,0,1-2.98,2.235A22.388,22.388,0,0,0,20.1,30.3a.792.792,0,0,0-.745,0l-2.608,1.118A2.308,2.308,0,0,1,13.64,29.427Zm2.235-.124a19.814,19.814,0,0,0,2.856-1.242,2.121,2.121,0,0,1,1.739,0c.869.373,1.863.745,2.856,1.242-.124-1.118-.124-2.111-.248-3.1a1.627,1.627,0,0,1,.5-1.614c.745-.745,1.366-1.614,2.111-2.359-1.118-.248-2.235-.5-3.229-.745a1.808,1.808,0,0,1-1.118-.745c-.5-.869-.993-1.614-1.49-2.359-.124-.124-.124-.248-.248-.373-.5.869-1.118,1.739-1.614,2.608a1.836,1.836,0,0,1-1.366.993l-2.98.745c.745.869,1.366,1.739,2.111,2.484a2.168,2.168,0,0,1,.5,1.49A17.642,17.642,0,0,0,15.875,29.3Z" transform="translate(5.728 2.53)" fill="#fff"/>
      <path id="Path_56" data-name="Path 56" d="M24.235,49.018A1.118,1.118,0,1,1,23.118,47.9,1.311,1.311,0,0,1,24.235,49.018Z" transform="translate(5.296 9.383)" fill="#0e204b"/>
    </g>
  </g>
</svg>
