<svg xmlns="http://www.w3.org/2000/svg" width="141.421" height="141.421" viewBox="0 0 141.421 141.421"><defs><style>.a{fill:#fecb00;}.b{fill:#072c6b;}.c{fill:#02348a;}.d{fill:#0841a2;}.e{fill:#084cbf;}</style></defs><g transform="translate(-193 -2018.336)"><rect class="a" width="100" height="100" transform="translate(263.711 2018.336) rotate(45)"/><g transform="translate(233.613 2050.613)"><path class="b" d="M36.193,40.855H4.149a1.9,1.9,0,0,1,0-3.8H36.193a.632.632,0,0,0,.425-1.1L19.776,20.716A4.431,4.431,0,0,1,22.751,13H44.666a1.9,1.9,0,0,1,0,3.8H22.751a.632.632,0,0,0-.425,1.1L39.168,33.139a4.431,4.431,0,0,1-2.975,7.716Z" transform="translate(3.448 19.92)"/><path class="b" d="M32.3,18.5H26.641l9.977,9.028a.632.632,0,0,1-.425,1.1H4.149a1.9,1.9,0,0,0,0,3.8H36.193a4.431,4.431,0,0,0,2.973-7.716Z" transform="translate(3.448 28.347)"/><path class="b" d="M7.6,35.258a1.9,1.9,0,0,1-1.281-.5C6.06,34.526,0,28.925,0,23.07A7.854,7.854,0,0,1,7.6,15a7.855,7.855,0,0,1,7.6,8.073c0,5.855-6.06,11.454-6.316,11.689A1.9,1.9,0,0,1,7.6,35.258Z" transform="translate(0 22.984)"/><path class="c" d="M7.6,15A7.855,7.855,0,0,0,0,23.073c0,5.855,6.06,11.454,6.316,11.689a1.9,1.9,0,0,0,1.281.5Z" transform="translate(0 22.984)"/><path class="b" d="M26.661,32.92a1.889,1.889,0,0,1-1.233-.456C24.96,32.064,14,22.575,14,12.818a12.662,12.662,0,1,1,25.323,0c0,9.757-10.96,19.245-11.428,19.645A1.889,1.889,0,0,1,26.661,32.92Z" transform="translate(21.452 0)"/><path class="d" d="M22.065,13.129a5.065,5.065,0,1,1,5.065-5.065A5.07,5.07,0,0,1,22.065,13.129Z" transform="translate(26.049 4.597)"/><path class="c" d="M26.661,0A12.755,12.755,0,0,0,14,12.818c0,9.757,10.96,19.245,11.428,19.645a1.889,1.889,0,0,0,1.233.456V17.726a5.065,5.065,0,1,1,0-10.129Z" transform="translate(21.452)"/><path class="e" d="M22.065,3a5.065,5.065,0,1,0,0,10.129Z" transform="translate(26.049 4.597)"/></g></g></svg>