<svg xmlns="http://www.w3.org/2000/svg" width="141.421" height="141.421" viewBox="0 0 141.421 141.421"><defs><style>.a{fill:#efc003;}.b{fill:#072c6b;}</style></defs><g transform="translate(-1108 -2018.336)"><rect class="a" width="100" height="100" transform="translate(1178.711 2018.336) rotate(45)"/><g transform="translate(1147.336 2025.076)"><ellipse class="b" cx="11" cy="10.5" rx="11" ry="10.5" transform="translate(20.664 32.924)"/><ellipse class="b" cx="7" cy="6.5" rx="7" ry="6.5" transform="translate(46.664 40.924)"/><ellipse class="b" cx="7" cy="6.5" rx="7" ry="6.5" transform="translate(2.664 40.924)"/><path class="b" d="M16.6,242.444c-2.678-2.194-5.1-1.9-8.2-1.9A8.383,8.383,0,0,0,0,248.889V262.4a3.634,3.634,0,0,0,3.638,3.624c8.661,0,7.618.157,7.618-.374C11.256,256.075,10.122,249.056,16.6,242.444Z" transform="translate(0 -182.115)"/><path class="b" d="M139.928,240c-5.408-.451-10.109.005-14.163,3.352-6.785,5.435-5.479,12.753-5.479,21.7a4.339,4.339,0,0,0,4.332,4.332c26.108,0,27.147.842,28.7-2.586.508-1.159.369-.791.369-11.883C153.681,246.105,146.053,240,139.928,240Z" transform="translate(-105.319 -181.52)"/><path class="b" d="M386.009,240.542c-3.113,0-5.525-.287-8.2,1.9,6.427,6.562,5.342,13.1,5.342,23.2,0,.534-.866.374,7.488.374a3.764,3.764,0,0,0,3.768-3.753V248.89A8.383,8.383,0,0,0,386.009,240.542Z" transform="translate(-331.08 -182.116)"/></g></g></svg>