<?xml version="1.0" encoding="utf-8"?>
<!-- Generator: Adobe Illustrator 24.3.0, SVG Export Plug-In . SVG Version: 6.00 Build 0)  -->
<svg version="1.1" id="Layer_1" xmlns="http://www.w3.org/2000/svg" xmlns:xlink="http://www.w3.org/1999/xlink" x="0px" y="0px"
	 viewBox="0 0 38.5 42" style="enable-background:new 0 0 38.5 42;" xml:space="preserve">
<style type="text/css">
	.st0{fill:#072C6B;}
	.st1{fill:none;stroke:#FFFFFF;}
</style>
<g transform="translate(1669.5 3467) rotate(180)">
	<path class="st0" d="M1663.5,3463h-22c-3.3,0-6-2.7-6-6v-22c0-3.3,2.7-6,6-6h22c3.3,0,6,2.7,6,6v22
		C1669.5,3460.3,1666.8,3463,1663.5,3463z"/>
	<g transform="translate(1637 3425)">
		<path class="st0" d="M22.5,42h-17c-2.2,0-4-1.8-4-4l0,0c0-2.2,1.8-4,4-4h17c2.2,0,4,1.8,4,4l0,0C26.5,40.2,24.7,42,22.5,42z"/>
		<path class="st1" d="M22.5,41.5h-17C3.6,41.5,2,39.9,2,38l0,0c0-1.9,1.6-3.5,3.5-3.5h17c1.9,0,3.5,1.6,3.5,3.5l0,0
			C26,39.9,24.4,41.5,22.5,41.5z"/>
	</g>
	<g transform="translate(1637 3459)">
		<path class="st0" d="M22.5-26h-17c-2.2,0-4-1.8-4-4l0,0c0-2.2,1.8-4,4-4h17c2.2,0,4,1.8,4,4l0,0C26.5-27.8,24.7-26,22.5-26z"/>
		<path class="st1" d="M22.5-26.5h-17C3.6-26.5,2-28.1,2-30l0,0c0-1.9,1.6-3.5,3.5-3.5h17c1.9,0,3.5,1.6,3.5,3.5l0,0
			C26-28.1,24.4-26.5,22.5-26.5z"/>
	</g>
	<g transform="translate(1669.5 3430) rotate(90)">
		<path class="st0" d="M28,38.5H4c-2.2,0-4-1.8-4-4l0,0c0-2.2,1.8-4,4-4h24c2.2,0,4,1.8,4,4l0,0C32,36.7,30.2,38.5,28,38.5z"/>
		<path class="st1" d="M28,38H4c-1.9,0-3.5-1.6-3.5-3.5l0,0C0.5,32.6,2.1,31,4,31h24c1.9,0,3.5,1.6,3.5,3.5l0,0
			C31.5,36.4,29.9,38,28,38z"/>
	</g>
</g>
</svg>
