<?xml version="1.0" encoding="utf-8"?>
<!-- Generator: Adobe Illustrator 24.3.0, SVG Export Plug-In . SVG Version: 6.00 Build 0)  -->
<svg version="1.1" id="Layer_1" xmlns="http://www.w3.org/2000/svg" xmlns:xlink="http://www.w3.org/1999/xlink" x="0px" y="0px"
	 viewBox="0 0 38.5 42" style="enable-background:new 0 0 38.5 42;" xml:space="preserve">
<style type="text/css">
	.st0{fill:#980A8F;}
	.st1{fill:none;stroke:#FFFFFF;}
</style>
<path class="st0" d="M28,38H6c-3.3,0-6-2.7-6-6V10c0-3.3,2.7-6,6-6h22c3.3,0,6,2.7,6,6v22C34,35.3,31.3,38,28,38z"/>
<path class="st0" d="M10,0h17c2.2,0,4,1.8,4,4l0,0c0,2.2-1.8,4-4,4H10C7.8,8,6,6.2,6,4l0,0C6,1.8,7.8,0,10,0z"/>
<path class="st1" d="M10,0.5h17c1.9,0,3.5,1.6,3.5,3.5l0,0c0,1.9-1.6,3.5-3.5,3.5H10C8.1,7.5,6.5,5.9,6.5,4l0,0
	C6.5,2.1,8.1,0.5,10,0.5z"/>
<path class="st0" d="M10,34h17c2.2,0,4,1.8,4,4l0,0c0,2.2-1.8,4-4,4H10c-2.2,0-4-1.8-4-4l0,0C6,35.8,7.8,34,10,34z"/>
<path class="st1" d="M10,34.5h17c1.9,0,3.5,1.6,3.5,3.5l0,0c0,1.9-1.6,3.5-3.5,3.5H10c-1.9,0-3.5-1.6-3.5-3.5l0,0
	C6.5,36.1,8.1,34.5,10,34.5z"/>
<path class="st0" d="M38.5,9v24c0,2.2-1.8,4-4,4l0,0c-2.2,0-4-1.8-4-4V9c0-2.2,1.8-4,4-4l0,0C36.7,5,38.5,6.8,38.5,9z"/>
<path class="st1" d="M38,9v24c0,1.9-1.6,3.5-3.5,3.5l0,0c-1.9,0-3.5-1.6-3.5-3.5V9c0-1.9,1.6-3.5,3.5-3.5l0,0C36.4,5.5,38,7.1,38,9z
	"/>
</svg>
