<?xml version="1.0" encoding="utf-8"?>
<!-- Generator: Adobe Illustrator 24.3.0, SVG Export Plug-In . SVG Version: 6.00 Build 0)  -->
<svg version="1.1" id="Layer_1" xmlns="http://www.w3.org/2000/svg" xmlns:xlink="http://www.w3.org/1999/xlink" x="0px" y="0px"
	 viewBox="0 0 64 36" style="enable-background:new 0 0 64 36;" xml:space="preserve">
<style type="text/css">
	.st0{fill:#EFC003;}
	.st1{fill:#FFFFFF;}
</style>
<path class="st0" d="M63,36H1c-0.6,0-1-0.4-1-1V1c0-0.6,0.4-1,1-1h62c0.6,0,1,0.4,1,1v34C64,35.6,63.6,36,63,36z"/>
<path class="st1" d="M56.1,29.6L56.1,29.6c-1.8,0-3.2-1.4-3.2-3.2V9.6c0-1.8,1.4-3.2,3.2-3.2l0,0c1.8,0,3.2,1.4,3.2,3.2v16.7
	C59.3,28.1,57.9,29.6,56.1,29.6z"/>
</svg>
