<svg xmlns="http://www.w3.org/2000/svg" width="141.421" height="141.421" viewBox="0 0 141.421 141.421"><defs><style>.a{fill:#efc003;}.b{fill:#072c6b;}</style></defs><g transform="translate(-1565 -2018.336)"><rect class="a" width="100" height="100" transform="translate(1635.711 2018.336) rotate(45)"/><g transform="translate(1581.938 2053.984)"><g transform="translate(25.274)"><g transform="translate(0)"><path class="b" d="M71.6,282.64a13.853,13.853,0,0,1-11.213,5.721h-6.46a5.162,5.162,0,0,1-4.852-3.4,16.382,16.382,0,0,1-2.609-1.031,17.572,17.572,0,0,1-4.873-3.607,20.808,20.808,0,0,0-16.318,20.316v1.3a3.237,3.237,0,0,0,3.237,3.237H78.731a3.237,3.237,0,0,0,3.237-3.237v-1.3A20.793,20.793,0,0,0,71.6,282.64Z" transform="translate(-25.274 -241.477)"/><path class="b" d="M95.294,32.174a3.684,3.684,0,0,0,3.229-1.909l.05.135.015.04a14.385,14.385,0,0,0,8.111,8.54,5.155,5.155,0,0,1,4.369-2.416h6.46a3.617,3.617,0,0,0,1.77-.476,7.3,7.3,0,0,0,2.087-2.41A18.629,18.629,0,0,0,123,30.264a3.7,3.7,0,0,0,1.019,1.174v1.584a6.5,6.5,0,0,1-6.492,6.492h-6.46a2.211,2.211,0,0,0,0,4.423h6.46a10.927,10.927,0,0,0,10.914-10.914V31.437a3.68,3.68,0,0,0,1.474-2.949V19.264a3.68,3.68,0,0,0-1.53-2.989,17.681,17.681,0,0,0-35.249,0,3.68,3.68,0,0,0-1.53,2.989v9.225A3.687,3.687,0,0,0,95.294,32.174ZM110.763,4.423a13.276,13.276,0,0,1,13.192,11.943,3.7,3.7,0,0,0-1.036,1.28c-2.087-5.444-6.745-9.234-12.157-9.234-5.529,0-10.112,3.921-12.149,9.213l-.008.022a3.7,3.7,0,0,0-1.036-1.28A13.277,13.277,0,0,1,110.763,4.423Z" transform="translate(-82.416)"/></g></g></g></g></svg>