<svg xmlns="http://www.w3.org/2000/svg" width="94.454" height="110.916" viewBox="0 0 94.454 110.916"><defs><style>.a{fill:#072c6b;}.b{fill:#fff;}</style></defs><g transform="translate(-0.5 0)"><path class="a" d="M89.965,74.069a55.959,55.959,0,0,1-13.4,20.879c-6.73,6.572-15.543,11.794-26.193,15.519a8.014,8.014,0,0,1-2.545.449h-.1a8.127,8.127,0,0,1-1.562-.154,8.461,8.461,0,0,1-1.074-.293c-10.663-3.719-19.487-8.939-26.224-15.511a55.853,55.853,0,0,1-13.4-20.875C.055,59.394.363,43.211.611,30.206l0-.2c.05-1.074.082-2.2.1-3.448A11.756,11.756,0,0,1,11.785,15.043C24.537,14.331,34.4,10.172,42.832,1.956l.074-.068a7.105,7.105,0,0,1,9.646,0l.072.068c8.431,8.216,18.3,12.375,31.049,13.087A11.755,11.755,0,0,1,94.742,26.559c.018,1.254.05,2.38.1,3.448l0,.084C95.091,43.12,95.4,59.336,89.965,74.069Zm0,0" transform="translate(0 0)"/><path class="a" d="M261.09,74.072a55.959,55.959,0,0,1-13.4,20.879c-6.73,6.572-15.543,11.794-26.193,15.519a8.013,8.013,0,0,1-2.545.449V0a7.116,7.116,0,0,1,4.728,1.887l.072.068c8.431,8.216,18.3,12.375,31.049,13.087a11.755,11.755,0,0,1,11.069,11.516c.018,1.254.05,2.38.1,3.448l0,.084C266.217,43.123,266.523,59.339,261.09,74.072Zm0,0" transform="translate(-171.126 -0.003)"/><path class="b" d="M146.181,156.041a27.677,27.677,0,0,1-27.546,27.644h-.1a27.643,27.643,0,1,1,0-55.286h.1A27.677,27.677,0,0,1,146.181,156.041Zm0,0" transform="translate(-70.812 -100.582)"/><path class="b" d="M246.495,156.041a27.677,27.677,0,0,1-27.546,27.644V128.4A27.677,27.677,0,0,1,246.495,156.041Zm0,0" transform="translate(-171.126 -100.582)"/><path class="a" d="M180.659,217.535l-12.45,12.451-2.69,2.69a3.258,3.258,0,0,1-4.6,0l-5.784-5.787a3.254,3.254,0,0,1,4.6-4.6l3.485,3.485,12.84-12.84a3.254,3.254,0,0,1,4.6,4.6Zm0,0" transform="translate(-120.386 -166.058)"/><path class="a" d="M231.4,217.535l-12.45,12.451v-9.206l7.848-7.847a3.254,3.254,0,0,1,4.6,4.6Zm0,0" transform="translate(-171.126 -166.058)"/></g></svg>