<svg xmlns="http://www.w3.org/2000/svg" width="173.434" height="26.191" viewBox="0 0 173.434 26.191"><defs><style>.a{fill:#fff;}.b{fill:#be3538;}.c{fill:#589442;}.d{fill:#002f80;}.e{fill:none;}.f{fill:#ffd881;}.g{fill:#abc99f;}</style></defs><g transform="translate(0)"><g transform="translate(0 1.042)"><path class="a" d="M14.405,14.554A7.793,7.793,0,1,0,29,9.082,7.711,7.711,0,0,0,18.966,4.521a7.928,7.928,0,0,0-4.561,10.033Z" transform="translate(4.228 0.17)"/><ellipse class="a" cx="7.818" cy="7.818" rx="7.818" ry="7.818" transform="translate(0.912 4.17)"/><path class="b" d="M8.367,10.233A1.433,1.433,0,1,1,6.933,8.8,1.446,1.446,0,0,1,8.367,10.233Z" transform="translate(1.667 1.624)"/><path class="c" d="M21.667,10.233A1.433,1.433,0,1,1,20.233,8.8,1.446,1.446,0,0,1,21.667,10.233Z" transform="translate(5.697 1.624)"/><path class="d" d="M3.3,10.9a4.338,4.338,0,0,0,4.3,4.3,4.3,4.3,0,0,0,0-8.6,4.338,4.338,0,0,0-4.3,4.3Zm1.433,0A2.867,2.867,0,1,1,7.6,13.767,2.892,2.892,0,0,1,4.733,10.9Zm15.9,0a4.3,4.3,0,1,0,4.3-4.3A4.338,4.338,0,0,0,20.63,10.9Zm1.564,0a2.867,2.867,0,1,1,2.867,2.867A2.81,2.81,0,0,1,22.194,10.9Z" transform="translate(1 0.958)"/><path class="e" d="M15.753,15.378a6.643,6.643,0,0,0,2.867,2.476,6.9,6.9,0,0,0,5.342.261A6.742,6.742,0,0,0,28,9.253a6.742,6.742,0,0,0-8.861-4.039,7.144,7.144,0,0,0-3.909,3.648,6.661,6.661,0,0,0-.521,3.518" transform="translate(4.444 0.389)"/><path class="f" d="M20.9,4.315a6.8,6.8,0,0,1,2.736-.521A19.679,19.679,0,0,0,15.17,2.1,19.679,19.679,0,0,0,6.7,3.794a8.651,8.651,0,0,1,8.47,8.079,7.854,7.854,0,0,1,.782-3A8.906,8.906,0,0,1,20.9,4.315Z" transform="translate(2.03 -0.406)"/><path class="d" d="M32.967,7.576a11.962,11.962,0,0,1,1.694-3.518H28.927A21.22,21.22,0,0,0,17.33.8,21.8,21.8,0,0,0,5.473,4.058L0,4.188A10.274,10.274,0,0,1,1.694,7.706,8.5,8.5,0,0,0,0,12.788a8.713,8.713,0,0,0,15.506,5.473L17.33,21l1.824-2.736a8.264,8.264,0,0,0,3.127,2.476A9,9,0,0,0,28.927,21,8.732,8.732,0,0,0,34.009,9.791a4.958,4.958,0,0,0-1.042-2.215ZM17.33,2.494A19.679,19.679,0,0,1,25.8,4.188a6.8,6.8,0,0,0-2.736.521A7.943,7.943,0,0,0,18.242,9.27a11.269,11.269,0,0,0-.782,3,8.748,8.748,0,0,0-8.47-8.079A18.7,18.7,0,0,1,17.33,2.494ZM14.464,16.7a7.038,7.038,0,0,1-5.733,3,6.906,6.906,0,0,1,0-13.812,6.868,6.868,0,0,1,6.906,6.906,1.175,1.175,0,0,1-.13.652A7.374,7.374,0,0,1,14.464,16.7ZM28.406,19.3a6.929,6.929,0,0,1-5.342-.261A6.643,6.643,0,0,1,20.2,16.567a14.213,14.213,0,0,1-.782-1.433,7.957,7.957,0,0,1-.391-1.694,6.478,6.478,0,0,1,.521-3.518,7.144,7.144,0,0,1,3.909-3.648,6.9,6.9,0,0,1,8.861,4.039A6.775,6.775,0,0,1,28.406,19.3Z" transform="translate(0 -0.8)"/></g><g transform="translate(39.482)"><path class="c" d="M95.6,2.394a1.694,1.694,0,0,0,3.388,0,1.694,1.694,0,0,0-3.388,0Z" transform="translate(-10.512 0.212)"/><path class="c" d="M35.773,1.93l-2.606.912V6.1H30.3V8.315h2.736v7.167c0,3.388,1.173,4.821,4.039,4.821a10.127,10.127,0,0,0,2.085-.261h.13V17.7h-.13a7.5,7.5,0,0,1-1.3.261c-1.3,0-1.824-.782-1.824-2.736V8.315h3.258V6.1H36.033V1.8l-.261.13ZM44.5,8.315V6.1H41.9V20.042h2.867V13.006c0-2.867,1.173-4.561,3.518-4.561a3.238,3.238,0,0,1,1.042.13h.13V5.97l-1.173-.13A4.24,4.24,0,0,0,44.5,8.315ZM64.7,5.709a5.506,5.506,0,0,0-4.691,2.606V6.1H57.4V25.646H60.27V18.088a4.973,4.973,0,0,0,4.3,2.085c3.518,0,5.864-2.867,5.864-7.427,0-4.17-2.345-7.036-5.733-7.036Zm-.782,12.249c-2.215,0-3.648-1.955-3.648-4.952S61.7,8.185,64.049,8.185c2.215,0,3.518,1.824,3.518,4.821-.13,3-1.433,4.952-3.648,4.952Z" transform="translate(-30.3 0.545)"/><path class="c" d="M68.824,6.255A8.74,8.74,0,0,0,64.264,7.3h-.13V9.642h.261A7.47,7.47,0,0,1,68.173,8.47a2.952,2.952,0,0,1,3.258,3.258v.13H69.867c-4.691,0-7.167,1.694-7.167,4.691a4.109,4.109,0,0,0,4.43,4.17A5.559,5.559,0,0,0,71.691,18.5v1.955H74.3V12.118C74.036,8.209,72.342,6.255,68.824,6.255Zm2.476,8.47c0,2.345-1.433,3.909-3.649,3.909a2.229,2.229,0,0,1-2.345-2.215c0-1.694,1.564-2.606,4.561-2.606H71.3v.912ZM86.024,0V8.47a5.084,5.084,0,0,0-4.3-2.215c-3.388,0-5.733,2.867-5.733,7.036,0,4.3,2.345,7.427,5.733,7.427a5.142,5.142,0,0,0,4.561-2.606v2.345h2.606V0ZM82.376,18.373c-2.085,0-3.518-1.824-3.518-4.952,0-3,1.3-4.952,3.388-4.952,2.345,0,3.779,1.824,3.779,4.952S84.591,18.373,82.376,18.373ZM101.4,6.645l-4.039,8.079L93.712,6.645H90.585l6.776,13.942L104.4,6.645Zm7.036,0H105.83V20.588H108.7V6.645Zm3.518,3.518c0,1.955,1.3,3,3.779,4.17,1.564.782,2.345,1.173,2.345,2.345s-1.042,1.824-2.606,1.824a7.45,7.45,0,0,1-3.518-.912l-.261-.13-.13,2.476h.13a8.642,8.642,0,0,0,3.648.652c3.388,0,5.733-1.694,5.733-4.17,0-2.085-1.433-3.258-3.909-4.3-1.824-.782-2.476-1.3-2.476-2.215,0-.782.782-1.433,2.085-1.433a7.6,7.6,0,0,1,3.388.782l.261.13.13-2.345h-.13a10.735,10.735,0,0,0-3.388-.521c-3,0-5.082,1.433-5.082,3.648Zm17.982-3.909c-4.3,0-6.906,2.736-6.906,7.3s2.606,7.3,6.906,7.3,6.906-2.736,6.906-7.3-2.606-7.3-6.906-7.3Zm0,12.249c-2.345,0-3.909-1.955-3.909-4.952s1.564-5.082,3.909-5.082,3.909,1.955,3.909,5.082C133.846,16.549,132.412,18.5,129.937,18.5Zm12.118-9.642V6.645h-2.606V20.588h2.867V13.552c0-2.867,1.173-4.561,3.518-4.561a3.238,3.238,0,0,1,1.042.13h.13l.13-2.736-1.173-.13a4.486,4.486,0,0,0-3.909,2.606Z" transform="translate(-20.482)"/><path class="c" d="M49.6,6.433H46.991V20.376h2.736V6.433Zm-3-4.039a1.694,1.694,0,0,0,3.388,0,1.694,1.694,0,0,0-3.388,0Z" transform="translate(-25.361 0.212)"/><path class="g" d="M133.661,4.745a2.269,2.269,0,0,1,.652,1.824,2.58,2.58,0,0,1-4.43,1.824A2.294,2.294,0,0,1,129.1,6.7a2.573,2.573,0,0,1,.782-1.824,2.158,2.158,0,0,1,1.694-.652,1.958,1.958,0,0,1,2.085.521Zm-3.258.261a2.092,2.092,0,0,0-.652,1.433,2.092,2.092,0,0,0,.652,1.433,1.9,1.9,0,0,0,2.867,0,2.092,2.092,0,0,0,.652-1.433,2.733,2.733,0,0,0-.521-1.433,2.093,2.093,0,0,0-1.433-.652,2.86,2.86,0,0,0-1.564.652Zm1.433.13q1.173,0,1.173.782a.826.826,0,0,1-.652.782l.652,1.173h-.782l-.521-1.042h-.13V7.872h-.782V5.136h1.042Zm-.261,1.173h.261c.391,0,.521-.13.521-.391s-.13-.391-.521-.391h-.261Z" transform="translate(-0.36 1.249)"/></g></g></svg>