<svg xmlns="http://www.w3.org/2000/svg" width="27.77" height="27.77" viewBox="0 0 27.77 27.77"><defs><style>.a{fill:#002f80;}</style></defs><g transform="translate(0 -0.004)"><g transform="translate(0 0.004)"><g transform="translate(12.384 14.785)"><path class="a" d="M205.106,243.089a1.5,1.5,0,1,0,1.5,1.5A1.5,1.5,0,0,0,205.106,243.089Z" transform="translate(-203.605 -243.089)"/></g><g transform="translate(2.438 10.564)"><path class="a" d="M55.174,180.091c1.735-2.016,4.366-3.055,7.81-3.1a11.4,11.4,0,0,0-.553-3.3,18.771,18.771,0,0,1-10.6,3.324,21.57,21.57,0,0,1-11.207-3.322,11.454,11.454,0,0,0-.544,3.169c3.568,0,6.278,1.048,8.053,3.112,2.8,3.258,2.343,7.907,2.248,8.652.377.037.759.057,1.146.057a11.573,11.573,0,0,0,1.38-.086C52.792,187.52,52.514,183.181,55.174,180.091Zm6.517-4.864.19.442-3.628,1.56-.19-.441Zm-16.633,2-3.628-1.56.189-.442,3.627,1.561Zm4.491,2.181a1.981,1.981,0,1,1,1.981,1.981A1.983,1.983,0,0,1,49.548,179.409Z" transform="translate(-40.082 -173.688)"/></g><path class="a" d="M13.885,0A13.885,13.885,0,1,0,27.77,13.889,13.9,13.9,0,0,0,13.885,0Zm0,26.036A11.941,11.941,0,1,1,25.825,14.1,11.954,11.954,0,0,1,13.885,26.04Z" transform="translate(0 -0.004)"/></g></g></svg>