<svg xmlns="http://www.w3.org/2000/svg" width="60.287" height="32.282" viewBox="0 0 60.287 32.282"><defs><style>.a,.d{fill:navy;}.b{fill:#fff;}.c{fill:#d4aa00;}.d{fill-rule:evenodd;}</style></defs><g transform="translate(0)"><path class="a" d="M-9.523,93.441v32.282H50.764V93.441H-9.523Z" transform="translate(9.523 -93.441)"/><path class="b" d="M-21.65-21.65V9.888H37.893V-21.65H-21.65Z" transform="translate(22.022 22.022)"/><rect class="c" width="56.616" height="9.542" transform="translate(1.835 20.905)"/><rect class="a" width="56.616" height="9.542" transform="translate(1.835 1.835)"/><path class="d" d="M223.014,279.358l0,.025-1.167,0,1.035-1.755h0Zm-11.386,3.081q-.105-.117,0-.423h0l2.39-6.709.139-.152,0-.025-2.61-.007h0c0,.008,0,.012-.013.014a1.124,1.124,0,0,1-.068.565h0l-2.168,6.242h0a1.088,1.088,0,0,1-.306.5h0l2.638,0h0Zm6.491-.637a1.875,1.875,0,0,0-.229-3.162q-.084-.066-1.078-.709c-.6-.388-.861-.6-.872-.927-.014-.452.572-.818,1.575-.662a3.307,3.307,0,0,1,1.628.807h0l.06-.006.288-1.547h0a4.166,4.166,0,0,0-1.388-.654c-1.669-.375-4.5.243-4.43,2.485a1.857,1.857,0,0,0,1.23,1.679h0l.2.094h0c.61.283,1.484.722,1.459,1.4-.036.965-2.112.8-3.259-.033h0l-.487-.382-.034,1.575h0c-.007.234.611.563.953.688a4.172,4.172,0,0,0,4.379-.65Zm7.25.624-.06-.468-.445-6.824-2.29,0-.027.186-4.3,7.121,2.047-.006h0a.539.539,0,0,1-.026-.429h0l.86-1.394,2.037-.034h0q0,.051.039,1.241a2.089,2.089,0,0,1-.045.613h0l2.213-.009Zm-16.438-7.268.045.239-2.987,4.578h0a.05.05,0,0,0-.039-.009h0l-.019-4.792h-3.245q.057.057.312.258a2.021,2.021,0,0,1,.426.435,1.194,1.194,0,0,1,.249.508h0l.018,6.1,2.353.017,5.1-7.326-2.214,0h0Z" transform="translate(-184.459 -262.576)"/></g></svg>