<svg xmlns="http://www.w3.org/2000/svg" width="22.438" height="22.438" viewBox="0 0 22.438 22.438">
  <path id="wp" d="M13.672,2.25A10.973,10.973,0,0,0,2.657,13.18a10.817,10.817,0,0,0,1.581,5.644L2.25,24.688l6.1-1.937a11.034,11.034,0,0,0,16.339-9.57A10.973,10.973,0,0,0,13.672,2.25Zm5.477,15.081A2.845,2.845,0,0,1,17.2,18.586c-.517.027-.531.4-3.348-.823A11.493,11.493,0,0,1,9.21,13.372a5.4,5.4,0,0,1-1.039-2.928,3.121,3.121,0,0,1,1.072-2.29,1.079,1.079,0,0,1,.763-.321c.222,0,.365-.007.53,0s.41-.034.624.533.723,1.961.789,2.1a.51.51,0,0,1,.005.489,1.913,1.913,0,0,1-.3.455c-.147.158-.309.353-.44.473-.146.133-.3.279-.145.564a8.429,8.429,0,0,0,1.491,1.99,7.685,7.685,0,0,0,2.209,1.468c.276.15.441.134.612-.047s.733-.789.931-1.06.384-.219.638-.117,1.611.829,1.887.979.46.227.526.346A2.313,2.313,0,0,1,19.149,17.331Z" transform="translate(-2.25 -2.25)" fill="#fff"/>
</svg>
