<svg xmlns="http://www.w3.org/2000/svg" width="65.772" height="55.442" viewBox="0 0 65.772 55.442">
  <g id="yellow-wallet" transform="translate(0 -8.85)">
    <path id="Path_10" data-name="Path 10" d="M33.412,64.263c-6.906,0-13.812.066-20.718,0C6.117,64.2,1.381,60.382.132,54.265A13.519,13.519,0,0,1,0,51.963V21.182A11.8,11.8,0,0,1,11.51,9.014c5.591-.263,11.247-.132,16.838-.132H54.985c1.118,0,2.039.395,2.1,1.71,0,1.315-.855,1.776-2.039,1.776H13.22A9.593,9.593,0,0,0,6.84,14.21a8.225,8.225,0,0,0-3.289,6.446c0,10.655-.066,21.31,0,31.9a8.237,8.237,0,0,0,7.432,8.024c1.381.132,2.828.132,4.209.132H54.262c3.354,0,4.407-1.052,4.472-4.472,0-.526,0-1.25.263-1.513a2.764,2.764,0,0,1,1.842-.921,1.894,1.894,0,0,1,1.315,1.315c.855,5.722-2.7,9.142-7.366,9.142C47.619,64.2,40.515,64.263,33.412,64.263Z" transform="translate(0 0)" fill="#ffcc01"/>
    <path id="Path_11" data-name="Path 11" d="M70.488,40.478c2.5,0,5-.066,7.432,0,3.815.066,5.854,2.17,5.854,5.985v9.077c-.066,3.552-2.17,5.722-5.788,5.722-5,0-9.932.066-14.93,0A10.376,10.376,0,0,1,52.6,51.133a10.207,10.207,0,0,1,9.8-10.589c2.7-.2,5.393-.066,8.09-.066Zm-.066,3.486h0c-2.565,0-5.2-.066-7.761.066A6.679,6.679,0,0,0,56.084,51,6.823,6.823,0,0,0,62.99,57.71c5,.066,9.932,0,14.93,0,1.71,0,2.3-.658,2.3-2.368V46.266c0-1.776-.526-2.3-2.368-2.368C75.421,43.964,72.922,43.964,70.423,43.964Z" transform="translate(-18.002 -10.811)" fill="#ffcc01"/>
    <path id="Path_12" data-name="Path 12" d="M39.634,19.5H60.352c4.407,0,7.235,2.894,7.235,7.3v1.776c0,1.118-.658,1.907-1.644,1.776-.658-.132-1.381-.987-1.842-1.644-.263-.395-.066-1.184-.066-1.776,0-2.762-1.184-3.946-3.946-3.946H18.127c-1.25,0-2.3-.2-2.434-1.71-.132-1.184.723-1.776,2.5-1.776Z" transform="translate(-5.367 -3.645)" fill="#ffcc01"/>
    <path id="Path_13" data-name="Path 13" d="M69.626,54.965A2.942,2.942,0,0,1,67,57.6a2.6,2.6,0,1,1,0-5.2A2.718,2.718,0,0,1,69.626,54.965Z" transform="translate(-22.008 -14.906)" fill="#ffcc01"/>
  </g>
</svg>
