<?xml version="1.0" encoding="utf-8"?>
<!-- Generator: Adobe Illustrator 24.3.0, SVG Export Plug-In . SVG Version: 6.00 Build 0)  -->
<svg version="1.1" id="Layer_1" xmlns="http://www.w3.org/2000/svg" xmlns:xlink="http://www.w3.org/1999/xlink" x="0px" y="0px"
	 viewBox="0 0 100 100" style="enable-background:new 0 0 100 100;" xml:space="preserve">
<style type="text/css">
	.st0{fill:#0E204B;}
</style>
<path class="st0" d="M99.3,71.4c0,1.3,0,2.7,0,4c-0.1,0.4-0.4,0.8-0.4,1.2c-1.5,11.3-9.7,20.3-20.6,22.8c-11.2,2.5-22.6-2.3-28.7-12
	c-0.8-1.3-1.7-1.8-3.2-1.8c-11.2,0.1-22.4-0.1-33.7,0.1c-5.1,0-8.7-1.6-10.2-6.8c0-20.4,0-40.8,0-61.2C4,12.6,7.6,10.5,12.7,11
	C13.8,2.8,15.4,0.3,20,0.4c1.7,0,3.7,0.6,5.2,1.6c3.1,2.1,2.7,5.6,2.8,9c10.6,0,21.1,0,31.7,0c0-1.3-0.1-2.5,0-3.6
	C59.9,3.2,63.2,0,67.2,0c4.1,0,7.4,3.3,7.5,7.5c0,1.1,0,2.3,0,3.4c7.4,0.7,9.6,3,9.6,10.1c0,8.4,0.1,16.8,0,25.2
	c0,1.9,0.5,3,2.2,4.1c6.1,3.7,10,9.2,11.8,16.1C98.8,68,99,69.7,99.3,71.4z M12.6,15.8c-4.2-0.5-5.5,0.7-5.5,4.7c0,18.7,0,37.3,0,56
	c0,3.8,1,4.8,4.7,4.8c10.8,0,21.6,0,32.3,0c0.8,0,1.6,0,2.5,0c-2.6-10.4-0.8-19.4,6.5-26.9s16.3-9.5,26.5-7.3c0-0.8,0.1-1.3,0.1-1.9
	c0-8.5,0-17,0-25.4c0-3.3-1.4-4.4-4.8-3.9c-1.2,6.8-3.2,9.4-7.7,9.2c-1.7-0.1-3.5-0.7-4.9-1.7c-2.6-1.7-2.8-4.7-2.8-7.6
	c-10.6,0-21,0-31.1,0c-0.7,2.5-1,4.9-2,6.9c-1.1,2.3-3.5,3.1-6,3.2C15.9,25.8,13.9,23.3,12.6,15.8z M72.3,95.6
	c12.3,0,22.6-10,22.6-22.2c0.1-12.7-10.1-23-22.6-23.1c-12.2,0-22.6,10.2-22.6,22.3C49.7,85.5,59.6,95.6,72.3,95.6z M70.5,12.9
	L70.5,12.9c0-1.9,0.1-3.9,0-5.8c-0.1-2.1-1.4-3.2-3.2-3.2c-1.8,0-3.1,1.3-3.2,3.3c-0.1,3.6-0.1,7.1,0,10.7c0,2.1,1.5,3.5,3.3,3.5
	c1.7,0,3.1-1.4,3.2-3.4C70.6,16.3,70.5,14.6,70.5,12.9z M23.6,13c0-1.7,0.1-3.4,0-5.1c-0.1-2-1.4-3.3-3.2-3.3
	c-1.8,0-3.2,1.3-3.2,3.2c-0.1,3.4-0.1,6.8,0,10.3c0,2,1.4,3.3,3.2,3.3c1.8,0,3.1-1.2,3.2-3.3C23.7,16.4,23.6,14.7,23.6,13z"/>
<path class="st0" d="M69.6,58c1.7,0,3.2,0,5,0c0,4.3,0.1,8.4-0.1,12.5c-0.1,2.2,0.7,3.3,2.6,4.3c2.9,1.4,5.7,3.1,8.7,4.8
	c-0.7,1.2-1.3,2.4-2,3.8c-2.9-1.6-5.6-3.5-8.6-4.6c-4.8-1.8-6.8-4.9-6-10.1c0.5-3.2,0.1-6.5,0.1-9.8C69.4,58.7,69.5,58.4,69.6,58z"
	/>
<path id="Path_29_1_" class="st0" d="M30.1,58.4H16.5c-1.2,0-2.2-0.5-2.5-2.1s0.3-3.2,1.5-3.7c0.3-0.1,0.6-0.1,1-0.1h27.3
	c1-0.1,2,0.6,2.5,1.8c0.5,1.5,0,3.2-1.2,3.9c-0.3,0.2-0.7,0.3-1.1,0.2L30.1,58.4z"/>
<path id="Path_29_2_" class="st0" d="M32.8,48.5H16.9c-1.5,0-2.6-0.5-2.9-2.1c-0.4-1.6,0.4-3.2,1.8-3.7c0.4-0.1,0.7-0.1,1.1-0.1
	h31.9c1.2-0.1,2.4,0.6,2.9,1.8c0.6,1.5,0,3.2-1.4,3.9c-0.4,0.2-0.8,0.3-1.3,0.2L32.8,48.5z"/>
<path id="Path_31_1_" class="st0" d="M28.5,66.8H16.3c-0.9,0.1-1.9-0.4-2.4-1.4c-0.5-1.3-0.1-2.8,0.9-3.5c0.3-0.2,0.6-0.3,0.9-0.3
	c1.8-0.1,3.6,0,5.4,0h19.2c0.4,0,0.8,0,1.2,0.1c0.9,0.1,1.6,1.1,1.6,2.3c0.2,1.2-0.4,2.3-1.4,2.6c-0.5,0.2-1,0.3-1.5,0.3
	C36.5,66.8,32.5,66.8,28.5,66.8L28.5,66.8z"/>
</svg>
