<?xml version="1.0" encoding="utf-8"?>
<!-- Generator: Adobe Illustrator 24.3.0, SVG Export Plug-In . SVG Version: 6.00 Build 0)  -->
<svg version="1.1" id="Layer_1" xmlns="http://www.w3.org/2000/svg" xmlns:xlink="http://www.w3.org/1999/xlink" x="0px" y="0px"
	 viewBox="0 0 100 100" style="enable-background:new 0 0 100 100;" xml:space="preserve">
<style type="text/css">
	.st0{fill:#0E204B;}
</style>
<path class="st0" d="M0,65.8c0.2-1.4,0.3-2.8,0.5-4.1C2.9,46.9,10.3,35.3,22.7,27c7.4-4.9,15.6-7.7,24.4-8
	c20.5-0.7,36.1,8,46.5,25.7c5.2,8.9,6.7,18.5,6.2,27.1c-12,0-24.1,0-36.2,0c0-1.9,0-3.8,0-5.8c10,0,20.1,0,30.3,0
	c-0.8-10-4.4-18.5-10.8-26.1c-1.6,1.6-3.1,3.2-4.6,4.7c-1.5-1.5-2.8-2.8-4.1-4.1c1.5-1.5,3-3,4.7-4.6c-7.7-6.6-16.3-10.2-26.2-11
	c0,5.9,0,11.6,0,17.5c-2,0-3.9,0-5.9,0c0-5.8,0-11.5,0-17.4c-9.9,0.8-18.5,4.4-26,10.7c1.5,1.5,3.1,3,4.5,4.5
	c-1.5,1.5-2.8,2.8-4.1,4.1c-1.4-1.4-2.9-2.9-4.5-4.5C10.4,47.3,6.8,55.9,6,65.9c10.2,0,20.2,0,30.3,0c0,2,0,3.9,0,5.9
	c-0.5,0-0.9,0-1.3,0c-11.3,0-22.5,0-33.8,0c-0.4,0-0.8,0.1-1.3,0.1C0,69.9,0,67.8,0,65.8z"/>
<path class="st0" d="M30.6,38.2c0.2-0.2,0.4-0.3,0.6-0.4c1.5-0.8,2.9-1.7,4.4-2.6c0.2,0.4,0.4,0.7,0.6,1c3.8,6.7,7.7,13.4,11.5,20.1
	c0.3,0.5,0.5,0.8,1.2,0.7c5.8-0.6,11.3,3.4,12.5,9.2c1.3,6.3-2.6,12.5-8.8,13.9c-6.4,1.4-12.6-2.4-14.1-8.7c-1-4.4,0.2-8.2,3.4-11.3
	c0.2-0.2,0.5-0.4,0.8-0.7C38.8,52.5,34.7,45.4,30.6,38.2z M55.9,68.8c0-3.2-2.6-5.8-5.8-5.8c-3.2,0-5.9,2.7-5.9,5.9
	c0,3.2,2.6,5.8,5.8,5.8C53.2,74.7,55.9,72.1,55.9,68.8z"/>
</svg>
