<?xml version="1.0" encoding="utf-8"?>
<!-- Generator: Adobe Illustrator 24.3.0, SVG Export Plug-In . SVG Version: 6.00 Build 0)  -->
<svg version="1.1" id="Layer_1" xmlns="http://www.w3.org/2000/svg" xmlns:xlink="http://www.w3.org/1999/xlink" x="0px" y="0px"
	 viewBox="0 0 100 100" style="enable-background:new 0 0 100 100;" xml:space="preserve">
<style type="text/css">
	.st0{fill:#0E204B;}
</style>
<g id="help" transform="translate(-0.901 -1.155)">
	<path id="Path_7" class="st0" d="M39.4,89.5c-5,1-7.4-0.5-8.6-5.2c-0.2-0.6-0.7-1-1.3-1.1c-2.2-0.3-4-1.7-5-3.7
		c-0.4-0.5-1-0.9-1.6-1c-1.5-0.1-3,0-4.6-0.1c-3.3,0.4-6.2-2-6.5-5.2c-0.1-0.9,0-1.9,0.3-2.7l0.3-0.9c-4.4-3-4.9-4.1-3.8-9.4
		c-4-3-4.5-6.1-1.7-10.5c-2.1-2.4-2.2-5.8-0.4-8.4c2.1-2.9,5.4-1.9,8.3-2.2c0.4-4-1.2-7.9-4.1-10.6c-2.8-2.5-5.5-5.2-8-8
		c-0.8-0.8-1.9-1.7-0.9-2.8c1.1-1.2,2-0.1,2.8,0.7c3,2.9,5.9,5.9,8.9,8.8c2.3,2.1,3.7,5.1,3.9,8.2c0.1,1.1,0.3,2.2,0.5,3.7h10
		c2.3-0.3,4.4,0.9,5.5,2.9c1.2,2.1,1.1,4.8-0.3,6.8c-0.3,0.3-0.5,0.6-0.7,1c2.1,2.5,2.3,6.1,0.3,8.7c0.6,2,1.1,3.7,1.7,5.7
		c0.7-0.8,1.5-1.6,2.4-2.3c0.6-0.4,1.9-0.8,2.3-0.4c1.1,0.8,0.4,1.7-0.4,2.5c-1.5,1.4-2.9,2.9-4.3,4.4c-0.4,0.5-0.6,1.1-0.5,1.7
		c1.2,5.3-0.5,7.8-6,8.6c-0.1,0-0.2,0.1-0.3,0.2c0.5,1.4,2.2,2.2,3.6,1.6c0.5-0.2,1-0.6,1.3-1c2.6-2.5,5.2-5.1,7.7-7.7l2.8-2.8
		c0.8-0.8,1.7-1.8,2.8-0.7c1.1,1.1,0.1,2-0.7,2.8c-3.4,3.4-6.8,6.7-10.1,10.1c-1.8,1.8-2,3.8-0.5,5.2c1.4,1.4,3.3,1.3,5.1-0.5
		c3.1-3.1,6.1-6.3,9.1-9.4c0.4-0.4,0.8-1.1,1.2-1.2c0.9-0.1,1.8-0.2,2.7-0.1c-0.2,0.8-0.1,1.8-0.6,2.4c-2.6,3-5.4,5.8-8.1,8.7
		c-0.4,0.4-0.7,0.8-1,1.2c-0.9,1.1-0.8,2.8,0.3,3.8c1,1.1,2.7,1.3,3.8,0.3c3.8-3.4,7.7-6.9,11.3-10.6c0.9-1.4,1.5-2.9,1.7-4.5
		c1-3.5,1.2-7.1,0.5-10.7c-0.8-3.6-0.4-7.3,1-10.7c0.8-2.1,0.3-2.9-2.1-3c-3.6-0.2-7.3-0.5-10.9-0.7c-3.8-0.1-6.8-3.3-6.7-7.1
		c0.1-3.8,3.3-6.8,7.1-6.7c3.7,0,7.4,0.3,11.1,0.4h2.6c-1.7-4.3-3.1-8.4-5-12.3c-1.4-2.5-3.7-4.2-6.5-4.9c-2.6-0.8-5.4-1.4-8-2.4
		c-2.3-0.9-4.5-2.1-6.4-3.7c-3.2-2.8-6.1-5.9-9-8.9C26.9,4.9,26,4.1,27.3,3c1-1,1.8-0.1,2.5,0.6c2.9,2.9,5.7,6,8.8,8.6
		c1.7,1.5,3.7,2.6,5.9,3.4c2.6,1,5.3,1.5,8,2.4c4.4,1.4,7.8,4.7,9.3,9.1c1.1,3.1,2.3,6.2,3.4,9.3c0.4,1.2,1,1.9,2.4,1.8
		c2.5-0.1,4.9,0.9,6.6,2.7c3.4,3.2,6.9,6.4,10.4,9.6c1.7,1.5,2.8,3.6,3,5.9c0.3,3.8,0.8,7.6,1.5,11.4c0.4,1.9,1.3,3.7,2.6,5.2
		c2.5,2.9,5.4,5.5,8.1,8.2c0.8,0.8,1.6,1.7,0.5,2.7c-1,1-1.8,0.1-2.5-0.6c-2-2-3.9-4.2-6.1-6c-3.7-2.9-5.9-7.4-6-12.2
		c-0.1-2.7-0.4-5.4-1-8.1c-0.3-1.6-1-3-2.1-4.2c-3.4-3.4-6.9-6.6-10.5-9.7c-1.2-1-2.6-1.6-4.2-1.8c-6.1-0.4-12.2-0.6-18.3-0.8
		c-2.3-0.3-4.3,1.2-4.7,3.5c0,0.1,0,0.2,0,0.3c-0.2,2.2,1.5,4.2,3.7,4.4c0.1,0,0.3,0,0.4,0c3.4,0.3,6.9,0.4,10.3,0.5
		c4.8,0.2,6.5,2.7,5,7.2c-2.2,6.1-1,12.9,3,18c0.2,0.3,0.7,0.6,0.7,0.9c0.1,0.6,0.1,1.5-0.2,1.7c-0.6,0.3-1.3,0.3-1.9,0
		c-0.4-0.2-0.7-0.8-1-1.2c-0.3-0.4-0.7-0.8-0.8-1c-0.9,2.8-2,5.5-3.3,8.1c-1.7,2.4-3.6,4.7-5.8,6.7c2.3,1.5,5.1,1.8,7.6,0.8
		c4.5-2.8,10.5-1.4,13.3,3.1c0,0,0,0,0,0.1c1,1.3,2.4,2.3,3.4,3.6c0.4,0.5,0.2,1.5,0.3,2.2c-0.8-0.1-1.8,0.1-2.2-0.3
		c-2-1.8-3.9-3.8-5.8-5.7c-1.2-1.5-3.2-2-5-1.2c-0.7,0.3-1.4,0.4-2.1,0.7c-2.9,1.4-6.3,1.4-9.2-0.1c-1.9-1.2-4.4-0.8-5.9,0.9
		C45.6,96.4,41.3,94.6,39.4,89.5z M19.8,48.2h8.3c1.6,0.2,3-0.9,3.2-2.5c0-0.2,0-0.5,0-0.7c0-2-1-3-3.1-3H11.3c-2.2,0-3.2,1-3.1,3.1
		c0,2.1,1,3,3.3,3C14.3,48.2,17.1,48.2,19.8,48.2z M19.8,57.4L19.8,57.4l8.1-0.1c2.4,0,3.2-0.7,3.2-2.9c0-2.3-0.9-3.1-3.3-3.1H11.3
		c-2.3,0-3.3,1-3.3,3.2c0.1,2.1,1.1,3,3.3,2.9H19.8z M21.1,60.3H14c-2.3,0-3.1,0.7-3.1,2.9c0,2.1,0.9,3.2,3.1,3.2c2.5,0.1,5,0,7.5,0
		c2.3,0,4.6,0.1,6.9-0.1c1.8-0.1,2.7-1.3,2.6-3.3c-0.1-1.9-0.9-2.7-2.8-2.7L21.1,60.3z M23,69.4h-5.5c-1.4-0.2-2.6,0.8-2.8,2.2
		c0,0.2,0,0.4,0,0.6c-0.1,1.9,0.9,3.3,2.6,3.3c3.9,0.1,7.8,0.1,11.7,0c1.8,0,2.6-1.3,2.5-3.4c-0.2-1.7-1-2.7-2.8-2.7L23,69.4z"/>
</g>
</svg>
