<?xml version="1.0" encoding="utf-8"?>
<!-- Generator: Adobe Illustrator 24.3.0, SVG Export Plug-In . SVG Version: 6.00 Build 0)  -->
<svg version="1.1" id="Layer_1" xmlns="http://www.w3.org/2000/svg" xmlns:xlink="http://www.w3.org/1999/xlink" x="0px" y="0px"
	 viewBox="0 0 100 100" style="enable-background:new 0 0 100 100;" xml:space="preserve">
<style type="text/css">
	.st0{fill:none;stroke:#0E204B;}
</style>
<g id="invitefriend" transform="translate(-0.495 -23.5)">
	<path id="Path_14" class="st0" d="M66,44.8c8.1-0.1,14.7,6.3,14.8,14.4S74.4,73.9,66.4,74c-0.1,0-0.3,0-0.4,0
		c-8.1,0.1-14.7-6.3-14.8-14.4c-0.1-8.1,6.3-14.7,14.4-14.8C65.7,44.8,65.8,44.8,66,44.8z M66.1,67.1c4.3,0,7.8-3.4,7.9-7.7
		s-3.4-7.8-7.7-7.9c-0.1,0-0.2,0-0.3,0c-4.3,0-7.8,3.5-7.8,7.8c0,0,0,0.1,0,0.1c0,4.2,3.5,7.7,7.7,7.7C66,67.1,66,67.1,66.1,67.1z"
		/>
	<path id="Path_15" class="st0" d="M20.3,59.5c-0.1-8,6.3-14.5,14.2-14.6c0,0,0,0,0.1,0c8-0.1,14.7,6.3,14.8,14.3
		c0.1,8-6.3,14.7-14.3,14.8c-8,0.1-14.7-6.3-14.8-14.3C20.3,59.6,20.3,59.6,20.3,59.5z M42.6,59.4c0-4.3-3.4-7.8-7.7-7.9
		c0,0,0,0,0,0c-4.3,0-7.8,3.5-7.9,7.9c0,4.3,3.5,7.8,7.8,7.8S42.6,63.7,42.6,59.4L42.6,59.4z"/>
	<path id="Path_16" class="st0" d="M34.8,75.8c14.7,0.4,27.7,9.4,33.1,23.1c0.3,0.7,0.5,1.5,0.6,2.2c0.3,1.6-0.7,3.1-2.2,3.5
		c-1.6,0.6-3.4-0.2-4-1.7c-0.1-0.4-0.3-0.7-0.5-1.1c-5.6-14.9-22.1-22.4-37-16.8c-2.5,0.9-4.8,2.2-6.9,3.7c-1.2,1.3-3.3,1.3-4.5,0.1
		c0,0-0.1-0.1-0.1-0.1c-1.3-1.3-1.2-3.4,0.1-4.7c0,0,0,0,0,0c2.8-2.8,6.3-4.8,10.2-5.7C27.2,77.2,31,76.3,34.8,75.8z"/>
	<path id="Path_17" class="st0" d="M53.3,78.3c3.7-0.9,7.5-1.5,11.3-2c15.6-0.7,29.8,8.9,34.8,23.7c0.3,1.2,0,2.5-0.7,3.5
		c-0.9,0.8-2.2,1.1-3.3,0.8c-1.1-0.5-1.9-1.5-2.3-2.6c-3.5-9.7-12-16.8-22.2-18.3c-3.1-0.3-6.2-0.3-9.4-0.1c-0.6,0-1.3,0.1-1.7-0.2
		c-2.2-1.4-4.2-2.8-6.4-4.2C53.4,78.7,53.3,78.5,53.3,78.3z"/>
	<path id="Path_18" class="st0" d="M5.2,96.2c1.8,0.1,3.2,1.6,3.3,3.4c0.2,2.5-1.6,4.7-4,5c-1.8,0-3.3-1.4-3.3-3.2
		c0-0.1,0-0.2,0-0.3C1,98.7,2.7,96.6,5.2,96.2z"/>
</g>
</svg>
