<?xml version="1.0" encoding="utf-8"?>
<!-- Generator: Adobe Illustrator 24.3.0, SVG Export Plug-In . SVG Version: 6.00 Build 0)  -->
<svg version="1.1" id="Layer_1" xmlns="http://www.w3.org/2000/svg" xmlns:xlink="http://www.w3.org/1999/xlink" x="0px" y="0px"
	 viewBox="0 0 100 100" style="enable-background:new 0 0 100 100;" xml:space="preserve">
<style type="text/css">
	.st0{fill:#0E204B;}
</style>
<g id="logout" transform="translate(-0.025)">
	<path id="Path_22" class="st0" d="M63,36.7h-5.1v-20c0.5-5.7-3.6-10.8-9.3-11.3c-0.7-0.1-1.5-0.1-2.2,0h-30
		c-5.8-0.3-10.7,4.1-11,9.9c0,0.3,0,0.6,0,0.8v67.5c-0.2,5.8,4.3,10.7,10.1,10.9c0.3,0,0.7,0,1,0h30c5.8,0.5,10.8-3.8,11.3-9.6
		c0-0.5,0-1.1,0-1.6c0.1-6.6,0-13.3,0-20.1h5.1c0,8,0.5,16-0.1,23.9c-1.1,7.4-7.6,12.8-15.1,12.7c-10.8,0.2-21.5,0.2-32.3,0
		c-8.4-0.1-15.2-7-15.3-15.4c-0.1-23-0.1-46,0-69C0.2,6.8,7.3-0.1,16,0c0,0,0,0,0,0h31.3c8.4-0.3,15.4,6.2,15.8,14.6
		c0.3,6.9,0.1,13.8,0.2,20.7C63.2,35.7,63.1,36.1,63,36.7z"/>
	<path id="Path_23" class="st0" d="M89.9,52.6H31.8v-5.2h58.5L73.1,30.8c1.7-1.9,2.8-3.1,3.7-4.1C84.6,34.6,92.4,42.4,100,50
		L76.9,73.1c-0.8-0.9-1.9-2.2-3.2-3.5c5.6-5.6,11-11,16.5-16.4L89.9,52.6z"/>
</g>
</svg>
