<?xml version="1.0" encoding="utf-8"?>
<!-- Generator: Adobe Illustrator 24.3.0, SVG Export Plug-In . SVG Version: 6.00 Build 0)  -->
<svg version="1.1" id="Layer_1" xmlns="http://www.w3.org/2000/svg" xmlns:xlink="http://www.w3.org/1999/xlink" x="0px" y="0px"
	 viewBox="0 0 100 100" style="enable-background:new 0 0 100 100;" xml:space="preserve">
<style type="text/css">
	.st0{fill:#0E204B;}
</style>
<g id="myrevews" transform="translate(-14.5)">
	<path id="Path_33" class="st0" d="M81.7,77V67c3.4-0.8,3.6-0.7,3.6,2.4v23c0,5.4-2.3,7.6-7.6,7.6H36.1c-5.4,0-7.6-2.2-7.6-7.6v-85
		C28,4,30.3,0.7,33.8,0.2c0.7-0.1,1.4-0.1,2.1,0h41c6.5,0,8.4,1.9,8.4,8.3v3.1h-3.6v-4c0-3-0.7-3.7-3.5-3.7H35.5
		c-2.7,0-3.4,0.8-3.5,3.6v69.5C48.6,77,65,77,81.7,77z M81.7,81.3H32v10.9c0,3.6,0.6,4.1,4.2,4.1h42.5c1.7,0,2.8-0.8,2.8-2.6
		C81.7,89.6,81.7,85.5,81.7,81.3L81.7,81.3z"/>
	<path id="Path_34" class="st0" d="M46.2,46.5c0-6.7-0.1-13.5,0-20.2c-0.6-4.7,2.7-9,7.4-9.6c0.7-0.1,1.5-0.1,2.2,0
		c11.6-0.1,23.2-0.1,34.6,0c6.4,0,9.5,3.3,9.5,9.7v25.8c0,6.4-3.2,9.5-9.6,9.5c-9.9,0-19.8,0-29.5,0.1c-1.3,0.1-2.6,0.6-3.6,1.4
		c-2.6,2.1-4.9,4.5-7.4,6.6c-0.6,0.5-1.9,1.1-2.4,0.8c-0.8-0.6-1.2-1.5-1.2-2.5L46.2,46.5z M50,64.7c1.9-1.7,3.4-2.9,4.8-4.4
		c1.4-1.6,3.5-2.4,5.6-2.2c10,0.1,20.1,0.1,30,0c4.1,0,5.9-1.8,6-5.9V26.5c0-4.3-1.8-6.1-6-6.1H56c-4.5,0-6.2,1.6-6.2,6.2v35.4
		C49.9,62.7,49.9,63.4,50,64.7L50,64.7z"/>
	<path id="Path_35" class="st0" d="M56.7,90.3c-1.2,0.1-2.4,0.1-3.6-0.1c-0.8-0.3-1.3-1-1.5-1.8c-0.1-0.4,0.9-1.5,1.5-1.5
		c2.5-0.2,4.9-0.2,7.4,0c0.6,0,1.6,1.1,1.5,1.5c-0.2,0.8-0.7,1.5-1.5,1.9C59.2,90.4,58,90.4,56.7,90.3z"/>
	<path id="Path_36" class="st0" d="M63,51.5c0.4-2,0.8-4,1.3-6c0.6-1.5,0.1-3.2-1.3-4c-1.6-1.2-3-2.5-4.4-3.9
		c-1.5-1.5-1.1-3,1.1-3.4c2.2-0.4,4.4-0.4,6.6-0.9c1-0.3,1.8-0.9,2.4-1.8c1-1.7,1.5-3.6,2.5-5.3c0.4-0.9,1.2-1.5,2.1-1.8
		c0.6-0.1,1.4,1,1.9,1.7c0.6,0.8,1.1,1.8,1.3,2.8c0.8,3.9,3.5,4.8,7,4.9c1.7,0.3,3.4,0.9,5,1.6c-0.8,1.5-1.8,2.8-3,4
		c-3.1,1.6-4.4,5.4-2.8,8.5c0,0,0,0,0,0.1c0.4,1,0.6,2.1,0.6,3.2c0.2,2-1,2.9-2.9,2c-2-1-3.8-2.3-5.8-3.2c-0.9-0.4-1.8-0.4-2.7,0
		c-2,0.9-3.8,2.2-5.8,3.2C64.2,54.2,62.9,53.4,63,51.5z M73.2,30.9c-0.5,4.2-4.3,7.2-8.5,6.7c-0.1,0-0.3,0-0.4-0.1
		c3.8,1.8,5.5,6.3,3.7,10.1c-0.1,0.1-0.1,0.2-0.2,0.3c3-3.1,7.9-3.2,11-0.2c0,0,0.1,0.1,0.1,0.1c-2-3.6-0.8-8.2,2.8-10.2
		c0.2-0.1,0.4-0.2,0.5-0.3c-4,0.9-8-1.7-8.9-5.8C73.2,31.4,73.2,31.1,73.2,30.9z"/>
</g>
</svg>
