<?xml version="1.0" encoding="utf-8"?>
<!-- Generator: Adobe Illustrator 24.3.0, SVG Export Plug-In . SVG Version: 6.00 Build 0)  -->
<svg version="1.1" id="Layer_1" xmlns="http://www.w3.org/2000/svg" xmlns:xlink="http://www.w3.org/1999/xlink" x="0px" y="0px"
	 viewBox="0 0 100 100" style="enable-background:new 0 0 100 100;" xml:space="preserve">
<style type="text/css">
	.st0{fill:#0E204B;}
</style>
<g id="noti" transform="translate(-13 -0.474)">
	<path id="Path_8" class="st0" d="M55.8,16.8c-3.4-6.1-3-10.7,1.1-14.1c3.6-2.9,8.7-2.9,12.2,0.1c4,3.3,4.3,8.1,1.1,13.7
		c0.1,0.1,0.2,0.3,0.3,0.3c9.5,3,13.7,10.1,14.4,19.5c0,5.5,1,11,2.8,16.2c2.1,5.4,5.9,10.1,10.7,13.3c1.3,0.7,2,2.1,1.8,3.5
		c-0.1,3.7-0.1,7.5,0,11.2c0,2-0.6,2.9-2.8,2.9H28.4c-1.9,0-2.8-0.6-2.8-2.6c0.1-4-0.1-8,0.1-12c0.1-1.1,0.7-2.1,1.6-2.8
		c7.9-5.5,12.7-14.3,13.2-23.9c0.3-2.8,0.2-5.8,0.7-8.6C42.2,25.4,48,18.8,55.8,16.8z M29.4,80.1H94c2,0,2.9-0.5,2.8-2.7
		c-0.2-2,0.1-4.1-0.1-6.1c-0.2-1.2-0.7-2.3-1.5-3.1c-2-2.3-4.5-4.1-6.4-6.6c-4.9-6.8-7.5-15-7.3-23.4c-0.1-10.1-5.2-16.7-14-18.2
		c-2.9-0.4-5.8-0.4-8.7-0.1c-5.8,0.4-10.8,4.3-12.6,9.8c-1,3.1-1.6,6.4-1.6,9.7c0,11.3-5.1,21.9-13.9,29c-0.6,0.4-1.1,1-1.2,1.7
		C29.3,73.3,29.4,76.4,29.4,80.1z M68.8,9.9c0-3.2-2.6-5.8-5.9-5.8c-3.2,0.1-5.7,2.7-5.9,5.9c0,3.2,2.6,5.9,5.8,5.9
		c0.1,0,0.2,0,0.2,0c3.1,0,5.6-2.5,5.7-5.6C68.8,10.1,68.8,10,68.8,9.9z"/>
	<path id="Path_9" class="st0" d="M49.9,89.5c1.2-0.2,2.1-0.4,3.3-0.6c0.9,4.7,5.1,8.1,9.9,8c4.7,0,8.7-3.4,9.5-8
		c1.2,0.2,2.2,0.4,3.3,0.6c-1.2,7.2-8,12-15.2,10.8C55.2,99.4,50.9,95,49.9,89.5z"/>
</g>
</svg>
