<?xml version="1.0" encoding="utf-8"?>
<!-- Generator: Adobe Illustrator 24.3.0, SVG Export Plug-In . SVG Version: 6.00 Build 0)  -->
<svg version="1.1" id="Layer_1" xmlns="http://www.w3.org/2000/svg" xmlns:xlink="http://www.w3.org/1999/xlink" x="0px" y="0px"
	 viewBox="0 0 100 100" style="enable-background:new 0 0 100 100;" xml:space="preserve">
<style type="text/css">
	.st0{fill:#0E204B;}
</style>
<g id="reward" transform="translate(-0.005 0.141)">
	<path id="Path_1" class="st0" d="M86.5,21c-0.1,0.7-0.3,1.9-0.6,3c-1.1,4,1.3,8.2,5.4,9.3c1.9,0.4,3.6,1.3,5.1,2.5
		c4.4,3.9,4.8,10.7,0.9,15.1c-0.5,0.6-1.1,1.1-1.8,1.6c-1.5,0.9-2.6,2.2-3.4,3.8c-1.1,2.6-0.7,5.6,1.1,7.8c2.3,3,2.7,6.9,1.2,10.3
		c-1.8,4.5-6.4,7.2-11.2,6.6c-4.2-0.6-8.1,2.4-8.6,6.6c0,0.1,0,0.3,0,0.4c-0.1,4.9-3.6,9.2-8.4,10.2c-3.7,0.9-7.5-0.3-10.1-3
		c-2.3-2.7-6.2-3.3-9.3-1.7c-0.9,0.5-1.7,1.2-2.4,1.9c-2.7,2.8-6.8,3.8-10.5,2.6c-3.8-1-6.7-4-7.4-7.8c-0.3-1-0.3-2.1-0.5-3.2
		c-0.8-3.9-4.5-6.5-8.5-6c-4.2,0.7-8.4-1.4-10.5-5.1c-2.4-3.5-2.3-8.2,0.4-11.6C10.2,60.8,9.5,55.7,6,53c-0.2-0.2-0.4-0.3-0.7-0.5
		c-3.4-2.2-5.2-6.2-4.4-10.2c0.5-4.2,3.4-7.6,7.5-8.7c0.8-0.2,1.7-0.5,2.5-0.9c3.2-1.6,4.9-5.2,4-8.7c-0.7-2.2-0.7-4.5-0.2-6.7
		c1.7-5.7,7.6-8.9,13.3-7.2c0.5,0.1,1,0.3,1.5,0.6c1.9,1,4,1.2,6.1,0.7c2.3-0.7,4.1-2.3,5-4.5c1.3-3,3.9-5.3,7-6.1
		c5.1-1.4,10.4,1.1,12.5,5.9c0.8,1.9,2.2,3.4,4.1,4.3c2.2,1,4.8,0.9,6.9-0.2c3.3-1.7,7.3-1.5,10.4,0.6C84.7,13.5,86.7,17.1,86.5,21z
		 M83.6,20.6c-0.1-0.7-0.1-1.3-0.3-1.9c-1-4.2-5.2-6.7-9.4-5.7c-0.5,0.1-0.9,0.3-1.3,0.5c-1.5,0.7-3.2,1.2-4.8,1.3
		c-4.4,0.3-8.5-2.3-10.1-6.3c-1.6-4-6.2-5.9-10.1-4.2c-1.9,0.8-3.5,2.3-4.2,4.2c-0.5,1-1.1,2-1.9,2.9c-3.1,3.5-8.1,4.6-12.3,2.6
		c-1.7-0.9-3.7-1.3-5.6-0.9c-4.2,0.8-6.9,4.8-6.1,9c0,0.2,0.1,0.4,0.1,0.6c0.5,1.8,0.6,3.7,0.3,5.5c-0.7,4.1-3.8,7.3-7.8,8.3
		c-2,0.4-3.7,1.6-4.9,3.2C2.8,42.8,3.5,47.6,7,50.1c0,0,0,0,0,0c1.7,1.1,3.2,2.7,4.1,4.5c1.8,3.7,1.4,8.2-1.2,11.4
		c-1.9,2.4-2,5.8-0.3,8.4c1.5,2.7,4.4,4.1,7.4,3.7c5.8-0.8,11.2,3.3,12,9.1c0,0.3,0.1,0.6,0.1,0.9c0.2,4.3,3.8,7.6,8.1,7.4
		c2.1-0.1,4-1,5.4-2.6c1.7-1.9,4.1-3,6.7-3.2c3.3-0.4,6.7,0.9,8.9,3.4c1.6,1.8,3.9,2.7,6.3,2.4c4-0.3,7.1-3.6,7.1-7.6
		c0.4-5.9,5.6-10.2,11.4-9.8c0.2,0,0.4,0,0.6,0.1c4.2,0.5,8.1-2.5,8.6-6.7c0.3-2.1-0.3-4.1-1.6-5.8c-2.2-2.9-2.7-6.7-1.3-10.1
		c0.8-2.2,2.4-4.1,4.3-5.3c2.5-1.6,3.8-4.5,3.3-7.4c-0.3-3.1-2.6-5.7-5.7-6.4c-0.4-0.1-0.8-0.2-1.2-0.3c-4.8-1.6-7.9-6.4-7.3-11.4
		C83,23.3,83.3,21.9,83.6,20.6L83.6,20.6z"/>
	<path id="Path_2" class="st0" d="M49.4,80.8c-4.8-0.1-9.4-1.4-13.6-3.6c-1-0.5-1.4-1.4-1-2.2s1.3-1,2.4-0.4
		c4.4,2.3,9.3,3.4,14.2,3.3c15.6-0.5,27.9-13.6,27.4-29.2c-0.1-3.8-1-7.6-2.6-11.1c-0.1-0.1-0.1-0.2-0.2-0.4c-0.4-1-0.2-1.9,0.6-2.3
		c0.8-0.4,1.6,0,2.1,1c5.3,11.1,3.7,24.3-4.3,33.7C68.1,77,58.9,81.1,49.4,80.8z"/>
	<path id="Path_3" class="st0" d="M18.9,49.5C19,34.2,30.1,21.3,45.1,18.7c6.5-1.2,13.3-0.2,19.2,2.8c1.1,0.5,1.4,1.2,1.1,2.1
		c-0.3,0.8-1.1,1.2-1.9,0.9c-0.1,0-0.2-0.1-0.3-0.2c-2.5-1.2-5.2-2.1-7.9-2.6C40.9,19.1,26.9,28,23.1,42c-1.8,6.3-1.3,12.9,1.4,18.9
		c0.2,0.3,0.3,0.7,0.4,1c0.2,0.7-0.2,1.5-0.9,1.7c-0.7,0.3-1.5,0-1.9-0.7c0,0,0-0.1-0.1-0.1c-0.8-2-1.6-4-2.1-6.1
		C19.4,54.4,19.2,51.9,18.9,49.5z"/>
	<path id="Path_4" class="st0" d="M32.2,69.4c-0.5-0.4-1.1-0.7-1.3-1.1c-0.1-0.5-0.1-1,0.1-1.5c0.1-0.3,0.4-0.5,0.6-0.7l35.3-35.2
		c0.2-0.2,0.4-0.4,0.6-0.6c0.6-0.6,1.5-0.6,2.1,0c0.6,0.6,0.6,1.5,0,2.1c-0.2,0.2-0.4,0.4-0.6,0.6C57.3,44.7,45.6,56.5,33.8,68.2
		C33.3,68.6,32.8,69,32.2,69.4z"/>
	<path id="Path_5" class="st0" d="M43.9,39.9c0,2.7-2.1,4.8-4.8,4.9c0,0-0.1,0-0.1,0c-2.7,0-4.9-2.2-4.9-4.9c0-2.7,2.2-4.9,4.9-4.9
		C41.7,34.9,43.9,37.1,43.9,39.9C43.9,39.9,43.9,39.9,43.9,39.9z M40.9,39.9c0-1.1-0.8-1.9-1.9-1.9c-1.1,0-1.9,0.8-1.9,1.9
		c0,1.1,0.8,1.9,1.9,1.9c0.5,0,1-0.2,1.4-0.5C40.7,40.9,40.9,40.4,40.9,39.9z"/>
	<path id="Path_6" class="st0" d="M59.7,55.5c2.7,0,4.8,2.3,4.8,5c0,2.7-2.3,4.8-5,4.8c-2.7,0-4.8-2.3-4.8-5
		C54.7,57.6,57,55.5,59.7,55.5C59.7,55.5,59.7,55.5,59.7,55.5z M59.6,58.5c-1,0-1.9,0.9-1.8,1.9c0,1,0.9,1.9,1.9,1.8
		s1.9-0.9,1.8-1.9c0,0,0,0,0,0C61.5,59.3,60.6,58.5,59.6,58.5L59.6,58.5z"/>
</g>
</svg>
