<?xml version="1.0" encoding="utf-8"?>
<!-- Generator: Adobe Illustrator 24.3.0, SVG Export Plug-In . SVG Version: 6.00 Build 0)  -->
<svg version="1.1" id="Layer_1" xmlns="http://www.w3.org/2000/svg" xmlns:xlink="http://www.w3.org/1999/xlink" x="0px" y="0px"
	 viewBox="0 0 100 100" style="enable-background:new 0 0 100 100;" xml:space="preserve">
<style type="text/css">
	.st0{fill:#0E204B;}
</style>
<g id="settings" transform="translate(0.013 -4.898)">
	<path id="Path_19" class="st0" d="M31,23.5H3.6c-0.5,0-1,0-1.5-0.1c-1,0-1.8-0.8-1.8-1.8c-0.1-1,0.4-1.9,1.4-2.2
		c0.6-0.2,1.3-0.2,2-0.2h55c1.2,0,1.7-0.2,2-1.5c2-6.7,9.1-10.6,15.8-8.6c4.1,1.2,7.3,4.4,8.6,8.5c0.4,1.3,0.9,1.7,2.2,1.6
		c3.2-0.1,6.3,0,9.4,0c1.2,0,2.2,0.3,2.6,1.5c0.5,1.5-0.5,2.8-2.3,2.8H87c-0.9-0.1-1.7,0.5-1.8,1.3c0,0,0,0,0,0.1
		c-1.9,6.8-8.8,10.7-15.6,8.9c-4.4-1.2-7.7-4.6-8.9-9c-0.3-1.1-0.9-1.3-1.9-1.3L31,23.5z M81.4,21.5c0.1-4.6-3.6-8.4-8.2-8.5
		c-0.1,0-0.1,0-0.2,0c-4.6,0-8.4,3.7-8.5,8.3c-0.1,4.7,3.7,8.5,8.4,8.6S81.4,26.2,81.4,21.5z"/>
	<path id="Path_20" class="st0" d="M25.1,86.4h21.8c1.1,0,1.5-0.3,1.8-1.3c1.8-6.8,8.8-10.7,15.6-8.9c4.3,1.2,7.6,4.5,8.8,8.7
		c0.4,1.3,1,1.6,2.3,1.6c6.9-0.1,13.8,0,20.7,0c0.5,0,1.1,0,1.6,0.1c1,0.1,1.7,0.9,1.7,1.9c0.1,1-0.4,1.9-1.4,2.2
		c-0.6,0.2-1.2,0.2-1.9,0.2H75c-1,0-1.5,0.2-1.8,1.3c-1.9,6.8-8.8,10.7-15.6,8.9c-4.4-1.2-7.7-4.6-8.9-9c-0.3-1.1-0.9-1.2-1.8-1.2
		H3.7c-0.6,0-1.1,0-1.7-0.1c-1.1-0.2-1.8-1.2-1.6-2.2c0,0,0-0.1,0-0.1c0.1-1,0.9-1.8,1.9-1.9c0.5,0,1.1,0,1.6,0
		C10.9,86.4,18.1,86.4,25.1,86.4L25.1,86.4z M69.4,88.6c0-4.7-3.8-8.5-8.5-8.5s-8.5,3.8-8.5,8.5S56.3,97,61,97S69.4,93.2,69.4,88.6z
		"/>
	<path id="Path_21" class="st0" d="M14.5,52.7c0.2-0.7,0.4-1.3,0.6-1.9c2.2-6.7,9.4-10.3,16.1-8.1c4,1.3,7,4.5,8.2,8.5
		c0.1,1,1,1.6,2,1.5c0,0,0.1,0,0.1,0h53.5c0.8,0,1.7,0,2.5,0.1c1.1,0.1,2,1.2,1.8,2.3c-0.1,1-0.9,1.7-1.8,1.8c-0.5,0-1.1,0-1.6,0
		H41.7c-1.1-0.2-2.1,0.6-2.3,1.7c0,0,0,0,0,0c-2,6.7-9.1,10.5-15.7,8.5c-4.2-1.2-7.4-4.5-8.6-8.7c-0.1-0.9-0.9-1.6-1.9-1.5
		c0,0-0.1,0-0.1,0c-3.4,0.1-6.8,0.1-10.2,0c-1.7,0-2.6-1-2.5-2.4c0.1-1.2,1-1.9,2.5-1.9H14.5z M35.6,55c0.1-4.7-3.5-8.5-8.2-8.7
		c-4.7-0.1-8.5,3.5-8.7,8.2c0,0.1,0,0.3,0,0.4c0,4.7,3.8,8.5,8.5,8.5C31.9,63.4,35.6,59.7,35.6,55z"/>
</g>
</svg>
