<?xml version="1.0" encoding="utf-8"?>
<!-- Generator: Adobe Illustrator 24.3.0, SVG Export Plug-In . SVG Version: 6.00 Build 0)  -->
<svg version="1.1" id="Layer_1" xmlns="http://www.w3.org/2000/svg" xmlns:xlink="http://www.w3.org/1999/xlink" x="0px" y="0px"
	 viewBox="0 0 100 100" style="enable-background:new 0 0 100 100;" xml:space="preserve">
<style type="text/css">
	.st0{fill:#0E204B;}
</style>
<g id="wallet" transform="translate(0 -8.85)">
	<path id="Path_10" class="st0" d="M50.8,101.8c-10.5,0-20.9,0.1-31.4,0c-9.3,0.4-17.4-6-19.1-15.2c-0.2-1.1-0.2-2.3-0.2-3.5V36.5
		c-0.3-9.9,7.4-18.1,17.3-18.5c0,0,0.1,0,0.1,0c8.5-0.4,17.1-0.2,25.5-0.2h40.4c1.7,0,3.1,0.6,3.2,2.6c0,2-1.3,2.7-3.1,2.7H20.1
		c-3.5-0.3-6.9,0.7-9.7,2.8c-3.1,2.3-4.9,5.9-5,9.8c0,16.2-0.1,32.3,0,48.4c0.1,6.3,5,11.6,11.3,12.2c2.1,0.2,4.3,0.2,6.4,0.2h59.3
		c5.1,0,6.7-1.6,6.8-6.8c0-0.8,0-1.9,0.4-2.3c0.7-0.8,1.7-1.3,2.8-1.4c1,0.3,1.7,1,2,2c1.5,5.9-2,11.9-7.9,13.5
		c-1.1,0.3-2.2,0.4-3.3,0.4C72.3,101.8,61.5,101.8,50.8,101.8z"/>
	<path id="Path_11" class="st0" d="M79.7,49.4c3.8,0,7.6-0.1,11.3,0c4.5-0.4,8.5,2.8,8.9,7.3c0.1,0.6,0.1,1.2,0,1.8v13.8
		c0.3,4.5-3,8.3-7.5,8.7c-0.4,0-0.9,0-1.3,0c-7.6,0-15.1,0.1-22.6,0c-8.6,0.1-15.7-6.8-15.9-15.4c-0.3-8.5,6.3-15.7,14.9-16.1
		C71.5,49.2,75.6,49.4,79.7,49.4L79.7,49.4z M79.6,54.7L79.6,54.7c-3.9,0-7.9-0.1-11.8,0.1c-5.6,0.1-10.1,4.7-10,10.3
		c0,0.1,0,0.2,0,0.3C58,71,62.6,75.6,68.3,75.5c7.6,0.1,15.1,0,22.6,0c2.6,0,3.5-1,3.5-3.6V58.2c0-2.7-0.8-3.5-3.6-3.6
		C87.2,54.7,83.4,54.7,79.6,54.7z"/>
	<path id="Path_12" class="st0" d="M52.1,28.4h31.4c5.7-0.4,10.6,4,11,9.7c0,0.5,0,0.9,0,1.4v2.7c0,1.7-1,2.9-2.5,2.7
		c-1-0.2-2.1-1.5-2.8-2.5c-0.4-0.6-0.1-1.8-0.1-2.7c0-4.2-1.8-6-6-6H19.4c-1.9,0-3.5-0.3-3.7-2.6c-0.2-1.8,1.1-2.7,3.8-2.7
		L52.1,28.4z"/>
	<path id="Path_13" class="st0" d="M72.3,65.1c-0.2,2.1-1.9,3.8-4,4c-2.2,0.1-4-1.6-4.1-3.8c-0.1-2.2,1.6-4,3.8-4.1
		c0.1,0,0.2,0,0.3,0C70.5,61.3,72.2,63,72.3,65.1z"/>
</g>
</svg>
